<?xml version="1.0" encoding="utf-8"?>
<!-- Generator: Adobe Illustrator 21.0.0, SVG Export Plug-In . SVG Version: 6.00 Build 0)  -->
<svg version="1.1" id="Layer_2" xmlns="http://www.w3.org/2000/svg" xmlns:xlink="http://www.w3.org/1999/xlink" x="0px" y="0px"
	 viewBox="0 0 2535.3 709.2" style="enable-background:new 0 0 2535.3 709.2;" xml:space="preserve">
<style type="text/css">
	.st0{fill:#FFFFFF;}
	.st1{fill:#214695;}
	.st2{fill:#FFD627;}
	.st3{clip-path:url(#SVGID_2_);fill:url(#SVGID_3_);}
</style>
<g>
	<rect x="606.9" y="231.1" class="st0" width="1746.1" height="263.1"/>
	<g>
		<path class="st1" d="M1510.1,341.8c-8.9,0-16.3,3.1-22.2,9.1c-5.8,6.1-8.8,14-8.8,23.9c0,10,3,18.1,8.8,24.3
			c5.9,6.2,13.3,9.3,22.2,9.3c8.7,0,15.9-3.1,21.8-9.4c5.9-6.3,8.9-14.3,8.9-24s-2.9-17.6-8.7-23.8
			C1526.1,344.9,1518.9,341.8,1510.1,341.8z"/>
		<path class="st1" d="M2222.1,345.5c-5.5-3.9-11.9-5.9-19.2-5.9c-7.9,0-14.8,2.2-20.7,6.6c-3.7,2.8-7.2,7.7-10.4,14.6h61.4
			C2231.3,354.6,2227.6,349.4,2222.1,345.5z"/>
		<path class="st1" d="M2013.1,341.8c-8.9,0-16.3,3.1-22.2,9.1c-5.9,6.1-8.8,14-8.8,23.9c0,10,2.9,18.1,8.8,24.3
			c5.9,6.2,13.3,9.3,22.2,9.3c8.6,0,15.9-3.1,21.8-9.4c5.9-6.3,8.9-14.3,8.9-24s-2.9-17.6-8.7-23.8
			C2029.3,344.9,2021.9,341.8,2013.1,341.8z"/>
		<path class="st1" d="M1316.6,342.3c-8.8,0-16.1,3.1-22,9.2c-5.8,6.1-8.8,13.9-8.8,23.5c0,9.8,2.9,17.8,8.7,23.8
			c5.8,6.1,13.1,9.1,22,9.1c8.8,0,16.2-3.1,22.1-9.2c5.9-6.2,8.8-14.1,8.8-23.7c0-9.7-2.9-17.5-8.7-23.6
			C1333.1,345.3,1325.6,342.3,1316.6,342.3z"/>
		<path class="st1" d="M737.3,303.4c-14.1,0-26,4.9-35.6,14.7c-9.6,9.8-14.4,22.3-14.4,37.4c0,16.9,6.1,30.2,18.2,40
			c9.4,7.7,20.2,11.5,32.4,11.5c13.7,0,25.4-5,35.1-14.9c9.7-9.9,14.5-22.2,14.5-36.8c0-14.5-4.9-26.8-14.6-36.8
			C763.2,308.5,751.3,303.4,737.3,303.4z"/>
		<path class="st1" d="M1819.8,342.3c-8.8,0-16.1,3.1-22,9.2c-5.8,6.1-8.8,13.9-8.8,23.5c0,9.8,2.9,17.8,8.7,23.8
			c5.8,6.1,13.1,9.1,22,9.1c8.8,0,16.2-3.1,22.1-9.2c5.9-6.2,8.8-14.1,8.8-23.7c0-9.7-2.9-17.5-8.7-23.6
			C1836.1,345.3,1828.8,342.3,1819.8,342.3z"/>
		<path class="st1" d="M2315.6,261.3c0-1-0.2-1.7-0.7-2.3s-1.3-1-2.2-1.1c-0.5,0-1.9-0.1-4.3-0.1h-4.5v7.2h4.3
			c2.7,0,4.5-0.1,5.2-0.3c0.7-0.3,1.2-0.7,1.6-1.2C2315.6,262.9,2315.6,262.2,2315.6,261.3z"/>
		<path class="st1" d="M2309.1,241.7c-14.4,0-26.2,11.8-26.2,26.2s11.8,26.2,26.2,26.2s26.2-11.8,26.2-26.2
			S2323.4,241.7,2309.1,241.7z M2317.1,281.5l-4.2-6.2c-1.5-2.2-2.5-3.6-3-4.2c-0.6-0.6-1.2-1-1.7-1.2c-0.6-0.2-1.6-0.3-2.9-0.3
			h-1.2v11.9h-5.7v-28.6h12.1c3.1,0,5.3,0.3,6.7,0.8s2.5,1.4,3.3,2.7c0.8,1.3,1.2,2.8,1.2,4.5c0,2.1-0.6,3.9-1.9,5.3
			c-1.3,1.4-3.1,2.3-5.7,2.7c1.3,0.7,2.3,1.5,3.1,2.4s1.9,2.4,3.3,4.7l3.5,5.6L2317.1,281.5L2317.1,281.5z"/>
		<path class="st1" d="M2349.4,195H594.7c-9.9,0-18,8-18,18v308.5c0,9.9,8,18,18,18h1754.7c9.9,0,18-8,18-18V213
			C2367.3,203.1,2359.3,195,2349.4,195z M793.5,412c-15.3,15.4-33.9,23.1-55.7,23.1c-22.9,0-41.9-7.9-57.1-23.7
			C665.7,395.6,658,376.8,658,355c0-14.6,3.5-28,10.6-40.2c7-12.2,16.8-21.9,29.1-29.1c12.4-7.1,25.7-10.7,39.9-10.7
			c21.6,0,40.1,7.8,55.6,23.4s23.3,34.6,23.3,57.1C816.5,377.8,808.9,396.7,793.5,412z M993.9,431.3h-28V382
			c0-13.5-0.6-22.4-1.8-26.8s-3.3-7.8-6.3-10.1c-3-2.3-6.7-3.5-11.1-3.5c-5.7,0-10.6,1.9-14.8,5.7c-4.1,3.8-7,9.1-8.5,15.9
			c-0.8,3.5-1.2,11.1-1.2,22.9v45.2h-28.3V318.6h28.3v11.5c6.4-5.4,12.2-9.2,17.4-11.3s10.5-3.2,16-3.2c11.2,0,20.7,3.9,28.4,11.7
			c6.6,6.6,9.8,16.5,9.8,29.4L993.9,431.3L993.9,431.3z M1106.8,399.2c6.3,6.1,14.6,9.1,24.8,9.1c12.7,0,22.5-4.3,29.6-13l22.3,15.3
			c-12.1,15.7-29.1,23.6-51.2,23.6c-19.8,0-35.4-5.8-46.6-17.6c-11.2-11.8-16.8-25.5-16.8-41.3c0-10.9,2.7-20.9,8.2-30.1
			s13.1-16.4,22.9-21.7c9.8-5.3,20.7-7.9,32.8-7.9c11.2,0,21.3,2.3,30.2,6.7s16.2,10.8,21.9,19l-23.6,13c-4.4-4.7-8.8-7.9-13.1-9.7
			c-4.3-1.8-9.4-2.7-15.2-2.7c-10.6,0-19.1,3.2-25.7,9.5c-6.5,6.3-9.8,14.4-9.8,24.3C1097.4,385.3,1100.4,393.1,1106.8,399.2z
			 M1368.1,404.7c-5.3,9.2-12.5,16.5-21.6,21.7c-9.1,5.3-19.2,7.8-30.2,7.8c-16.2,0-30-5.7-41.4-17.3
			c-11.5-11.5-17.2-25.5-17.2-41.9c0-17.6,6.4-32.3,19.4-44c11.3-10.2,24.3-15.3,39.1-15.3c10.6,0,20.6,2.7,30,8
			c9.4,5.3,16.7,12.5,21.9,21.7c5.2,9.1,7.9,18.9,7.9,29.5C1375.9,385.5,1373.4,395.4,1368.1,404.7z M1552.9,417.3
			c-10.7,11.3-23.3,16.9-37.8,16.9c-6.5,0-12.5-1.1-18.2-3.5c-5.6-2.3-11.2-6.1-16.7-11.4v53.2h-28.1v-154h28.1V331
			c5.1-5.1,10.7-8.9,16.6-11.5c6-2.6,12.3-3.8,19.1-3.8c14.7,0,27.2,5.5,37.5,16.7c10.3,11.1,15.5,25.4,15.5,42.8
			C1568.9,391.9,1563.6,406,1552.9,417.3z M1690.4,342.9c-3.3-1.7-6.1-2.5-8.2-2.5c-4.3,0-8,2.7-11,8.1s-4.5,15.9-4.5,31.7l0.1,5.5
			v45.6h-28.1V318.6h24.3v14.2c2.6-5.6,6.1-9.8,10.5-12.8c4.4-2.9,9.1-4.4,14.3-4.4c3.7,0,7.5,1,11.5,2.9L1690.4,342.9z
			 M1871.1,404.7c-5.3,9.2-12.5,16.5-21.6,21.7c-9.1,5.3-19.2,7.8-30.2,7.8c-16.2,0-30-5.7-41.4-17.3
			c-11.4-11.5-17.2-25.5-17.2-41.9c0-17.6,6.5-32.3,19.4-44c11.3-10.2,24.3-15.3,39.1-15.3c10.6,0,20.6,2.7,30,8
			c9.4,5.3,16.7,12.5,21.9,21.7c5.2,9.1,7.9,18.9,7.9,29.5C1879.1,385.5,1876.4,395.4,1871.1,404.7z M2056.1,417.3
			c-10.6,11.3-23.2,16.9-37.8,16.9c-6.5,0-12.5-1.1-18.1-3.5c-5.6-2.3-11.2-6.1-16.7-11.4v11.9h-28.1V275h28.1v56
			c5.1-5.1,10.7-8.9,16.6-11.5c6-2.6,12.3-3.8,19.1-3.8c14.7,0,27.2,5.5,37.5,16.7c10.3,11.1,15.5,25.4,15.5,42.8
			C2071.9,391.9,2066.6,406,2056.1,417.3z M2261.4,383.1h-90.9c1.3,8,4.8,14.4,10.5,19.1s13,7.1,21.9,7.1c10.6,0,19.6-3.7,27.3-11.1
			l23.8,11.2c-6,8.4-13.1,14.7-21.3,18.7c-8.3,4.1-18.2,6.1-29.5,6.1c-17.7,0-32.1-5.6-43.2-16.7c-11.1-11.2-16.7-25.1-16.7-41.9
			c0-17.2,5.5-31.5,16.6-42.9s25-17,41.7-17c17.8,0,32.2,5.7,43.3,17c11.2,11.4,16.7,26.4,16.7,45L2261.4,383.1z M2309.1,297.2
			c-16.2,0-29.3-13.1-29.3-29.3s13.1-29.3,29.3-29.3c16.1,0,29.3,13.1,29.3,29.3S2325.1,297.2,2309.1,297.2z"/>
	</g>
	<g>
		<path class="st1" d="M219.2,426.3c0-68.4,55.1-123.9,123.4-124.5c-20.6-29.5-55.2-48.9-94.5-48.9c-63.1,0-114.3,50.1-114.3,111.9
			c0,55.4,41.2,101.3,95.3,110.2C222.8,460,219.2,443.6,219.2,426.3z"/>
		<path class="st1" d="M227.3,471c-50.8-9-89.4-53.5-89.4-106.8c0-59.8,48.7-108.5,108.5-108.5c36.7,0,69.1,18.3,88.8,46.2
			c2.9-0.2,5.7-0.3,8.6-0.3c1.7,0,3.3,0,5,0.1c-4.4-7.1-9.4-13.8-15.1-19.8l26.5-43.5l59.3-1.6l0.3,13.8l-49.6,0.9
			c-3.2,0.1-5.7,2.7-5.7,5.9c0.1,3.1,2.6,5.7,5.8,5.7h0.1l54.1-1l0,0c0.4,0.1,0.8,0.1,1.2,0.1h0.1c3.2-0.1,5.7-2.7,5.6-5.9
			l-0.5-25.4c-0.1-2.9-2.3-5.3-5.1-5.6c-0.4-0.1-0.9-0.2-1.3-0.2c-0.1,0-0.1,0-0.2,0l-62.8,1.7c-0.2-0.2-0.4-0.3-0.7-0.5
			c-0.4-0.2-0.7-0.4-1.1-0.5l-62-57.5c-0.8-0.7-1.8-1.2-2.7-1.4c-2-0.6-4.2-0.1-5.7,1.5l-16.8,17.3c-2.2,2.3-2.2,5.9,0.1,8.1
			c0.7,0.6,1.4,1.1,2.2,1.3l30.5,28.1c1.1,1,2.5,1.5,3.9,1.5c1.6,0,3.1-0.6,4.2-1.9c2.2-2.3,2-6-0.3-8.1L285.2,189l8.6-8.8
			l36.8,34.1l-28.1,43.6c-16.7-8.9-35.8-13.9-56-13.9c-66.2,0-120,53.8-120,120c0,61.6,46.7,112.5,106.6,119.3
			C230.8,479.4,228.9,475.3,227.3,471z M339.1,222.4l11.2,10.3l-25,41c-4.1-3.5-8.4-6.8-12.9-9.8L339.1,222.4z"/>
		<path class="st2" d="M343.8,542.5c-64.1,0-116.2-52.1-116.2-116.2s52.1-116.2,116.2-116.2S460,362.3,460,426.3
			C460,490.4,407.8,542.5,343.8,542.5"/>
		<g>
			<g>
				<defs>
					<path id="SVGID_1_" d="M343.8,542.5c-64.1,0-116.2-52.1-116.2-116.2s52.1-116.2,116.2-116.2S460,362.3,460,426.3
						C460,490.4,407.8,542.5,343.8,542.5"/>
				</defs>
				<clipPath id="SVGID_2_">
					<use xlink:href="#SVGID_1_"  style="overflow:visible;"/>
				</clipPath>
				
					<radialGradient id="SVGID_3_" cx="1535.4906" cy="618.7118" r="69.9062" gradientTransform="matrix(1.3747 0 0 -1.3747 -1804.5889 1228.8657)" gradientUnits="userSpaceOnUse">
					<stop  offset="0" style="stop-color:#FFFFFF"/>
					<stop  offset="0.4728" style="stop-color:#FFFFFF;stop-opacity:0.3868"/>
					<stop  offset="0.8561" style="stop-color:#FFFFFF;stop-opacity:0"/>
				</radialGradient>
				<circle class="st3" cx="306.3" cy="378.3" r="96.1"/>
			</g>
		</g>
	</g>
</g>
</svg>
