<svg xmlns="http://www.w3.org/2000/svg" viewBox="0 0 313 295"><defs><style>.cls-1{fill:#fff;}</style></defs><g id="Layer_2" data-name="Layer 2"><path class="cls-1" d="M254.68,131.41a.76.76,0,0,1-.09-.18h.08v-3.6h-.18V131a1.66,1.66,0,0,1,0-.81c0-.3,0-.59,0-.89,0-.48,0-.95,0-1.43l0-1.42c0-.23,0-.23,0-.45A11,11,0,0,0,254,123a3.91,3.91,0,0,1-.32-.72h.13v-1.62h-.18v1.45a3.24,3.24,0,0,1-.06-.39c-.07-1.32-.17-2.63-.3-4h-.18a5.33,5.33,0,0,1-.31-.9h.13v-.9h-.18v.74c-.08-.35-.13-.71-.18-1.1l0-.41,0-.43a3.34,3.34,0,0,0-.12-.78,3.33,3.33,0,0,1-.48-.72H252v-.9h-.18v.74a2.53,2.53,0,0,1-.07-.34,7.14,7.14,0,0,0-.35-2.34,15.9,15.9,0,0,1-1-2.66l-.27-1c0-.12-.07-.24-.1-.35s-.11-.37-.16-.55h-.36c0-.13,0-.25,0-.38s0-.33-.05-.49a2.42,2.42,0,0,0-.47-1.48l-.36-.18-.09-.29c-.1-.47-.1-.47-.45-1.69h-.36v-.9l-.36-.18c0-.12-.08-.25-.11-.37s0-.18-.07-.35h-.36c0-.36-.05-.71-.07-1.07s-.11-.37-.46-.63a1.07,1.07,0,0,1-.59-.69l-.16-.46c-.12-.31-.23-.62-.34-.93-.18-.63-.2-1-.74-1.33l-.34-.11v-.54l-.25-.25a1.13,1.13,0,0,1-.48-.77c-.06-.14-.12-.28-.17-.42l-.36-.18a1.78,1.78,0,0,0-.69-1.22,3.83,3.83,0,0,1-1-1.36c0-.13-.1-.25-.14-.37-.19-.3-.19-.3-.58-.43l-.33,0a3.19,3.19,0,0,0-1.27-2.16h-.36V86.2a2.09,2.09,0,0,1-.9-1,7.85,7.85,0,0,0-.54-.8h-.36V84a2,2,0,0,1-.78-.63c-.21-.28-.43-.54-.66-.81h-.36v-.36l-.42-.26a2.18,2.18,0,0,1-.78-.56l-.24-.26-.36-.36a5.28,5.28,0,0,0-1.29-1.12l-.33-.14a4.51,4.51,0,0,0-.72-.63l-.36-.27q-.18-.19-.36-.36h-.54A2.31,2.31,0,0,0,228,77.16l-.49-.14v-.37l-.42-.27-.48-.27-.54-.36c-.31-.11-.61-.23-.91-.36a3.88,3.88,0,0,0-2.19-1l-.33-.06V74l-2-.54v-.36l-1.14-.28-.44-.09-.43-.1-.33-.07v-.36c-.46-.11-.91-.23-1.37-.37a62.42,62.42,0,0,0-15.49-2.85l-.61,0v-.18h-3.93c-.37,0-.74,0-1.12,0-.18.22-.18.22-.53.21l-.45,0-.48,0-1,0-.49,0c-.27,0-.53,0-.8,0a1.92,1.92,0,0,1-1.28.31c-.65.07-1.31.14-2,.23-.18.22-.18.22-.55.23s-.84.07-1.25.13a2.31,2.31,0,0,1-1.17.43c-.83.2-1.66.39-2.47.66l-1,.31a16.39,16.39,0,0,0-1.85.54l-.9.4a11.43,11.43,0,0,0-2.34.9v.36a3.45,3.45,0,0,0-2,.43l-.32.18-.66.34a11.66,11.66,0,0,1-1.83.85c-.5.17-1,.35-1.45.54v.36a17.64,17.64,0,0,0-2.17.54l-.18.37a1.57,1.57,0,0,0-1,.24,3.83,3.83,0,0,1-1.21.48,7.25,7.25,0,0,0-1.26.44,16.93,16.93,0,0,1-3.4,1.12l-.3.06v.36a1.11,1.11,0,0,0-.78-.17l-.48.06c-.3,0-.6.06-.9.11a1,1,0,0,1-.75.2h-2.63a8.25,8.25,0,0,1-1.85-.2c-.54-.16-1.08-.33-1.64-.44a9.15,9.15,0,0,1-2.05-.62c-.4-.19-.8-.38-1.22-.55a7.89,7.89,0,0,1-3.23-2.12l-.32-.42a5.66,5.66,0,0,1-1.82-1.24l-.7-.74a3.46,3.46,0,0,1-1.14-1.49c0-.17-.09-.33-.12-.49h-.37c-.32-.35-.61-.7-.9-1.08a3.55,3.55,0,0,0-1.12-1.33l-.32-.11a6.75,6.75,0,0,0,0-.9l-.36-.36q-.25-.47-.54-.9h-.36a7.48,7.48,0,0,0-.54-1.8h-.36a3.12,3.12,0,0,0-.54-1.8H136V62.6c-.39-.14-.39-.14-.5-.52-.06-.21-.13-.42-.19-.63l.15-.47-.36-.18h0a3,3,0,0,1-.42-1.19,5.91,5.91,0,0,0-.3-2,2.22,2.22,0,0,1-.26-1l0-.53c0-.27,0-.27-.05-.53s0-.27,0-.4h-.18a22.13,22.13,0,0,0-.18-2.7A2.64,2.64,0,0,0,132.22,51l-.39-.1v-.36l-.43-.18a3.69,3.69,0,0,0-2.73,0l-.09,0c-.18.13-.37.28-.55.43s-.21.17-.33.27l0,0-.18.54h-.36a2.88,2.88,0,0,0-.59,2.2v.48a27.16,27.16,0,0,0,1.63,8.2l.22.65q.24.81.54,1.62l.36.18.14.63a5.62,5.62,0,0,0,.67,1.65,9.91,9.91,0,0,1,.66,1.3c.07.19.07.19.15.38l.36.54a9.37,9.37,0,0,0,.36.9l.54.18a1.45,1.45,0,0,0,.14.86l.18.33a3.22,3.22,0,0,0,.4.61l.54.18c0,.47,0,.47.54,1.26h.36a1.73,1.73,0,0,0,.6,1.34,3.25,3.25,0,0,1,.86,1,11.76,11.76,0,0,0,.88,1.25l.54.18c0,.36,0,.36.2.61l.29.28c.1.11.21.21.31.31l.33.33.32.32c.1.11.21.21.31.31a3.68,3.68,0,0,0,.86.68,2.75,2.75,0,0,1,.26.22v-.06a3.68,3.68,0,0,1,1,.87,3.61,3.61,0,0,0,1.31,1l.42.15.54.54q.45.17.9.36c.31.47.44.69,1,.87l.49.08.49.08.38,0v.54q.63.07,1.26.18l.18.36h.54V86a3.91,3.91,0,0,1,1.73.35,5.28,5.28,0,0,0,2.78.67l1.16,0h.57l1,0a2.14,2.14,0,0,0,1.15.11,3,3,0,0,1,.94-.14h.51l1.12,0h.58l.55,0a4.88,4.88,0,0,0,.91-.07c.17-.22.25-.31.36-.36l-.18.36a2.42,2.42,0,0,0,1.62-.36h-1.44a1.24,1.24,0,0,1,.38,0c.41,0,.82,0,1.24,0a10,10,0,0,1,2.62-.84l.44-.06V85.3l1.44-.18v-.36a5.12,5.12,0,0,0,1.81-.44l.54-.28a11,11,0,0,0,2.35-.9,9.18,9.18,0,0,1,2.29-1,1.42,1.42,0,0,0,.72-.26,10.08,10.08,0,0,1,2.33-1.2,13.18,13.18,0,0,0,1.51-.6,3.33,3.33,0,0,1,.72-.31,19,19,0,0,0,1.92-.68l.58-.26.3-.12-.12.12.72-.18-.2-.1.21-.08a2.67,2.67,0,0,1,1.07-.42l1.09-.12.24-.14-.06.14.9-.18-.52-.13A4.46,4.46,0,0,1,188.8,77h.31v-.37l.35,0-.17.35,1.62-.19v-.18h0a4.17,4.17,0,0,1,.72-.29v.11h2v-.18h-1.73a4.76,4.76,0,0,1,.8-.09l.44,0c1.56-.07,3.13-.08,4.69-.09h.38c1.73,0,3.43,0,5.15.2v.18c1.14.1,2.27.16,3.41.18h-.35v.18l1.8.19-.18-.36h.36V77h.41l.54,0a3.22,3.22,0,0,1,.89.13H209.1v.18h1.26v-.13a1.73,1.73,0,0,1,.39.22c.33.27.33.27,1,.37a6.89,6.89,0,0,1,1.4.26l.62.18a6.38,6.38,0,0,1,1.26.18l.12.14-.84-.14.54.36.38-.13.11.13c.5.44.5.44,2,.52l.41,0v.36a4.65,4.65,0,0,1,1.44.54l.45.39c.45.33.45.33.87.28l.3-.13v.36h.54v.36a4.91,4.91,0,0,1,1.44.54v.36a4.49,4.49,0,0,1,1.8.54v.36l.54.18.55.54a16,16,0,0,1,1.69,1.24l1.34,1.15c.2.16.38.32.57.49.18.36.18.36.51.53a1.4,1.4,0,0,1,.65.43l.28.3a6.83,6.83,0,0,1,1.19,1.38,3.86,3.86,0,0,0,.79,1,13.8,13.8,0,0,1,2.51,3c.24.39.47.78.73,1.16h.36V95h.36a5.41,5.41,0,0,0,.18.72l.36.18c0,.4,0,.4.54,1.44h.36a1,1,0,0,0,.24.77,21.1,21.1,0,0,1,1.79,3.47c.1.27.2.54.32.8a1.46,1.46,0,0,1,.6,1c.15.41.29.8.47,1.2.38.86.75,1.72,1.1,2.6.06.14.11.28.17.43a50.3,50.3,0,0,1,1.73,5.38c.08.31.16.61.25.92a27.62,27.62,0,0,1,.82,3.22l.18,1c0,.16.06.32.08.48l.27,1.38c.19,1,.37,1.89.54,2.84l.09.52a70,70,0,0,1,.76,12.86c0,.64,0,1.28,0,1.92v4.47c0,.42,0,.84,0,1.26a2.66,2.66,0,0,0-.21.89l0,.39,0,.43c0,.29,0,.59,0,.89l0,.43A6,6,0,0,1,247,148a11.36,11.36,0,0,0-.27,1.8,14.46,14.46,0,0,1-.28,1.83,5.7,5.7,0,0,0-.17,1.34c0,.33-.05.65-.09,1a2,2,0,0,0-.26.78c0,.26,0,.26-.09.51s-.13.76-.19,1.14c0,.2-.07.39-.1.59s0,.28-.09.55-.11.63-.17.93a4.62,4.62,0,0,0-.44,1.49c-.24,1.13-.48,2.26-.82,3.38a3.67,3.67,0,0,0-.39,1.4c0,.2,0,.2,0,.4h-.36q-.08.63-.18,1.26a3.88,3.88,0,0,0-.39,1.5l0,.48h-.36a17.73,17.73,0,0,1-.71,2.13c-.19.49-.38,1-.55,1.47a7.93,7.93,0,0,1-.7,1.85,10.27,10.27,0,0,0-1.22,3.17c0,.13,0,.26-.07.39h-.36a7.68,7.68,0,0,0-.47,1.4c0,.2,0,.2-.07.4h-.36a7.78,7.78,0,0,0-.47,1.41c0,.19,0,.19-.07.39H237a7.78,7.78,0,0,0-.47,1.41c0,.2,0,.2-.07.39h-.36l-.18.54a28.21,28.21,0,0,0-1.64,2.94c-.23.47-.46.92-.7,1.38a1.74,1.74,0,0,0-.66,1l-.06.42c-.54.18-.54.18-.77.56a5.89,5.89,0,0,1-1.05,1.82,2.16,2.16,0,0,0-.62.85,11.36,11.36,0,0,1-.8,1.45l-.72.72a1.73,1.73,0,0,1-.43.89c-.57.72-1.14,1.45-1.65,2.22a18,18,0,0,1-1.62,2.17,17.85,17.85,0,0,0-1.61,2,10.1,10.1,0,0,1-1.48,1.9,6.67,6.67,0,0,0-.6.59,7.79,7.79,0,0,1-1.46,1.83,10.49,10.49,0,0,0-2.35,2.91c-.06.1-.1.2-.15.3h-.36a4.6,4.6,0,0,1-1,1.16l-.33.32-1.06,1.06-.38.38c-1.4,1.4-2.8,2.8-4.23,4.16l-.36.34c-.38.36-.76.7-1.16,1a8.57,8.57,0,0,0-2,1.62,7.93,7.93,0,0,1-1.57,1.38,2.87,2.87,0,0,0-.7.5,7,7,0,0,1-1.31,1.17,5.63,5.63,0,0,0-.86.63,31.75,31.75,0,0,1-3,2.37l-.62.43q-1.35,1-2.73,1.86a6.81,6.81,0,0,0-.7.48v.36a5.62,5.62,0,0,0-1.61.7,6.59,6.59,0,0,1-1.17.73c-.32.18-.63.37-.93.58a19.27,19.27,0,0,1-3,1.78l-.9.36a1.58,1.58,0,0,1-.67.53l-.36.18-.39.19-.41.2-.8.4-.61.3v.36a5.22,5.22,0,0,0-2.79.9,7,7,0,0,1-1.45.64,17.34,17.34,0,0,0-2.07.8v.36a3.74,3.74,0,0,0-1.79.25c-.45.18-.88.33-1.35.47-.76.21-1.51.47-2.26.72v.36h-1.44v.18l-2.17.36v.36h-1.8a1.93,1.93,0,0,1-1.26.32l-2,.22a2.64,2.64,0,0,1-1.31.2H149.48v-.18c-1.16,0-2.3,0-3.46-.11l-.67,0c-1.41-.09-2.82-.2-4.23-.34l-.42-.05c-.44,0-.87-.1-1.31-.17-.19-.2-.19-.2-1.1-.3a23.74,23.74,0,0,1-3.15-.5l-1.77-.41a45.53,45.53,0,0,1-11.54-4.06,16,16,0,0,0-2-.89l-.45-.14v-.36a9.06,9.06,0,0,1-1.08-.54q-.09-.29-.18-.54a2.45,2.45,0,0,1-1.26-.44,2.71,2.71,0,0,0-.86-.5l-.4-.14v-.36a9.39,9.39,0,0,0-1.55-1.19,8.86,8.86,0,0,1-1.47-1.11l-1.43-1.45c-.22-.21-.43-.43-.64-.65l-1-.95-.29-.3a9.22,9.22,0,0,0-1.09-1,12.1,12.1,0,0,1-1.36-1.67,8.77,8.77,0,0,0-1-1.37c-.18-.19-.35-.38-.51-.58a3.83,3.83,0,0,0-.81-1.13,3.06,3.06,0,0,1-.78-.73l.15-.3h-.29s0,0,0,0,0-.21,0-.31c-.56-.12-.56-.12-.74-.51a8.63,8.63,0,0,0-1.72-2.85,1.44,1.44,0,0,1-.63-.9,1.93,1.93,0,0,0-1.09-1.18l-.33-.15c0-.72,0-.72-.25-1.06-.12-.12-.24-.23-.35-.35l-.39-.38-.4-.39a8.92,8.92,0,0,0-1.89-1.64l-.32-.14v-.36L94.9,208l-.36-.36H94a1.89,1.89,0,0,0-.54-.72,19.59,19.59,0,0,0-10.63-2.16c-.19.23-.19.23-.62.23s-1,.07-1.54.13c-.18.21-.18.21-.53.26a14.81,14.81,0,0,0-6.13,3v.36h-.54A7.41,7.41,0,0,0,72,210.06l-.51.61a7.35,7.35,0,0,0-1.26,1.62c-.17.3-.35.61-.54.9a5,5,0,0,0-1,1.66c-.08.23-.16.46-.25.68a1.32,1.32,0,0,0-.5.83c-.13.56-.26,1.13-.4,1.7a7.32,7.32,0,0,0-.39,2.58c0,.16,0,.31,0,.47s0,.62,0,.93,0,.47,0,.7H66.8a3.09,3.09,0,0,1,.21,1.51v3.36c0,.87,0,1.75,0,2.62,0,1.4,0,2.81,0,4.21,0,2.09,0,4.18,0,6.28v.38c0,1.78,0,3.56,0,5.35,0,.12,0,.25,0,.38v.38c0,2,0,3.95,0,5.93,0,1.41,0,2.83,0,4.24v2.68c0,.41,0,.83,0,1.24v3.2a2.47,2.47,0,0,0,.41,1.47l.36.18v.36a6,6,0,0,1,.72.36l.21.28c.41.32.41.32,1.39.32h.39a4,4,0,0,0,1.8-.23l.18-.54h.72a6.63,6.63,0,0,0,.79-1.54.92.92,0,0,0,.14-.54,4.44,4.44,0,0,0,.08-.84c0-.17,0-.32,0-.48v-1.65c0-.4,0-.8,0-1.2,0-1.1,0-2.19,0-3.29s0-2.33,0-3.5q0-3.12,0-6.24c0-1.17,0-2.33,0-3.5v-2.68c0-2.12,0-4.23,0-6.35v-3.55c0-1.13,0-2.27,0-3.4v-4.46a2.78,2.78,0,0,0,0-.57c0-.51,0-1,0-1.53,0-.14,0-.28,0-.41,0-.43.06-.85.11-1.27v1.07h.18v-1.08h-.18l.18-.18a3.42,3.42,0,0,1,.31-1.08l-.13.54.36-.18-.17-.49c.14-.26.3-.51.48-.79l.23-.34a9.63,9.63,0,0,1,3.18-3.38c.45-.24.89-.5,1.32-.77a4.49,4.49,0,0,1,1.08-.65v.11h.9v-.18H81.4a3.15,3.15,0,0,1,.58-.11l.67-.07a1.28,1.28,0,0,1,.36-.36l-.18.36h1.26l.17-.34h.06l.51,0c.59,0,1.19.05,1.79.12.19.2.19.2,1,.26a3.39,3.39,0,0,1,.81.1l.18.36h.9V213a9,9,0,0,1,3.42,2.52q.36.47.72.9l.36.19a3.33,3.33,0,0,0,.45,1l1,1.53c.28.5.28.5.54.9l.54.18v.36a4.79,4.79,0,0,0,.81,1.17l.27.27.54.9h.36c0,.36,0,.36.32.77l.4.49a8.79,8.79,0,0,0,1.18,1.53l.45.45a14.94,14.94,0,0,0,1.15,1.59l.45.49c.6.65,1.19,1.28,1.82,1.88a23.32,23.32,0,0,1,2.52,2.45,12.29,12.29,0,0,0,2,1.93,3.56,3.56,0,0,1,.89.64,10.22,10.22,0,0,0,1.55,1.23l.4.24a4.31,4.31,0,0,0,1.28,1l.52.26.55.54q.45.17.9.36c.38.55.43.7,1.11.86l.51,0V240a3.45,3.45,0,0,1,.72.18l.18.36h.9v.36l.9.18v.36h.9v.36l.9.18v.36h.54v.36a4.47,4.47,0,0,1,2.16.54c.36.36.36.36,1,.45l.64.09a5.88,5.88,0,0,0,1.44.72l1.27.19a2.4,2.4,0,0,0,1.36.64l.62.08a1.92,1.92,0,0,0,1.22.45c.26,0,.51.05.76.09a4.75,4.75,0,0,0,1.74.36h.6a1.71,1.71,0,0,0,1.06.43l.59,0,.6,0,.45,0v.18c1.27.09,2.53.18,3.78.36v.18l4,.18V248a49,49,0,0,0,5.42.2h13.13v-.54l1.12.08.45,0,.46,0,.43,0h-2.28v.36l2.88-.18v-.18h0a1.73,1.73,0,0,0,.58-.18l.34-.12v.12h1.44v-.18h-1.23a3.47,3.47,0,0,1,1-.09c.62,0,.62,0,1.15-.09l.18-.18.54.18a4.83,4.83,0,0,0,.72-.36h-.26a1.63,1.63,0,0,0,.59-.16,2.13,2.13,0,0,1,.39-.19v.18h1.08v-.18h-1.08a1.63,1.63,0,0,1,.35-.06l1.09-.12c.33-.43.33-.43.89-.37h0c-.53,0-.54,0-.71.19l.32.11c.4.07.4.07.94-.29l-.52,0a3.32,3.32,0,0,0,1.38-.29c.79-.3,1.57-.55,2.38-.77a13.06,13.06,0,0,0,2.05-.71,14.13,14.13,0,0,1,1.67-.66,17.73,17.73,0,0,0,2.05-.8v-.36h.9V242a5.75,5.75,0,0,0,2.35-.69l.75-.39.36-.19c.4-.21.8-.4,1.22-.57l.36-.14v-.36l.9-.18v-.36h.9v-.36c.47,0,.47,0,1.26-.54v-.36h.9v-.36a1.75,1.75,0,0,0,1.17-.44c.27-.32.27-.32.76-.49l.41-.15v-.36c.72,0,.72,0,1.06-.33l.38-.39,1.09-.54c.06-.19.11-.36.18-.54h.72l.36-.36a11.32,11.32,0,0,0,1.43-1,5.79,5.79,0,0,1,1-.79l1.1-.74.55-.39a7.74,7.74,0,0,0,.93-.71l.18-.54c.72,0,.72,0,1-.23a18.73,18.73,0,0,1,2.7-2.34c.28-.22.55-.44.81-.67v-.36h.72a4.89,4.89,0,0,0,.72-.72l-.36-.18c.07-.06.12-.12.18-.18l.18,0v.22l.36-.18-.17-.08a1.8,1.8,0,0,0,.69-.37l.32-.33a4.24,4.24,0,0,0,.82-1.06l.15-.32c.72,0,.72,0,1.09-.29l.41-.42.47-.47.76-.77,1.35-1.37,2.19-2.22.52-.53c.87-.89,1.73-1.77,2.68-2.57a2.21,2.21,0,0,0,.8-1,5.13,5.13,0,0,1,1.51-1.8,7.5,7.5,0,0,0,1.67-1.93,1.86,1.86,0,0,1,.62-.94,7.62,7.62,0,0,0,1.51-1.65,4.81,4.81,0,0,1,1-1.16,3.07,3.07,0,0,0,.89-1.17,1.75,1.75,0,0,1,.46-.82c.1-.12.21-.23.31-.34l.34-.38a8.44,8.44,0,0,0,1.43-1.83c.06-.11.11-.22.16-.33a3.23,3.23,0,0,0,.81-1.08l.27-.54a1.64,1.64,0,0,0,.66-1l.06-.42h.36a3.2,3.2,0,0,0,.54-.72c.12-.36.23-.72.36-1.08l.54-.18v-.72h.36l.18-.54h.36a2.71,2.71,0,0,1,.18-.72,1.72,1.72,0,0,0,.67-1c0-.21,0-.21,0-.41H239a3.78,3.78,0,0,1,.18-.72,2.39,2.39,0,0,0,.76-1.12l.15-.5h.36a6,6,0,0,1,.36-1.26l.54-.18c0-.43,0-.43.34-1a4,4,0,0,0,.51-1.2c0-.18,0-.18.05-.37h.36a7.68,7.68,0,0,0,.47-1.4c0-.2,0-.2.07-.4h.36A8,8,0,0,0,244,183c0-.2,0-.2.07-.4h.36a7.78,7.78,0,0,0,.47-1.41c0-.2,0-.2.07-.39h.36c.05-.13.1-.27.16-.4s.13-.33.2-.5a20.14,20.14,0,0,0,1-2.88l.06-.36h.36v-1.26l.18.9.18-.36-.36-.54h0l.54.18a8.38,8.38,0,0,0,.46-1.77c0-.2,0-.39.08-.58.18-.18.18-.18.28-.64,0-.15.05-.29.08-.44h.36a4.54,4.54,0,0,1,.36-1.45,1.67,1.67,0,0,0,.21-.51l0,.16.36-.36-.17-.51c.1-.37.21-.74.35-1.11a1.59,1.59,0,0,0,.39-.94l.33-.5-.18-.36-.15.77a2.35,2.35,0,0,0,0-.26l0-.69h.36q.07-.63.18-1.26l.36-.36v-.36l.19-.33c.17-.39.17-.39,0-.93l-.05,0a.72.72,0,0,0,.27-.62c0-.15,0-.3,0-.45s0-.22,0-.44,0-.23,0-.34l.54-.18c-.06-.74-.12-1.45-.18-2.17h.54v-2.16h.54l-.18-2.34h.54c0-.17,0-.34,0-.51l0-.65c0-.39.06-.78.1-1.17v1.25h.18v-1.26h-.17c.18-.18.18-.18.21-.54s0-.24,0-.47l0-1.05,0-.54c0-.17,0-.34,0-.51a3.22,3.22,0,0,1,.07-.85c.36-.36.36-.36.41-.92,0-.23,0-.46,0-.69l0-1.16c0-.4,0-.8,0-1.2,0-.25,0-.5,0-.75s0-.81,0-1.21v3.94h.18v-4h-.17c.18-.18.18-.18.2-.6v-9.21C254.7,132.08,254.69,131.75,254.68,131.41Zm-121.41-78h-.18V52.34h.18Zm.9,5.58H134V57.74h.18Zm67.19,16.75h-5.77v-.18h5.77Zm11.17,1.81h-1.45v-.18h1.45ZM73.83,265.43h-.18v-2.16h0c0,.72.08,1.44.17,2.16ZM77.07,215h-.36l.36-.72h.36C77.3,214.52,77.19,214.76,77.07,215Zm6-3.24a1.1,1.1,0,0,1,.36,0l.45,0H83ZM169.89,247l.13-.12h.16A.37.37,0,0,0,169.89,247Zm26.78-11.29-.18-.36H197Zm2.71-1.8-.18-.36h.54Q199.55,233.73,199.38,233.91Zm1.44-1.08-.18-.36H201C200.93,232.59,200.88,232.71,200.82,232.83Zm5-3.61-.18-.36.25-.27c.27-.31.27-.31.65-.27Zm2.16-1.8-.18-.36.34-.36c.34-.4.34-.4.74-.36Q208.47,226.9,208,227.42Zm3.42-2.88-.18-.36h.37C211.56,224.3,211.5,224.42,211.44,224.54Zm.37-.36a3,3,0,0,1-.18-.36l.24-.27c.27-.31.27-.31.66-.27C212.28,223.59,212,223.88,211.81,224.18Zm3.06-2.7c-.07-.12-.12-.24-.18-.36l3.42-3.42.36.18Zm3.78-3.78q-.09-.19-.18-.36l3.06-3.07.18.36Zm3.06-3.43q.34-.45.72-.9h.36A1.87,1.87,0,0,1,221.71,214.27Zm2.16-2.16-.18-.36,1.44-1.44.37.18Zm3.07-3.6a3,3,0,0,1-.18-.36q.54-.56,1.08-1.08l.36.18Zm2.34-2.7-.18-.36.54-.36.18.36Zm.72-.72-.18-.36h.36Zm1.26-1.8-.18-.36h.54Zm1.44-1.81-.18-.36h.36Q232.79,201.32,232.7,201.48Zm19.45-85.92H252v-1.62h.18Z"/><path class="cls-1" d="M70,191.63v.13h1.08v-.18h-.88a4,4,0,0,1,.73-.09,6.87,6.87,0,0,0,.87-.09,1.28,1.28,0,0,1,.36-.36l-.18.36,2.17-.18V191h-2a.92.92,0,0,1,.35-.06H73l.46,0,1,0,.46,0,.76,0a.6.6,0,0,1,.18-.18v.18H96.52v-.18H75.81a.66.66,0,0,1,.35,0h1.6l2,0h1.41l3.68,0,3.83,0,7.9-.06h.33v-.36h.72l.18-.54a1.91,1.91,0,0,0,.85-1.39c0-.2,0-.4.05-.6.18-.18.18-.18.28-.64,0-.15.06-.29.08-.44h.36a6.64,6.64,0,0,0,.54-.9c.18-.36.36-.72.55-1.08L101,184a6.8,6.8,0,0,1,1.68-2.3l.44-.43a10.2,10.2,0,0,1,2.27-1.93l.47-.2a4.55,4.55,0,0,1,1.73-1.07l.64-.26c.51-.29.51-.29.67-.69l0-.32c.36.18.36.18.66.12l.42-.12.6-.17.66-.19,1.26-.36.54-.36h.2c-.22,0-.3.1-.56.36l1.45-.19v-.17h.18a2.34,2.34,0,0,1,.72-.31v.13h7v-.18h-6.73a5.56,5.56,0,0,1,.85-.05h4.35l1.53,0c.21.2.21.2,1.82.28l.66,0,.65,0h-1.87v.18a9.7,9.7,0,0,0,3.06.18l.18-.36a2.42,2.42,0,0,0,1.26-.54v-.36l.29.07L128,175l.36.18-.12-.26.31.08.18-.55.9-.18v-.36a8.68,8.68,0,0,0,1.26-.36l.18-.54c.72,0,.72,0,1-.31l.39-.41a12,12,0,0,0,1.58-1.17l.51-.51.56-.57.87-.87c.89-.9,1.78-1.79,2.61-2.74.28-.33.56-.65.85-1a3.39,3.39,0,0,0,.92-1.44l0-.37h.36l.18-.54h.36a10,10,0,0,0,.46-1.26h.26l-.21-.22c.05-.2.08-.29.21-.68h.37a4,4,0,0,0,.66-1.41l.06-.4h.36a5.41,5.41,0,0,0,.47-1.67c0-.34,0-.34.07-.67h.36a2.46,2.46,0,0,0,.48-1.78l-.12-.56h.54a1.62,1.62,0,0,0,.42-1,6.88,6.88,0,0,1,.16-1.52h.32l-.15-.44c.19-.36.19-.41.24-1.19a5.06,5.06,0,0,1,.09-.89v1.08h.18v-1.08h-.18a1.8,1.8,0,0,0,.37-1.08H147l.18-2.35H147a.46.46,0,0,0-.19.38,1.27,1.27,0,0,0,0-.2.92.92,0,0,0,.4-.86v-4.26c0-.73,0-1.46,0-2.19v-3.69c0-.18,0-.18,0-.36a12.16,12.16,0,0,0-.2-2.33h-.18a9.75,9.75,0,0,1-.33-1.26h.15v-1.08h-.18v.9c-.06-.33-.11-.67-.14-1-.14-1.44-.13-3.15-.94-4.38l-.36-.18h.36a1.32,1.32,0,0,0-.36-1.08h0l-.18-.36a2.48,2.48,0,0,0-.36-1.62l-.36-.18c0-.12,0-.24-.05-.36s0-.29,0-.43c0-.59,0-.76-.48-1.16l-.35-.21h.36l-.36-.72v.43a2.33,2.33,0,0,0-.11-.81c0-.13-.1-.26-.14-.38a5.13,5.13,0,0,0-.29-.69l-.36-.18c0-.1-.07-.21-.1-.31a6.15,6.15,0,0,0-.45-1.31l-.36-.18-.09-.31a6,6,0,0,0-.45-1.31l-.36-.18-.09-.31a6,6,0,0,0-.45-1.31l-.36-.18v-.54l-.54-.18a3.53,3.53,0,0,0-.81-1.75,2.76,2.76,0,0,1-.92-1.54c0-.16,0-.16-.07-.31h-.36v-.36l-.9-.72v-.54l-.54-.18-.18-.9h-.36A2.25,2.25,0,0,0,134,104a7.45,7.45,0,0,1-.77-.71l-.46-.53a4.87,4.87,0,0,0-.34-.38c-.07-.09-.14-.16-.28-.31l-.54-.18a5.67,5.67,0,0,0-1.8-2.52c-.5-.29-.84-.41-1.11-.92l-.15-.34-.55-.18-.9-1.08-.51-.34a3.78,3.78,0,0,0-.76-.57,7.89,7.89,0,0,1-1.08-1.44,11.5,11.5,0,0,0-2.27-2.55,6.78,6.78,0,0,1-1-1l-.34-.46c-.51-.6-1-1.21-1.48-1.85-.16-.23-.33-.45-.5-.67-.38-.14-.38-.14-.53-.49A12.87,12.87,0,0,0,118,86.2a7.91,7.91,0,0,1-1.09-1.44,10.14,10.14,0,0,0-.89-1.44l-.36-.18v-.36l-.36-.18v-.54l-.25-.25a1.18,1.18,0,0,1-.49-.76l-.16-.43-.37-.18a1.58,1.58,0,0,0-.43-1,1.15,1.15,0,0,1-.48-.76c-.08-.21-.08-.21-.17-.42l-.36-.18-.06-.61c-.12-.66-.12-.66-.48-.93s-.43-.25-.46-.9c0-.21,0-.42-.08-.63a1.93,1.93,0,0,1-.66-.93,2.39,2.39,0,0,0-.6-1.59h-.36v-.9l-.36-.18c0-.22-.07-.43-.11-.64s0-.42-.07-.62H109c0-.31,0-.63,0-.94l0-.43a5,5,0,0,0-.11-.79l-.36-.18a4.46,4.46,0,0,1-.08-.78,4,4,0,0,0-.1-.84,3,3,0,0,1-.72-1.87c0-.22,0-.22,0-.43l-.09-.84-.06-.65h-.18L107,59.9h-.18a9.22,9.22,0,0,1-.19-1.58c0-1.76-.07-3.5-.17-5.26h-.18c0-.2,0-.2,0-.4A2.76,2.76,0,0,0,104.75,51l-.3-.12v-.36a4.07,4.07,0,0,0-.44-.18,3.79,3.79,0,0,0-3.34.36v.36h-.37a2.71,2.71,0,0,0-.66,1.12l-.06.32h-.36V54.2c0,.24,0,.46,0,.69v1.34a8.22,8.22,0,0,0,.1,1.64,3.37,3.37,0,0,1,.14,1A38.66,38.66,0,0,0,100.84,67c.1.32.19.64.28,1a47.44,47.44,0,0,0,2.07,6.27c.2.43.4.87.58,1.31.31.74.61,1.48,1,2.2.15.29.3.59.43.89.35.78.68,1.57,1.09,2.32l.36.18c0,.36,0,.36.31.93l.41.69q.35.63.72,1.26l.36.18c0,.1,0,.2.08.3a4.6,4.6,0,0,0,.64,1.5h.36a12.45,12.45,0,0,0,1.08,2.16h.36a1,1,0,0,0,.21.72l.29.42.58.84c.24.3.49.6.72.91l.54,1.08.54.18c.08.15.15.31.22.46s.1.29.14.44h.37v.36l.32.32.4.4q.26.45.54.9h.36c0,.36,0,.36.32.71l.14.14.12.16.3.3.34.33c.12.12.23.24.35.35A12,12,0,0,0,119,98.35a5.34,5.34,0,0,1,1.11,1.42c.08.16.15.32.22.48h.36v.36l.54.18v.36h.36v.36l.54.18c.18.54.18.54.55.76l.35.14V103a2.49,2.49,0,0,0,.89.72,2.51,2.51,0,0,1,1.29,1.11,3.54,3.54,0,0,1,.16.34l.36.18.36.36.36.18c0,.46,0,.46.54,1.08l.54.18a1.82,1.82,0,0,0,.44.86c.11.12.21.24.32.35l.34.39c.49.53,1,1.07,1.43,1.64q.25.45.54.9h.36c0,.4,0,.4.54,1.44h.36c0,.44,0,.44.54,1.08l.36.18v.54h.36a2.15,2.15,0,0,0,.54,1.44l.36.18c0,.19.07.37.11.55s.05.36.07.53h.36c0,.36,0,.36.31,1s.69,1.5,1,2.27c0,.12.09.23.13.35h.36a1.79,1.79,0,0,0,.14.92,22.26,22.26,0,0,1,.87,2.36c.14.47.28.94.43,1.4s.3.93.44,1.4l.28.94a22.83,22.83,0,0,1,.84,3.45l.18,1.15.09.55.15,1a9.82,9.82,0,0,1,.22,1.32l0,.44c0,.16,0,.33,0,.49l0,.52c.1,2.17.11,4.33,0,6.5,0,.3,0,.3,0,.6s0,.39,0,.58,0,.37,0,.55,0,.59-.06.88a2.28,2.28,0,0,0-.28.89c0,.22-.07.43-.1.63-.06.4-.12.79-.16,1.19l.18.54h-.36q-.08.63-.18,1.26c-.18.18-.18.18-.26.51a12.63,12.63,0,0,1-.89,3.06,6.89,6.89,0,0,0-.45,1,10.93,10.93,0,0,1-1,2.1,13.06,13.06,0,0,0-.93,1.68c-.14.29-.28.57-.43.84l-.54.54a14.17,14.17,0,0,1-2.47,3.08l-.89.88-.58.58-.28.28a8.1,8.1,0,0,1-1.49,1.25l-.41.24c-.25.21-.49.43-.74.63a5.45,5.45,0,0,1-4.38,1.45,44.41,44.41,0,0,0-4.6-.31h-.52a22.27,22.27,0,0,0-2.58.11l-1.06.15-.36,0-.7.09c-.43,0-.86.11-1.28.18-.17.21-.17.21-.49.22a9.85,9.85,0,0,0-2.93.68V170a2.85,2.85,0,0,0-1.42.16,4.65,4.65,0,0,1-.81.38l-.46.18-.91.36q-.47.17-.9.36c-.16.39-.16.39-.56.56a8,8,0,0,0-2,1.16l-.49.44a12.19,12.19,0,0,0-1,.74l0,0-.39.4c-.22.19-.44.4-.66.62l-.38.38-1,1c-.11.11-.16.15-.33.33a6.86,6.86,0,0,0-.7.75A14.94,14.94,0,0,0,95,180l-.27.45a6.45,6.45,0,0,0-1.38,2.41l-.06.29h-.36v.36H78.54c-.49,0-1,0-1.47,0-.2.23-.2.23-.66.23l-.64,0-1,.07-1.09.07-.68,0-1.12.09c-.19.23-.19.23-.66.23s-1.12.07-1.68.13a3.38,3.38,0,0,1-1.63.52,19.45,19.45,0,0,0-3.63,1.17l-.5.24-.9.41v.36a3.2,3.2,0,0,0-1.8.54V188c-.41,0-.41,0-1.44.54v.37c-.54,0-.54,0-1.05.4-.19.17-.38.34-.58.5a12.16,12.16,0,0,0-2.26,1.86l-.43.43A32.39,32.39,0,0,0,51.79,196c-.15.22-.31.43-.48.64-.4.2-.4.2-.77,1.11l-.13.33c-.07.18-.14.36-.22.53s-.09.25-.14.37h-.36a7.78,7.78,0,0,0-.47,1.41c0,.13,0,.26-.07.39h-.36a8.68,8.68,0,0,0-.48,1.41q0,.21-.06.39h-.36L47.53,204a3.79,3.79,0,0,1-.18.72l-.36.18a5.44,5.44,0,0,0-.58,2.44c0,.21,0,.42,0,.62h-.36l-.18,1.08a7.88,7.88,0,0,0-.47,2c0,.28,0,.57-.07.85a1.56,1.56,0,0,0-.23.71l0,.44c0,.17,0,.33-.05.49s0,.35,0,.52c-.27,2.91-.42,5.79-.41,8.71v8.49c0,2.21,0,4.41,0,6.62v17.22c0,1.06,0,2.13,0,3.19V262a9.07,9.07,0,0,0,.75,4.15h.36a2.91,2.91,0,0,0,.36.9,2,2,0,0,0,1.44.59v.13h1.62v-.16l.36,0,.18-.36.72-.18a2,2,0,0,0,.85-1.21c0-.14,0-.28.05-.41h.36L51.73,247c0-.74,0-1.48,0-2.22v-.45q0-3.58,0-7.18c0-2.46,0-4.92,0-7.38,0-1.52,0-3,0-4.56,0-1,0-2.1,0-3.15v-1.45c0-.69,0-1.37,0-2v-1.19c0-.18,0-.35,0-.52s0-.53,0-.79v48.81H52V216.07h-.18c.2-.2.2-.2.26-1.5,0-.47,0-.91.1-1.38l.06-.09a5.08,5.08,0,0,0-.06,1.53h.18a3.35,3.35,0,0,0,0-1.75,2.55,2.55,0,0,0,.26-1.23,5.84,5.84,0,0,1,.09-1v.9h.18v-.9h-.18c.36-.36.36-.36.39-.7v-.06l.33-.5a3.44,3.44,0,0,0-.18-.72h0c.11-.42.24-.84.36-1.26v.9h.18v-.9h-.18a6.22,6.22,0,0,0,.73-1.54,3.64,3.64,0,0,1,.34-1c.11-.2.15-.28.26-.5l.29.15-.18-.36c.09-.17.2-.4.36-.72a4.83,4.83,0,0,1,.36-.72,1.36,1.36,0,0,1,.12-.12l.24.12-.12-.25a4.55,4.55,0,0,0,.53-.62l.22-.36c.16-.25.31-.5.45-.76a6.24,6.24,0,0,1,.94-1.54l.45-.45.49-.5.78-.77.25-.26.5-.5a5.9,5.9,0,0,1,1.49-1.14A2.06,2.06,0,0,0,63,195a2,2,0,0,1,.94-.68l.5-.22v-.36a8.11,8.11,0,0,0,1.8-.54v-.36a14,14,0,0,0,3.06-.9A3.33,3.33,0,0,1,70,191.63ZM145.7,128h.18v1.62h-.18ZM108.05,67.65h-.18V66.21h.18Zm32.06,96.55-.18.36-.18-.36Zm-2.18,2.16c.34-.4.34-.4.74-.36l-.9,1.08-.18-.36Zm-.7.72.36.18-.54.18Zm-1.08,1.44-.18.36-.18-.36Zm-.9.54.36.18-2,2-.18-.36Zm-29.18,9.55-.36.36-.18-.36Zm-2,.9.36.18-2.88,2.88-.18-.36Zm-27,4.14H92.74v.18H77.07Zm-26.3,82.86-.18-.54H51Zm6.3-65.75-.18-.54h.36Zm.9-1.62-.18-.36,1.09-1.08.36.18Zm1.45-1.44-.18-.36,1.62-1.62.36.18Z"/><path class="cls-1" d="M112.35,56.14a13.9,13.9,0,0,0,.37,2.22,18.6,18.6,0,0,1,.45,1.93,35.41,35.41,0,0,0,1.55,5.82l.32.83c0,.12.08.23.13.35l.27.72a26.75,26.75,0,0,0,1.62,4c.39.15.39.15.5.55s.24.84.4,1.25l.36.18a1.42,1.42,0,0,0,.23.86l.31.58a7.83,7.83,0,0,0,.81,1.44l.27.37.54,1.08a2.91,2.91,0,0,1,1.08,1.44,10.44,10.44,0,0,0,1.8,2.52c.38.15.38.15.53.49a5.27,5.27,0,0,0,1.27,1.85l.36.18c0,.36,0,.36.31.69s.89.84,1.31,1.29v.36a4.34,4.34,0,0,1,1.62,1.26l.37.55a2.71,2.71,0,0,0,.63.76l.2.18a5.16,5.16,0,0,1,.42.31c.1.08.19.18.37.36s.47.49.72.73h0l.29.26c.37.35.76.68,1.15,1a5.68,5.68,0,0,1,1.15.78,5.67,5.67,0,0,0,1.15,1,5.47,5.47,0,0,1,1.32.89,2.69,2.69,0,0,0,.8.63l.44.26a2.71,2.71,0,0,0,1,.73c.29.11.58.21.87.33s.35.18.45.58c0,.12,0,.23,0,.34.38,0,.38,0,.7.25a4.06,4.06,0,0,0,1.51.76l.31.07v.36l.3.1.39.14a2.47,2.47,0,0,1,1.05.58,1.56,1.56,0,0,0,.62.45l.35.17c.36.36.36.36.7.45a4,4,0,0,1,1.1.45,3.22,3.22,0,0,0,1.77.84l.39.06v.36a5.21,5.21,0,0,1,1.44.54,3.07,3.07,0,0,0,2,.84l.66.06v.37a6.2,6.2,0,0,0,1.59.47l.57.07v.36a2.53,2.53,0,0,1,.72.18,1.6,1.6,0,0,0,1.06.66c.55.06,1.1.13,1.65.24l.36.36h.39l.44-.06.45-.06.34-.05v.54l.52.1.69.15c.44.08.88.18,1.31.29a3.49,3.49,0,0,0,1.22.43c.49,0,1,.06,1.48.11a3,3,0,0,0,2.11.73h.59c1.08.54,1.14.57,3.38.53h-.13v.18l2.16.18c-.33-.16-.5-.25-.64-.3a1.92,1.92,0,0,1,.37.11,2.54,2.54,0,0,0,.93.26l.47,0,.49,0,.36,0v.18c1.55.1,3.1.16,4.66.18h-.16v.18l2.52.18v-.36l.18.36.36.06c.43,0,.84,0,1.27.12.29.3.35.35.73.37l.35.35.36-.18-.67-.17h.24l.61,0v.36a3.45,3.45,0,0,1,.72.18l.18.36h.9V113a5.43,5.43,0,0,1,1.91,1.09,3.91,3.91,0,0,0,1.14.78l.37.11v.36h.36v.36l.3.24a3.69,3.69,0,0,1,1.43,1.37,2.72,2.72,0,0,0,.48.84,10.69,10.69,0,0,1,2.12,3.24c.06.15.12.29.17.44a13.21,13.21,0,0,1,1.65,5.52v.53c0,.31,0,.31,0,.61v.66c0,.74,0,1.48,0,2.22s0,1.32,0,2c0,1.25,0,2.5,0,3.75l0,4.29c0,3.09,0,6.17.06,9.26h-.36l.36.18a1.88,1.88,0,0,0-.45,1.13l-.09.67a5.76,5.76,0,0,0-.38,1.69c0,.16,0,.31,0,.47h-.36a10.54,10.54,0,0,1-1.78,4l-.2.3a12.3,12.3,0,0,1-1.44,2,3.56,3.56,0,0,0-.92,1.19l-.16.43h-.36a3.88,3.88,0,0,1-.67.88l-.38.37-.42.43-.44.43a26.24,26.24,0,0,1-3.13,2.93,1.8,1.8,0,0,1-1.08,0v-.36q-.37-.08-.72-.18a10.61,10.61,0,0,0-6.5-.82,12.76,12.76,0,0,1-1.37.27,6,6,0,0,0-1,.19l-.18.36a1.52,1.52,0,0,0-1,.21l-.51.29-.5.27-.53.31a10.4,10.4,0,0,0-1.22.74l0,0v.05l-.18.13h0l-.05,0c-.2.16-.4.33-.6.52l-.28.29-1,.95-.69.69-1.46,1.45L166.78,175l-1.47,1.45-.71.71c-.54.53-1.08,1.06-1.61,1.61a4.52,4.52,0,0,0-1.24,3.45,3.66,3.66,0,0,0,1.13,2,8.12,8.12,0,0,1,1.06.88l.69.69a4.52,4.52,0,0,0,.43.48l.27.27.9.9.64.64c.45.45.89.9,1.34,1.34l1.75,1.75,1.35,1.36.66.65.93.93.28.28.42.42c.19.21.38.41.56.63a5.6,5.6,0,0,0,.54.6l.54.18c0,.36,0,.36.27.67l.45.41c.19.23.39.46.59.68a2.65,2.65,0,0,0,1.87.7,4.07,4.07,0,0,0,3.37-1.39c.09-.1.19-.19.29-.29l1-1,.7-.69,1.46-1.46,1.9-1.9c.5-.49,1-1,1.49-1.48l.71-.7,1-1,.31-.32a3.56,3.56,0,0,0,1.13-1.58l0-.39h.36l.18-.9h.36v-.9h.36a3,3,0,0,0,.56-1.44h.16L194,182h-.18l-.18.18c.36-.36.36-.36.4-.78v-1.74c0-1.17.38-3.53-.49-4.42-.34-.28-.34-.28-.37-.92,0-.2-.05-.41-.08-.61l-.36-.18a2.12,2.12,0,0,1,.56-1.36l.49-.49c.28-.27.56-.54.83-.82s.39-.37.57-.55c.89-.88,1.77-1.74,2.72-2.55a2.17,2.17,0,0,0,.79-1,1.06,1.06,0,0,1,.45-.75,3.7,3.7,0,0,0,1.2-1.57c.05-.16.09-.32.14-.47l.54-.18.18-.43.18-.47a2.42,2.42,0,0,0,.75-1.12l.15-.5h.36v-.91H203l.18-.9h.36c.16-.66.33-1.32.54-2,.3-.3.35-.35.37-.73l.35-.35-.18-.36-.17.67c0-.07,0-.15,0-.24l0-.61h.36v-1.8l.54-.18v-.36h.18l.18-2h-.36l.36-.18c0-3.19,0-6.38,0-9.57v-4.65c0-1.36,0-2.73,0-4.09v-6.36a7.82,7.82,0,0,0-.2-2A3,3,0,0,1,205,124h.12V123H205v.92a1.47,1.47,0,0,1-.07-.33,6.92,6.92,0,0,0-1-3.83l-.36-.18-.09-.32a6.35,6.35,0,0,0-.45-1.31l-.36-.18a1.22,1.22,0,0,0-.18-.87l-.72-1.11a5.26,5.26,0,0,0-.89-1.25l-.37-.37a10.9,10.9,0,0,0-1-1.31,4.56,4.56,0,0,0-.71-.8l-.33-.32c-.22-.23-.43-.45-.65-.65l0,0a4.75,4.75,0,0,0-1.53-1.36l-.47-.21-.18-.54-.55-.22-.53-.14v-.36q-.45-.17-.9-.36a7.2,7.2,0,0,0-1.69-.95l-.47-.13v-.36a12.79,12.79,0,0,0-1.6-.48l-.38-.06v-.36c-.55-.15-1.08-.3-1.61-.5a13.7,13.7,0,0,0-1.88-.6l-.83-.17a24.9,24.9,0,0,0-3.21-.5l-.5,0-2.86-.22-.62,0-1.21-.1-.58,0-.54,0a12,12,0,0,1-1.36-.17c-.35-.07-.71-.14-1.06-.19l-1-.17-1.13-.18c-1.38-.21-2.75-.41-4.11-.73l-.35-.09c-2-.47-4-1-5.92-1.61l-.56-.19a38.25,38.25,0,0,1-4.18-1.59,6.78,6.78,0,0,0-1.53-.54l-.42,0v-.36l-1.26-.54a9.63,9.63,0,0,0-1.78-.76l-.56-.14v-.36l-1.08-.18V95a4.43,4.43,0,0,0-.9-.54l-1.26-.36a3.06,3.06,0,0,0-1.87-1.31l-.47-.13v-.36h-.36l-.18-.54-.34-.14-.4-.08-.4-.09-.31,0v-.36a7.86,7.86,0,0,1-1.08-.55c-.18-.54-.18-.54-.49-.72a6.31,6.31,0,0,1-1.61-1,6.07,6.07,0,0,0-1.49-1.07l-.37-.11v-.36c-.28-.18-.42-.27-.55-.37L136,85.65l-.59-.6-.86-.87a3.7,3.7,0,0,0-.28-.28c-.26-.27-.51-.52-.78-.75-.49-.48-1-1-1.45-1.45-.31-.3-.61-.59-.9-.9a6.49,6.49,0,0,0-1.28-1.62,4.75,4.75,0,0,1-.7-.72c-.12-.3-.24-.61-.37-.9l-.54-.18v-.55l-.36-.18v-.36l-.9-.9v-.54l-.54-.18c0-.47,0-.47-.54-1.26h-.36l0-.41c0-.49,0-.49-.29-.76s-.33-.26-.48-.74c-.06-.15-.11-.29-.17-.43l-.36-.18-.09-.31a6,6,0,0,0-.45-1.31l-.36-.18c0-.17,0-.17-.07-.33,0-.37-.07-.74-.11-1.11H123c0-.11-.07-.21-.11-.31l-.14-.4a5.84,5.84,0,0,0-.29-.73L122.1,66l-.09-.61-.09-.65a1.53,1.53,0,0,1-.45-1.25,3.16,3.16,0,0,0-.45-1.46h-.36l-.18-2.52h-.18L119.94,57h-.18c0-.42,0-.83-.05-1.24l0-.52c0-.17,0-.33,0-.5l0-.48a2.83,2.83,0,0,0-.43-1.58l-.36-.18h.36l-.36-.36V51.8a2.68,2.68,0,0,0-.94-.76l-.32-.14v-.36c-2-.66-3.4-.42-4.78,1.22-.82,1.17-.82,1.17-.52,4C112.32,55.87,112.34,56,112.35,56.14Zm64.15,118.5.18.37-5.76,5.76-.19-.36Zm3.79,14.27c-.14.14-.27.28-.41.41a2.62,2.62,0,0,1-1.22.82,6,6,0,0,1-.78-.6l.06-.12c-.78-.79-1.55-1.58-2.33-2.36l-1-1-1.4-1.42-.45-.44-.43-.44-.4-.41a3.82,3.82,0,0,0-.6-.52h0l-.13-.07,0,0-.09,0h0a1.91,1.91,0,0,1-.53-.69,2,2,0,0,1,.45-1.25l.33-.34.39-.39.41-.41.87-.87,1.38-1.36.89-.9c.22-.21.22-.21.43-.43a10,10,0,0,1,2.12-1.77l.48-.21a3.21,3.21,0,0,1,2.46-.78l.49,0,1.73,0c.09.28.09.28.18.54h.9v.36h.54c.09.19.09.19.18.36l.79.63a5.09,5.09,0,0,1,1.56,3.52,6.57,6.57,0,0,1-1.4,4.69l-.36.36-.42.41,0,0-.14-.09c-.46.46-.92.92-1.39,1.37l-.56.57L182,187l-.27.27a5.7,5.7,0,0,0-1.15,1.41Zm.71,8.79-.18-.36,9.55-9.55.36.18Zm9.91-9.91v-.54h.36Zm2-15.49-.18-.36,4.5-4.5.18.36Zm4.5-4.86.18-.36.36.18Zm7.75-42.69h.18v2.52h-.18Zm-.9-3.06h.18v.9h-.18Zm-4.5,43.41-.36.36-.18-.36ZM167,108.9h2v.18h-2Z"/><path class="cls-1" d="M149.12,187.25c.19-.23.19-.23.63-.21l.59,0,.63,0,1.34,0,.64,0c.34,0,.69,0,1-.05l.18-.18a3.55,3.55,0,0,0,1.36-.81c.79-1.08.79-1.08.62-3.51h-.36v-.72a2.31,2.31,0,0,0-.72-.82c-1.54-1-1.54-1-4.67-.77l-.58,0-.63,0c-2.09.06-4.13-.18-5.82,1.19a3.54,3.54,0,0,0-1.11,2.63,4.18,4.18,0,0,0,1.47,2.77,3.64,3.64,0,0,0,1.9.72h-.1v.18H147v-.18h-.17l.43,0C147.85,187.36,148.49,187.34,149.12,187.25Z"/><path class="cls-1" d="M158.36,208.12l.61-.6c1.23-1.21,3-2.48,3.19-4.29,0-.18,0-.36-.07-.54a5.13,5.13,0,0,0-.18-1,2.57,2.57,0,0,0-.94-.75l-.32-.15v-.36h-.36V200a5.58,5.58,0,0,0-1.08-.36,3.66,3.66,0,0,0-2.53.36,11.57,11.57,0,0,0-1.05.74l0,0a4.94,4.94,0,0,0-1.44,1.44l-1.61,1.61-.73.74-.9.9a3.11,3.11,0,0,0-.7,2.12l.06.53c0,.32.06.63.1,1h.36c0,.46,0,.46.43,1a2.8,2.8,0,0,0,2,.8h-.85c.54.36.54.36,1,.4l.49,0,.86,0,.18-.35a2.49,2.49,0,0,0,1.26-.55l-.18-.72h.36l.32-.32.34-.4c.05-.06.1-.13.16-.19a1.37,1.37,0,0,0-.27.91Zm2.47-3.39h.36l-.36.54Zm-.54.9-.18.36-.18-.36Zm-.9.54.36.18L158.13,208l-.18-.36Z"/><path class="cls-1" d="M180.47,209.94v-.52c0-.26,0-.26,0-.51v-.5c0-.26,0-.53,0-.8l-.18-.18a4,4,0,0,0-.36-.9,4.51,4.51,0,0,0-3.25-1.13,2.75,2.75,0,0,0-1.56.46,5.49,5.49,0,0,0-1.8,3.9c0,.3,0,.61-.05.91a4.53,4.53,0,0,0-.27,1.14l-.27,2.1a5.38,5.38,0,0,0-.12,1.74c0,.14.07.28.11.41s.12.49.19.74h.36l.18.9.36-.18.26.44a1.79,1.79,0,0,0,1.62.59h.44c.28,0,.56,0,.85,0a2.12,2.12,0,0,0,1.65-.94l.22-.27c.81-.88.81-.88.75-3l0-.48h.54l-.18-2.7h.54C180.47,210.79,180.47,210.36,180.47,209.94Zm-2.71,8.3-.18-.54h.36Zm.9-1.08-.18-.36h.36Z"/><path class="cls-1" d="M205.86,129.25v19.64H206V129.25Z"/><path class="cls-1" d="M147.32,137v7.2h.18V137Z"/><path class="cls-1" d="M155.24,248.5h5v-.18h-5Z"/><path class="cls-1" d="M153.44,187.07H149.3v.18h4.14Z"/><path class="cls-1" d="M254.13,148c-.18.18-.18.18-.19.75v.7c0,.42,0,.83,0,1.25h.18a13.62,13.62,0,0,0,.18-2.7Z"/><path class="cls-1" d="M183,173.56h-3.6v.18H183Z"/><path class="cls-1" d="M194.33,181.31v-3.42h-.18v3.42Z"/><path class="cls-1" d="M160.65,87.1h-3.24v.18h3.24Z"/><path class="cls-1" d="M254.86,135.2v3.06H255V135.2Z"/><path class="cls-1" d="M180.28,213.37l.18-2h-.36v2Z"/><path class="cls-1" d="M155.78,87.1h-2.7v.18h2.7Z"/><path class="cls-1" d="M252.15,160.78h.18c.06-.56.12-1.09.18-1.63h-.36Z"/><path class="cls-1" d="M253.05,156.27h.18c.07-.55.12-1.08.18-1.62h-.36Z"/><path class="cls-1" d="M175.06,218.78h2.34v-.18h-2.34Z"/><path class="cls-1" d="M180.82,210.13v-2h-.18v2Z"/><path class="cls-1" d="M69.68,267.77h1.8v-.18h-1.8Z"/><path class="cls-1" d="M179.92,215.89v-1.8h-.18v1.8Z"/><path class="cls-1" d="M252.69,158.43h.18V157h-.18Z"/><path class="cls-1" d="M178.3,198.78V199h1.26v-.18Z"/><path class="cls-1" d="M160.83,107.28h-1.08l.54.36Z"/><path class="cls-1" d="M85.53,212.11h1.08v-.18H85.53Z"/><path class="cls-1" d="M145,155.37l.36-.72H145Z"/><path class="cls-1" d="M165.15,108.9h1.08v-.18h-1.08Z"/><path class="cls-1" d="M156.68,209.77l-.36-.18-.18.54Z"/><path class="cls-1" d="M251.79,162.4H252v-.9h-.18Z"/><path class="cls-1" d="M144.08,157.71l.36-.36-.18-.36Z"/><path class="cls-1" d="M205.14,155.19v-.9H205v.9Z"/><path class="cls-1" d="M184.24,111.6h.91v-.18h-.91Z"/><path class="cls-1" d="M155.42,105.66l-.72-.18.36.36Z"/><path class="cls-1" d="M153.26,104.75l-.72-.18.36.37Z"/><path class="cls-1" d="M168.21,85.12l.72-.18-.54-.18Z"/><path class="cls-1" d="M188.39,77.2h-.9v.18h.9Z"/><path class="cls-1" d="M144.26,100.25l-.54-.18v.18Z"/><path class="cls-1" d="M245.85,97v.54h.36Z"/></g></svg>