<svg xmlns="http://www.w3.org/2000/svg" viewBox="0 0 313 295"><defs><style>.cls-1{fill:#fff;}</style></defs><g id="Layer_2" data-name="Layer 2"><circle id="_6" data-name="6" class="cls-1" cx="157.87" cy="82.79" r="16.61"/><polygon id="_5" data-name="5" class="cls-1" points="133.06 136.91 130.19 134.04 106.41 110.26 103.54 107.39 92.26 118.66 101.08 127.48 91.44 137.32 103.13 149.21 113.17 139.57 121.78 148.19 133.06 136.91"/><path id="_2" data-name="2" class="cls-1" d="M156.43,107.8A25.58,25.58,0,0,1,132.65,84l-20.5,20.5,23.78,23.78Z"/><path id="_1" data-name="1" class="cls-1" d="M241.31,153.72A83.45,83.45,0,0,0,188.21,76L212,52.24l-5.94-6,16.6-16.6L211.17,18l-16.6,16.61-6.36-6.36L159.1,57.57a25.15,25.15,0,0,1,23.78,25,22.86,22.86,0,0,1-5.95,15.79A58.41,58.41,0,1,1,113,191h20.09v-24.8H58v25H83.45c3.69,8,9.22,14.56,15,20.91H74.22v33.42H241.31V212.15H217.53A84.25,84.25,0,0,0,241.31,153.72Z"/></g></svg>