<svg xmlns="http://www.w3.org/2000/svg" viewBox="0 0 313 295"><defs><style>.cls-1{fill:#fff;}</style></defs><g id="Layer_2" data-name="Layer 2"><path class="cls-1" d="M289,113.34c-.06-.15-.11-.29-.16-.43s-.21-.55-.31-.83c-.19-.49-.36-1-.53-1.47a32.58,32.58,0,0,0-5.56-10.28h-.42c0-.42,0-.42-.36-.93l-.47-.58a10.29,10.29,0,0,0-.88-1h-.42c-.22-.64-.22-.64-.66-.9l-.41-.17v-.42a3.23,3.23,0,0,0-.64-.64h-.42v-.43a8,8,0,0,0-1.05-1l-.43-.32a9.2,9.2,0,0,0-1.35-.88l-.37-.17v-.43c-.31-.25-.62-.49-.94-.72l-.41-.28c-1.53-1.08-3.08-2.11-4.7-3l-.77-.44a55.62,55.62,0,0,0-5-2.66l-1.18-.53A48.43,48.43,0,0,0,254.36,82l-1.5-.43a11.1,11.1,0,0,0-1.71-.58c-1.05-.21-2.1-.42-3.15-.7a37,37,0,0,0-7.08-1.24l-.42,0a3.25,3.25,0,0,0-.21-1.57,6.21,6.21,0,0,0-4.82-2.62l-.51-.07-2.52-.35-.63-.07-.58-.08c-.32,0-.64-.08-1-.14a2.55,2.55,0,0,0-.86-.31l-.54-.09-1.21-.22a28.75,28.75,0,0,1-3-.67c-.6-.22-1.2-.44-1.81-.63a10.59,10.59,0,0,1-2.3-.49c-.48-.19-1-.38-1.46-.56-.95-.34-1.91-.69-2.85-1.08-.53-.21-1.05-.42-1.59-.6a24.2,24.2,0,0,1-4.05-1.84c-.66-.36-1.31-.71-2-1a39.32,39.32,0,0,1-4-2.22l-1.34-.86-.65-.41a11.8,11.8,0,0,0-1.74-1l-.46-.16v-.43a2.41,2.41,0,0,1-1-.46l-.45-.3-.52-.35c-.8-.55-1.61-1.09-2.42-1.62l-.64-.43-.66-.44-.63-.41a5.12,5.12,0,0,0-1.71-.83l-.46-.06v-.43a9,9,0,0,1-1.49-.66,18.26,18.26,0,0,0-2.59-1.27,10.9,10.9,0,0,1-1.76-.84,9.19,9.19,0,0,0-2-.86c-.57-.19-1.15-.36-1.71-.58A22.54,22.54,0,0,0,179,51c-.74-.18-1.48-.36-2.21-.57a19.91,19.91,0,0,0-3.49-.75,9.82,9.82,0,0,1-1.42-.17,32.58,32.58,0,0,0-7.87-.81H161a9.42,9.42,0,0,0-2.12.14,9.51,9.51,0,0,1-1.67.26A49.86,49.86,0,0,0,146,51.44c-.49.17-1,.32-1.49.46a15.79,15.79,0,0,0-2.75.9c-.47.22-.93.44-1.42.62a29.76,29.76,0,0,0-3.7,1.75l-1.67.89c-.53.25-1,.51-1.55.81l-.38.24-3.32,2.11c-1.06.68-2.12,1.37-3.22,2l-.6.34V62a1.14,1.14,0,0,0-.83.23,63.58,63.58,0,0,1-11.39,6.43c-.56.2-1.1.42-1.63.67a23.84,23.84,0,0,1-3.56,1.43c-.66.19-1.3.38-1.94.63a8.85,8.85,0,0,1-2.4.77l-.62.06c-.21.25-.21.25-.58.32l-.48.1-1.07.22c-.95.18-1.89.36-2.82.62a29.24,29.24,0,0,1-4.25.92c-1.46.18-2.92.35-4.36.61l-.42.08a4.48,4.48,0,0,0-2.82,1.6l-.32.42a2.1,2.1,0,0,0-.61,1.45c0,.17,0,.33,0,.48a43.83,43.83,0,0,0-6.55,1l-1.86.44a38,38,0,0,0-4.44,1.26l-1,.33a43.61,43.61,0,0,0-4.18,1.4l-.47.2c-.9.36-1.78.75-2.64,1.19-.46.23-.9.44-1.38.64a20.9,20.9,0,0,0-3,1.39l-.48.29-1.58.94-.55.34q-1.94,1.18-3.8,2.49l-.5.35-.5.34-.46.32a6.12,6.12,0,0,0-.71.55v.43a1.51,1.51,0,0,0-.41,0v0l-.15.11-.31.22-.61.52-.41.34,0,0-.11.1-.36.3-.21.18a6.88,6.88,0,0,0-.57.54v.43h-.43v.42h-.43l-.21.64c-.64.21-.64.21-.89.65-.06.14-.12.28-.17.42h-.43a6.69,6.69,0,0,0-1.57,2.12l-.14.43h-.42a14.31,14.31,0,0,0-2.26,3.27l-.33.54a21.39,21.39,0,0,0-1.7,3.25,16,16,0,0,1-.62,1.48c-2.63,5-2.85,10.49-2.81,16v.48a17,17,0,0,0,.15,2.36c0,.19.07.38.11.57a39.5,39.5,0,0,0,2.36,8.59c.14.33.27.67.41,1a13.57,13.57,0,0,0,1.25,2.74,20.35,20.35,0,0,1,1.48,2.71c.13.26.13.26.25.52h.43a4,4,0,0,0,.55,1.44l.39.64a11.59,11.59,0,0,0,.76,1.11h.43c0,.43,0,.43.36,1l.47.65c.28.39.57.77.88,1.14h.42c0,.43,0,.43.33.88l.52.62c.13.15.25.3.38.44s.26.32.4.47a8.51,8.51,0,0,0,.72.79h.42v.43H50v.42l.64.22v.42h.42v.43l.64.21v.43h.43V156l.64.22v.42h.42V157a38.83,38.83,0,0,0,11.72,7.22l.64.24a12,12,0,0,0,4.27.73h.8c.71,0,1.43,0,2.15,0H75a36.46,36.46,0,0,0,8.48-.56c.4-.11.81-.2,1.21-.28a11.49,11.49,0,0,0,1.85-.51c1.08-.44,2.15-.9,3.25-1.27a25.2,25.2,0,0,0,6-3.22l.57-.38.55-.37.51-.36a5.54,5.54,0,0,0,.8-.59v-.43h.43l.21-.64h.43a6.68,6.68,0,0,0,1.57-1.78,3.62,3.62,0,0,1,.13-.35h.43c.25-.33.51-.66.74-1l.32-.48a28.33,28.33,0,0,0,2.19-3.72,15,15,0,0,0,.78-10.62c-.33-.74-.46-.85-.2-1.64a1,1,0,0,0,.84-.27l.47-.35a6.17,6.17,0,0,0,.82-.66v-.43c.43,0,.43,0,.91-.36l.58-.49.62-.49.62-.5q.57-.44,1.11-.93v-.42h.43v-.43c.42,0,.42,0,.87-.37.87-.81,1.75-1.61,2.67-2.39a7.19,7.19,0,0,0,.72-.65v-.43h.42v-.42h.43l.21-.64.64-.21.22-.43.21-.43c.64-.21.64-.21.89-.65l.17-.41h.43v-.43h.43c.38,1.44.74,2.89,1.22,4.29.21.64.43,1.28.6,1.93.1.41.2.83.31,1.24.39,1,.72,2,1,2.94.26.81.52,1.62.82,2.42q.38,1,.69,1.95a20.44,20.44,0,0,0,1,3,20.74,20.74,0,0,1,.91,2.3,37.74,37.74,0,0,0,1.49,3.82c.29.6.58,1.2.83,1.83a38,38,0,0,0,1.73,3.79c.13.26.26.52.4.78.92,1.81,1.91,3.57,2.94,5.32.15.25.29.5.44.74l.43.73.41.68a8.25,8.25,0,0,0,.68,1.06h.43a1.07,1.07,0,0,0,.21.79c2.26,3.23,4.23,6.59,5,10.51,0,.22.08.42.12.63a14.22,14.22,0,0,1,.54,3.29c0,.2,0,.38,0,.57q.15,3.58,0,7.15c0,.23,0,.44,0,.66a22.25,22.25,0,0,1-.45,4.07,27.26,27.26,0,0,0-.64,3.59,7.69,7.69,0,0,1-.31,1.63c-.21.75-.37,1.49-.52,2.26a21.5,21.5,0,0,1-.57,2.47c-1,3.43-1,3.43-.78,11.67,0,.15,0,.29,0,.43a40.42,40.42,0,0,0,.8,7.44,19.24,19.24,0,0,1,.32,2.28q0,.54.09,1.08a4.33,4.33,0,0,1,.31,1.12c0,.28,0,.28.09.56s.07.41.1.62c.27,1.6.54,3.21.91,4.8.14.58.29,1.17.41,1.76.18,1,.39,1.92.63,2.87.2.77.38,1.53.55,2.31.06.29.13.58.2.88.19.57.39,1.13.54,1.72.07.24.07.24.13.47s.17.67.26,1a9.66,9.66,0,0,0,1,2.63,4.66,4.66,0,0,0,3,2,4.74,4.74,0,0,0,3.44-.86l.36-.32a5.09,5.09,0,0,0,.63-.6c.69-1,.69-1,.43-4.3a6.82,6.82,0,0,1-.49-1.61c-.24-1.06-.47-2.11-.79-3.14a37.18,37.18,0,0,1-1.18-4.76c-.16-.79-.31-1.58-.49-2.37-.26-1.07-.5-2.13-.67-3.21-.11-.7-.23-1.39-.36-2.09-1.16-5.95-2.86-14.19-.93-20.09a15.81,15.81,0,0,0,.54-2.26,19.87,19.87,0,0,1,.54-2.28,18.67,18.67,0,0,0,.83-3.86c.08-.47.15-1,.23-1.43a50.92,50.92,0,0,0,.72-9c0-.79,0-1.59,0-2.38v-1.58c0-.38,0-.38,0-.76a25.77,25.77,0,0,0-.38-4.72c0-.18-.07-.36-.11-.54a28,28,0,0,0-1.11-4.44c-.05-.16-.11-.31-.17-.46a29.08,29.08,0,0,0-3.21-7c-.5-.71-1-1.43-1.42-2.17a10.11,10.11,0,0,0-.69-1.05h-.43a1.22,1.22,0,0,0-.35-1.1c-4.09-6.31-4.09-6.31-7-13.28l-.25-.61c-.26-.62-.51-1.24-.72-1.88a10.63,10.63,0,0,0-.52-1.35c-.11-.26-.22-.5-.32-.75-.15-.42-.29-.85-.43-1.28-.38-.86-.73-1.72-1-2.62-.2-.62-.4-1.25-.61-1.87-.53-1.58-1.07-3.17-1.56-4.76-.24-.79-.48-1.58-.73-2.37-.5-1.58-1-3.16-1.45-4.76-.12-.43-.24-.87-.37-1.3a16.33,16.33,0,0,1-.73-2.21l-.21-.88c0-.16-.07-.31-.11-.46l-.57-2.26-.12-.41c-.12-.49-.26-1-.39-1.46a7.39,7.39,0,0,1-.55-1.86l-.09-.69c-.28-.24-.28-.24-.38-.81a15.79,15.79,0,0,0-1.66-4.22l-.58-1-.58-1h-.43c0-.54,0-.54-.64-1.27h-.42c0-.43,0-.43-.25-.71l-.39-.36a5,5,0,0,0-1.67-1.34l-.46-.15v-.43a27.41,27.41,0,0,0-8.07-4l-.67-.22a13.08,13.08,0,0,0-2.36-.71l-1.26-.14a29.26,29.26,0,0,0-9-.86h-.43a20.45,20.45,0,0,1-.53-3.89c0-.4,0-.8,0-1.2,0-.19,0-.39,0-.57s0-.64,0-1a4.15,4.15,0,0,1-.31-1.68c0-.16,0-.32,0-.48l-.09-1.68A7.61,7.61,0,0,0,96.75,83l.52-.1,1.09-.24a22.39,22.39,0,0,1,2.28-.58A41.47,41.47,0,0,0,105.43,81l1.33-.4A49.61,49.61,0,0,0,111.69,79c.5-.21,1-.42,1.5-.6a41.57,41.57,0,0,0,4.14-1.73l.94-.45,3.53-1.67v-.43c.9,0,.9,0,3.23-1.42l.49-.29c1.28-.79,2.54-1.59,3.78-2.43.75-.51,1.5-1,2.29-1.46l.66-.36v-.43c.64,0,.64,0,1.08-.35a18.08,18.08,0,0,1,2.13-1.44l.55-.33c1.29-.78,2.59-1.51,3.94-2.17l.39-.19v-.42a2.2,2.2,0,0,0,1.36-.23A26,26,0,0,1,145.3,61l.53-.2a26.44,26.44,0,0,1,2.86-.92c.51-.12,1-.26,1.5-.41a21.9,21.9,0,0,1,3.27-.87l1.38-.2a39.34,39.34,0,0,1,8-.69h2.69a10.42,10.42,0,0,1,2.16.14,4.83,4.83,0,0,0,1,.21l.69.09,1.59.22a33.31,33.31,0,0,1,6.32,1.38l1.77.59a45.75,45.75,0,0,1,6.5,2.62q.32.18.63.33c1.88,1,3.66,2.09,5.44,3.23l1.59,1c.72.45,1.44.91,2.15,1.38,1.85,1.22,3.7,2.42,5.59,3.58l.56.34.54.33.51.31a4.79,4.79,0,0,0,1.47.62l.48.07v.43l1.35.64.57.26c.87.42,1.74.82,2.61,1.26a17.58,17.58,0,0,0,1.76.81,24.82,24.82,0,0,1,2.87,1.08,27.13,27.13,0,0,0,3,1.13c.36.11.71.21,1.06.33l.52.16,1,.3c.59.19,1.16.39,1.76.54l.44.1.5.1c1,.21,2,.43,3,.69a43,43,0,0,0,5.52,1l.7.08c0,.4,0,.8-.07,1.19l0,.49c0,.58-.07,1.16-.12,1.73a1.65,1.65,0,0,0-.25.83c0,.17,0,.33,0,.49,0,.37,0,.75,0,1.12a26.39,26.39,0,0,1-.55,4.6,35.26,35.26,0,0,0-7.26.29l-.62.13a37.14,37.14,0,0,0-6,1.59l-.86.33a25.27,25.27,0,0,0-7,3.62v.43a1.12,1.12,0,0,0-.41,0v0l-.14.12-.31.22-.51.46a5.33,5.33,0,0,0-1.1,1.18c0,.07-.09.13-.14.21l-.15.37h-.42a7,7,0,0,0-.64.85l.14.14-.14.28h-.43a25.4,25.4,0,0,0-3.4,8c-.21.77-.42,1.53-.67,2.29a7.12,7.12,0,0,0-.3,1,17.58,17.58,0,0,1-.46,1.87c-.32.9-.58,1.81-.81,2.74s-.49,2.09-.84,3.1c-.26.75-.5,1.49-.72,2.25l-.14.47c-.22.77-.45,1.53-.66,2.3a30.65,30.65,0,0,1-1.16,3.63,20.87,20.87,0,0,0-.87,2.6,17.86,17.86,0,0,1-.73,2.21,9.82,9.82,0,0,0-.53,1.38,23.57,23.57,0,0,1-1,2.94c-.41.9-.79,1.8-1.17,2.7-.17.43-.35.86-.53,1.29s-.15.37-.31.73c-.82,2-1.7,3.87-2.71,5.74-.35.65-.7,1.3-1,2a26,26,0,0,1-2.08,3.57,6.76,6.76,0,0,0-1.13,2c0,.13-.05.26-.08.39h-.42c-.13.23-.26.45-.38.68s-.31.54-.48.81a15.23,15.23,0,0,0-1.56,2.27c-.09.15-.17.3-.25.45a31,31,0,0,0-1.62,3.2c-.07.16-.13.32-.19.47a31.37,31.37,0,0,0-1.71,5.26l-.21.92a34,34,0,0,0-.72,8.05v2.41a48.85,48.85,0,0,0,.56,8.71c.11.57.21,1.13.3,1.7s.17,1.15.29,1.72a1.8,1.8,0,0,1,.31,1c.2,1.33.42,2.64.75,3.94a19.7,19.7,0,0,1,1.06,5.51v.46c0,2.3,0,4.59-.07,6.89l0,.62,0,.61,0,.55c0,.31,0,.62-.06.92a4.62,4.62,0,0,0-.31,1.27c0,.26-.07.52-.1.77-.07.58-.15,1.15-.22,1.73A33.21,33.21,0,0,1,177,224a20.38,20.38,0,0,0-.44,2.06c-.35,2.13-.82,4.22-1.35,6.32-.15.58-.29,1.16-.43,1.75,0,.15-.07.3-.1.44-.07.32-.15.63-.22.94a25.22,25.22,0,0,1-.68,2.55,11.54,11.54,0,0,0-.72,3.37c0,1.22,0,2.36.84,3.29l.34.28a4.81,4.81,0,0,0,1.7,1.07,6,6,0,0,0,3.64-.36,6.38,6.38,0,0,0,2.34-4c.06-.31.13-.62.2-.93a13.42,13.42,0,0,0,.75-2.56c.1-.5.2-1,.32-1.49a10.21,10.21,0,0,0,.58-1.8c.19-1.17.4-2.34.69-3.49.42-1.52.79-3,1.07-4.59.11-.6.22-1.21.34-1.81a21.84,21.84,0,0,0,.42-2.79l.09-1.08c.95-2.83.95-2.83.94-10.3v-5a18.88,18.88,0,0,0-.57-5l-.27-1.12c-.14-.7-.31-1.39-.5-2.08a38.53,38.53,0,0,1-1.08-5.1c-.1-.66-.19-1.32-.33-2a19.23,19.23,0,0,1-.43-3.3c0-.19,0-.39,0-.58-.06-1.66-.12-3.31-.1-5,0-.29,0-.58,0-.86,0-3.07.15-6.59,1.49-9.41a6,6,0,0,0,.43-.91c.08-.18.15-.36.22-.54a9.71,9.71,0,0,0,.55-1.68c0-.15.05-.31.08-.46h.43a2.35,2.35,0,0,1,.42-1c.09-.13.18-.25.26-.38l.58-.84a13.69,13.69,0,0,0,1.36-2.26L190,163h.42c1.72-2.24,1.72-2.24,4.7-8.31.21-.43.42-.87.64-1.3.83-1.62,1.63-3.25,2.32-4.94l.45-1.15.22-.54c.2-.5.4-1,.62-1.49a25,25,0,0,0,1.08-2.76l.42-1.25a22.71,22.71,0,0,0,.83-2.12c.27-.91.53-1.81.87-2.69a30.38,30.38,0,0,0,1.29-3.84c.25-.91.5-1.82.79-2.72,0-.14.1-.29.14-.43l.34-1c.43-1.26.81-2.52,1.16-3.81l.12-.45h.42v.43h.43c.21.64.21.64.64.85l.42.21c.22.64.22.64.66.9l.41.17v.43l.64.21v.42h.43v.43l.45.38c.64.49,1.21,1,1.8,1.56a8,8,0,0,0,1.65,1.32l.36.15v.43h.42v.42l.39.35.52.4a9.32,9.32,0,0,0,1.5,1l.36.17v.43l1.07.42v.43a6.15,6.15,0,0,0,1.07.85l1.06.43c.28.61.28.61,0,1.07l-.25.55a14.6,14.6,0,0,0,.33,9.61l.3.7a18.65,18.65,0,0,0,2,3.49l.32.48c.37.54.74,1.06,1.14,1.57h.42v.43a6.56,6.56,0,0,0,1.79,1.57l.34.13V157l.64.21v.43c.36.29.71.57,1.09.84l.47.33a32.23,32.23,0,0,0,7.41,4c.54.18,1.07.36,1.59.57a15.71,15.71,0,0,0,2.47.86l1,.2c2.91.75,2.91.75,9.2.7h6l1.19,0a9.67,9.67,0,0,1,1.86-.62,13,13,0,0,0,2.18-.74c.34-.19.69-.37,1-.54l.86-.43.44-.22a30,30,0,0,0,4.39-2.55l.4-.3a22.13,22.13,0,0,0,3.32-2.7v-.43h.42v-.42H274l.21-.64h.43v-.43H275l.21-.64h.43V154h.42l.21-.64h.43l.36-.43c.4-.53.82-1,1.26-1.5a6.28,6.28,0,0,0,1-1.32c.06-.13.12-.25.17-.38h.43a9.06,9.06,0,0,0,1.57-2.34l.13-.43h.43l.36-.48.4-.63a6.89,6.89,0,0,0,.88-1.73l.06-.35h.43q.31-.65.66-1.29a34.42,34.42,0,0,0,2.4-4.92,15.26,15.26,0,0,1,.55-1.47,23.71,23.71,0,0,0,1.6-4.82l.12-.5A33.93,33.93,0,0,0,289,113.34ZM64,139.94c-.06.16-.11.31-.17.46h-.43A7.12,7.12,0,0,1,63,142c-.11.28-.11.28-.23.56L62.35,144a4,4,0,0,0-.51,1.34c0,.48-.07.95-.13,1.43a1.6,1.6,0,0,0-.24.9c0,.2,0,.39,0,.58,0,.43,0,.86,0,1.29v1.29a2.66,2.66,0,0,1-.23,1.48l-.64-.21-.21-.64H60c-.32-.31-.63-.61-.94-.93s-.33-.35-2.47-2.48a6.88,6.88,0,0,1-1.34-1.56l-.15-.36h-.42l-.31-.34-.33-.46a10.65,10.65,0,0,1-.9-1.39c-.06-.12-.11-.24-.17-.37h-.42c-.26-.32-.52-.65-.76-1l-.28-.41A27.92,27.92,0,0,1,50,139.85l-.41-.73a36,36,0,0,1-3.19-6.51c-2.71-8.08-1.81-16,1.91-23.54h.43a2.46,2.46,0,0,1,.75-1.72l.32-.41c.56-.78,1.15-1.54,1.74-2.3.17-.22.34-.42.51-.63a10.2,10.2,0,0,1,1.46-1.55c.61-.47,1.17-1,1.73-1.51a8.76,8.76,0,0,1,1.66-1.32l.35-.15v-.42a6.2,6.2,0,0,1,1-.44l.51-.2V98l.46-.34.61-.38c.66-.41,1.33-.81,2-1.2l.76-.42A27.38,27.38,0,0,1,66,93.78l.65-.26a11.46,11.46,0,0,1,2-1q1-.37,2-.78c1.31-.53,2.61-1,4-1.44l1.25-.38a17.45,17.45,0,0,1,2.54-.81l.57-.13c2.44-.59,5.22-1.36,7.76-1.19.26.21.26.21.24.64v3.06c0,.33,0,.66,0,1a2.38,2.38,0,0,1-1.33.44l-.46.08-1.84.33a38.21,38.21,0,0,0-4.06.89l-.63.18a32.53,32.53,0,0,0-4.07,1.28c-.55.23-1.09.44-1.66.63a33.38,33.38,0,0,0-6,2.62,11,11,0,0,1-2,.95l-.33.06v.42a6,6,0,0,1-1.33.56l-.38.08v.43a10.29,10.29,0,0,0-1.49.64v.43a7.72,7.72,0,0,1-1,.43l-.51.2v.43a6.65,6.65,0,0,1-1,.72l0-.08-.35.29-.28.14v.1c-.22.18-.43.35-.64.54v.42H57a3.87,3.87,0,0,0-.64.64v.43H56a8.1,8.1,0,0,0-.63.85l.1.11c-.11.16-.22.32-.35.48a21,21,0,0,0-3.82,6.67l-.2.62A22.55,22.55,0,0,0,52,131.14a11.87,11.87,0,0,1,.73,2c0,.15.05.3.07.45h.42c.18.34.35.68.52,1,.08.14.15.28.22.42a12.64,12.64,0,0,1,.91,2.06q0,.18.06.33h.43a3.24,3.24,0,0,0,1.23,1.26,6,6,0,0,0,4.25.15,32,32,0,0,1,4.11-.77C64.59,138.68,64.28,139.3,64,139.94Zm30.73,9h-.43v.43a2.78,2.78,0,0,1-.64.64h-.42v.42a7.91,7.91,0,0,1-1.75,1.41l-.42.29a27.88,27.88,0,0,1-5.32,2.74l-.61.25a17.72,17.72,0,0,1-7.08,1.37H75.38a6.83,6.83,0,0,1-1.52-.09,2.7,2.7,0,0,1-1.58-1.11c0-.13-.09-.25-.13-.38h-.43c-.2-.4-.41-.8-.6-1.2-.09-.17-.17-.34-.25-.51a7.77,7.77,0,0,1-.93-2.85,12.56,12.56,0,0,1,2.85-8.23h.43v-.42a3.43,3.43,0,0,1,1.1-.9l.39-.17v-.43a1.9,1.9,0,0,1,1.21-.56l.49-.07v-.43a22.65,22.65,0,0,1,13.39-2.43l.46.09a11.84,11.84,0,0,1,4.24,1.35,6.18,6.18,0,0,1,2.78,3.93A10,10,0,0,1,94.74,148.92ZM95.18,102l.89,0c1.12,0,2.25.06,3.38.12l.46,0c.48,0,1,.06,1.44.1a5.38,5.38,0,0,0,1.12.31l.55.11,1.23.22.63.12.6.11c.33.06.66.12,1,.2s.21.21.72.38c.69.21,1.37.44,2,.68a13.25,13.25,0,0,1,7,6.51l.22.53a7.28,7.28,0,0,1,.64,1.91,4.71,4.71,0,0,1-1.23,2.29l0,.06-.22-.22a6.85,6.85,0,0,1-1.26,1.58,8.54,8.54,0,0,0-1.36,1.7l-.15.35h-.42v.42H112l-.21.64h-.43v.43h-.42a4.06,4.06,0,0,1-.5.88c-.76.61-1.47,1.25-2.18,1.92a9.65,9.65,0,0,1-1.89,1.54l-.34.13v.43a7,7,0,0,1-1.33.89l-.37.18V127l-.34.31-.46.33a9.64,9.64,0,0,1-1.39.89l-.37.18v.42a14.36,14.36,0,0,1-1.78,1.12l-.35.16v.43a2.3,2.3,0,0,1-1.72-.37,11,11,0,0,0-2.64-1.11l-.75-.23a20.65,20.65,0,0,0-6.43-.94H85a10.68,10.68,0,0,0-2.7.28,5.23,5.23,0,0,1-1.31.29,10.46,10.46,0,0,0-3.38.78c-1.2.5-2.52,1.16-3.82.66-3.28-1.36-7.08-1.07-10.5-.54l-.58.1-.54.09a2.45,2.45,0,0,1-1.53-.1c-.06-.15-.13-.29-.2-.44s-.15-.42-.22-.62a10.16,10.16,0,0,1-1-2.39A15.26,15.26,0,0,1,60.43,115h.43a2.37,2.37,0,0,1,.64-1.49h.42c0-.47,0-.47.39-.88l.52-.51a6.31,6.31,0,0,1,1.5-1.23l.36-.15v-.43a14.47,14.47,0,0,1,1.79-1.12l.34-.16v-.42h.64v-.43c1.62-.91,3.27-1.75,4.93-2.57l.83-.41a16.37,16.37,0,0,1,2.41-1.1c.86-.25,1.71-.48,2.54-.78a25.48,25.48,0,0,1,5.21-1.44c.59-.1,1.18-.19,1.77-.31a11.33,11.33,0,0,1,2.24-.49h.74a6.86,6.86,0,0,1,1.5.07,8.26,8.26,0,0,0,3.78.76Q94.3,102,95.18,102Zm159.39,52.91h-.43a2.31,2.31,0,0,1-.42.85,4.61,4.61,0,0,1-2,.73H249.2a20.87,20.87,0,0,1-7.23-1l-.4-.14a21.8,21.8,0,0,1-8.53-4.91V150h-.42a2.78,2.78,0,0,1-.64-.64v-.43h-.43a13.8,13.8,0,0,1-1.61-2.56,7.08,7.08,0,0,1-.49-5.79,7.22,7.22,0,0,1,3.17-2.77l.42-.17c5.29-2.37,11.84-.88,16.84,1.49v.43a1.08,1.08,0,0,1,1.15.34l.57.45a4.76,4.76,0,0,1,1.33,1.39l.15.37h.42a14.17,14.17,0,0,1,2.68,5.41A10,10,0,0,1,254.57,154.89ZM259,129.28h-.55a13.75,13.75,0,0,0-4,.46c-1.14.34-2.52.89-3.68.47a16.76,16.76,0,0,0-1.8-.64l-.45-.13a27.38,27.38,0,0,0-8.33-1.28h-1.52a23.37,23.37,0,0,0-7.29,1l-.7.26a12,12,0,0,0-1.38.55,3.3,3.3,0,0,1-2.56.85v-.43c-.45,0-.45,0-.84-.26l-.46-.35a4.93,4.93,0,0,1-.83-.67v-.42a2.2,2.2,0,0,1-1.12-.55l-.52-.4A7.45,7.45,0,0,1,222,127v-.42a2.71,2.71,0,0,1-1.7-1.07v-.43h-.43a19.38,19.38,0,0,1-2.33-2.11c-.59-.6-1.19-1.15-1.82-1.7a4.57,4.57,0,0,1-.75-.66v-.43h-.43a2.56,2.56,0,0,1-.63-.64v-.42h-.43l-.37-.44c-.26-.33-.51-.66-.78-1l-.32-.36-.66-.77c-.8-.9-2.11-2-2.15-3.27.05-.16.09-.31.14-.46s.09-.33.14-.49c.74-2.17,2-4.5,4.05-5.64l.38-.17v-.42l.85-.43a20.34,20.34,0,0,1,6-2.38l.82-.18c3.67-1.24,3.67-1.24,7.81-1.08l1.76,0,1.34,0a8.35,8.35,0,0,0,3.58-.45,2,2,0,0,1,1.38-.39h.75a7.82,7.82,0,0,1,2.21.26,18.07,18.07,0,0,0,2.18.49c.74.12,1.48.24,2.22.38.21.22.21.22.59.31a14.67,14.67,0,0,1,2.34.62c.76.31,1.53.54,2.31.78a11.87,11.87,0,0,1,2,.73l1.4.68a35.67,35.67,0,0,1,4.12,2.13c.44.28.88.54,1.34.8l.61.35v.42c.45,0,.45,0,.84.27l.46.34a5.9,5.9,0,0,1,.83.67v.43c.47,0,.47,0,.87.39l.52.51a7.08,7.08,0,0,1,1.23,1.5l.15.37h.43a6.49,6.49,0,0,1,.44,1l.2.51h.42c.28.49.54,1,.79,1.5a14.28,14.28,0,0,1,.25,10.12l-.18.53c-.11.31-.11.31-.21.62s-.15.43-.22.64a5.93,5.93,0,0,1-.43,1.08c-.59.48-.59.48-1.2.43l-.62-.07c-.39,0-.78-.09-1.16-.15C262,129.3,262,129.3,259,129.28Zm21.8.65-.18.67a31.13,31.13,0,0,1-3.89,8.81l-.38.56-1,1.44-.35.51c-.11.17-.23.33-.34.49l-.33.47a3.57,3.57,0,0,1-.55.71h-.43c0,.48,0,.48-.36.94l-.47.58a8.83,8.83,0,0,1-.87,1h-.43c.05.44.05.44-.25.71a22.33,22.33,0,0,0-1.81,1.83,10.65,10.65,0,0,1-2.92,2.64l-.35.15v.43l-.64.42-.42-.21c0-.57,0-1.15,0-1.72V149c0-.34,0-.34,0-.67s0-.74,0-1.11a1.44,1.44,0,0,1-.28-.88c0-.49-.08-1-.15-1.47l-.21-.42a10.56,10.56,0,0,0-.76-2.39,2.63,2.63,0,0,1-.45-1.21c0-.15-.05-.3-.07-.45h-.43l-1.06-2.13a1.78,1.78,0,0,1,1.46-.11l.69.17,1.47.36,1.1.27a4.92,4.92,0,0,0,3.8-.48c.35-.36.71-.72,1.07-1.07h.42c-.06-.66-.06-.66.37-1.19A14.16,14.16,0,0,0,273,134c.08-.18.17-.36.25-.53.46-1,.92-2,1.3-3,.1-.26.19-.52.28-.78a22.45,22.45,0,0,0,.82-13.27l-.18-.58a18.88,18.88,0,0,0-1.08-2.69,12.68,12.68,0,0,1-.77-1.87c0-.11,0-.23-.07-.34h-.42a5.16,5.16,0,0,0-1-1.64,16.8,16.8,0,0,1-1.66-2.28c-.05-.12-.1-.23-.14-.34h-.43v-.43h-.42c-.08-.22-.15-.43-.22-.64h-.42v-.42h-.43l-.21-.64a2.7,2.7,0,0,1-1.71-1.07v-.43a2.46,2.46,0,0,1-1.49-.63V102a2.48,2.48,0,0,1-1.49-.64V101a2.48,2.48,0,0,1-1.71-.64v-.42a1.24,1.24,0,0,1-1.15-.28,30.55,30.55,0,0,0-6.59-3.17c-.59-.19-1.17-.37-1.75-.61a19,19,0,0,0-2.93-1l-1.21-.29a14.24,14.24,0,0,0-2.46-.75l-.53-.1c-1.23-.26-2.47-.49-3.72-.67a5.32,5.32,0,0,1-2-.61c0-.53,0-1.06,0-1.58,0-.22,0-.43,0-.65V89c0-.33,0-.66,0-1a3.75,3.75,0,0,1,2.74,0l.56.08c1.44.22,2.87.46,4.29.81l.72.19,1.48.39.52.14a20.43,20.43,0,0,1,2.61.86,11.38,11.38,0,0,0,1.42.54,25.56,25.56,0,0,1,4.41,1.69l.85.43A37,37,0,0,1,264,95.7l.6.37,1.22.75.41.26c.47.29.91.59,1.36.91v.43l.85.21v.43h.64v.42c.46,0,.46,0,.81.37a8.36,8.36,0,0,0,1,.93,11.43,11.43,0,0,1,3.32,3.43l.18.39h.42q.39.5.75,1l.32.47.39.54.41.56a4.83,4.83,0,0,1,.84,1.52l.06.36H278C281.21,115.59,282.66,122.74,280.75,129.93Z"/><path class="cls-1" d="M175.34,153.87c.08-.24.08-.24.17-.47h.42c.27-.35.53-.7.78-1.06l.29-.44a25.62,25.62,0,0,0,2.64-4.56,15.15,15.15,0,0,1,.56-1.46,11.27,11.27,0,0,0,1-2.76c0-.2.08-.4.11-.59a28.16,28.16,0,0,0,.54-10.22c-.19-1.4-.19-1.4-.29-2.81,0-.28,0-.55,0-.82a45.74,45.74,0,0,1-.07-7.85l.06-.52a32,32,0,0,1,1-5.57c0-.16.09-.33.14-.49a21.64,21.64,0,0,1,.88-2.57c.1-.23.2-.46.31-.69l.42-1c.15-.32.29-.64.43-1a13.83,13.83,0,0,1,1.19-2.37,9.88,9.88,0,0,0,.79-1.47c.08-.21.08-.21.15-.42h.43c.21-.43.21-.43.44-1,.06-.17.13-.33.2-.5h.42c.09-.11.18-.21.26-.32a19.58,19.58,0,0,1,4-4.13c.37-.28.73-.57,1.07-.88v-.43c.56,0,.56,0,1.49-.64V96.5h.64a1.84,1.84,0,0,1,.84-.66l.47-.22.46-.23.36-.17v-.43a1.9,1.9,0,0,0,1.2-.26A24.65,24.65,0,0,1,202.66,93c.5-.16,1-.32,1.47-.53a13.61,13.61,0,0,1,2.38-.81c2.33-.46,4-.91,5.4-3a5.25,5.25,0,0,0-.1-4c-1-1.76-1-1.76-4.81-2.83l-1-.29a6.87,6.87,0,0,0-1.46-.59A20.13,20.13,0,0,1,202,80.3a18.5,18.5,0,0,0-1.76-.64l-1.5-.21a9.44,9.44,0,0,0-1.82-.59c-.81-.15-1.63-.3-2.44-.48a18.11,18.11,0,0,0-2.53-.67A29.1,29.1,0,0,1,189,77.1a18.61,18.61,0,0,0-3.68-.74,13.62,13.62,0,0,1-2-.31,31.85,31.85,0,0,0-5-.77c-.43,0-.86,0-1.28-.09a9.9,9.9,0,0,0-1.44-.28l-.66,0-.73-.06-1.51-.1-.73-.06-1.33-.1a20.8,20.8,0,0,0-3.44-.25h-7.28a23.5,23.5,0,0,0-3.56.13,15.42,15.42,0,0,1-1.91.18,34,34,0,0,0-3.78.35,27.67,27.67,0,0,1-2.85.34q-.63,0-1.26.09a3.87,3.87,0,0,1-1.31.31c-2.25.28-4.48.63-6.7,1.08l-2.16.43c-.92.18-1.84.38-2.75.61l-1.35.34c-1.75.43-3.49.87-5.23,1.34l-.62.17c-1.1.29-2.19.59-3.26,1-.55.18-1.09.35-1.65.51-2.53.69-5.57,1.12-7,3.55a5.25,5.25,0,0,0-.1,4A7.14,7.14,0,0,0,119,91.6a14.86,14.86,0,0,1,4.13,1.16c.44.19.88.37,1.34.53a17.87,17.87,0,0,1,2.52,1c.44.27.88.53,1.33.78l.62.34a16.68,16.68,0,0,0,1.75.86l.46.18v.42a7.37,7.37,0,0,0,1,.44l.5.2V98l.31.26a19.39,19.39,0,0,1,4.14,4c.28.37.57.72.88,1.07h.43c0,.56,0,.56.63,1.49h.43a1.21,1.21,0,0,0,.25.87,31.34,31.34,0,0,1,2.2,4.12c.11.26.22.51.32.76a20.21,20.21,0,0,1,1.33,3.6c0,.23.11.44.16.66,1.58,5.58,1.42,11.12.86,16.84a28.07,28.07,0,0,0,.07,9.37c0,.22.09.43.14.65a22.29,22.29,0,0,0,.84,3.31c.08.17.15.35.22.52a31.46,31.46,0,0,0,3.33,6.28l.26.38c.28.43.57.83.89,1.23h.43a.88.88,0,0,0,.24.76,17.29,17.29,0,0,1,2.54,4.56c.14.36.27.72.41,1.07a11.51,11.51,0,0,1,1,3c0,.21.05.42.07.62.3.26.3.26.4,1,.12.59.25,1.17.38,1.75a45,45,0,0,1,1.27,7c0,.37.05.73.08,1.1a2.81,2.81,0,0,1,.26,1.11c.07.84.13,1.68.27,2.52a39.69,39.69,0,0,1,.44,4.87l0,.63,0,.61c0,.37,0,.75.05,1.13.12.84.21,1.64.25,2.49v.81c0,.31,0,.62,0,.92,0,.51,0,1,0,1.5l0,4.31c0,.9,0,1.8,0,2.7,0,.34,0,.68,0,1,0,2.12,0,3.9,1.07,5.79a6.28,6.28,0,0,0,3.11,1.65,5.38,5.38,0,0,0,3.42-1.07,8.51,8.51,0,0,0,1.6-5.74v-1c0-.9,0-1.79,0-2.69,0-1.1,0-2.21,0-3.31,0-.88,0-1.75,0-2.62,0-.32,0-.65,0-1v-.46a19.25,19.25,0,0,1,.13-2.52c.06-.47.12-.94.15-1.42,0-.2,0-.39,0-.58,0-.43,0-.86,0-1.3l0-.66c0-.22,0-.43,0-.64a7.69,7.69,0,0,1,.16-1.52,4.58,4.58,0,0,0,.17-.92c0-.19,0-.37.05-.54,0-.41.07-.81.11-1.22,0-.21,0-.41.05-.61s0-.4,0-.6.07-.67.11-1a7.35,7.35,0,0,0,.32-1.92c0-.42.06-.85.11-1.28a5.82,5.82,0,0,0,.3-1.13l.1-.59c.07-.44.15-.87.22-1.31a28.49,28.49,0,0,1,.87-4c.15-.42.29-.85.42-1.28a14.33,14.33,0,0,1,1.16-3.91q.18-.39.33-.78a13.27,13.27,0,0,1,1.63-3.26A7.65,7.65,0,0,0,175.34,153.87Zm-2.66-32.28v3a39.45,39.45,0,0,0,.27,5.85,29.54,29.54,0,0,1,.28,4.2V136a16.94,16.94,0,0,1-1,6.77l-.33.66c-.19.4-.39.8-.58,1.19l-.2.4-.71,1.39H170a2.46,2.46,0,0,1-.63,1.5h-.43a2.62,2.62,0,0,1-.91,1.62,13.82,13.82,0,0,0-1.65,2.63l-.42.85a23.26,23.26,0,0,0-2,4.58,5.16,5.16,0,0,1-.36,1.18l-.64.22a21.54,21.54,0,0,1-.82-2.06,25.93,25.93,0,0,0-3.57-7.11,17.47,17.47,0,0,1-1-1.58,3.31,3.31,0,0,0-.15-.33H157a7.13,7.13,0,0,1-.44-1c-.07-.17-.14-.34-.2-.51h-.43a18.72,18.72,0,0,1-2.85-10c0-.43,0-.86,0-1.3a30.28,30.28,0,0,1,.17-3.81,41.46,41.46,0,0,0,.37-6.1v-1.84c0-.41,0-.82,0-1.23v-.59a19.13,19.13,0,0,0-.14-2.73c0-.19-.07-.37-.11-.56a42.66,42.66,0,0,0-.9-4.72l-.16-.6a38.84,38.84,0,0,0-3.06-7.85q-.33-.65-.66-1.32a28.56,28.56,0,0,0-2.37-4,16.57,16.57,0,0,1-1-1.6,3.31,3.31,0,0,0-.15-.33h-.42l-.31-.35L144,97a10.65,10.65,0,0,1-.9-1.39c0-.13-.11-.25-.17-.37h-.43c-.23-.47-.23-.47-1-1.07a5.14,5.14,0,0,1-.73-.64v-.42a10.44,10.44,0,0,1-1.31-.73L139,92a4.48,4.48,0,0,1-.8-.64V91a5.77,5.77,0,0,1-1.56-.85,30.58,30.58,0,0,0-3.78-2.35l-.41-.21c.35-.67.35-.67.86-.78l.52-.09.59-.1a37.12,37.12,0,0,0,3.9-.85,18,18,0,0,1,3.25-.67l.89-.07a1.33,1.33,0,0,1,.83-.26,13.06,13.06,0,0,0,2.32-.38A12.33,12.33,0,0,1,148,84l1.33-.1A53.17,53.17,0,0,1,162.38,83h1.86c.62,0,1.23,0,1.85,0H167a42.81,42.81,0,0,1,5.88.39l1.27.17.44.06c1.33.17,2.66.32,4,.42q.6,0,1.2.09c.48.24.48.24,2,.42l1.6.22a2.67,2.67,0,0,0,1.43.3,8.88,8.88,0,0,1,1.84.33,14,14,0,0,0,1.58.38c1.13.2,2.26.41,3.38.64l.69.16c.86.2,1,.2,1.52,1a22.5,22.5,0,0,0-3,1.66,24.79,24.79,0,0,1-2.47,1.6l-.33.15v.42l-.53.36-.24.17-.3-.1-.45.39-.59.52a6.11,6.11,0,0,0-1.37,1.5l-.07.17-.15.18H184l-.21.64h-.43l-.37.42-.4.54-.72,1,.18.18c-.11.15-.19.23-.39.46h-.43a5.77,5.77,0,0,1-.85,1.56,27.69,27.69,0,0,0-1.93,3l-.63,1.2A34.46,34.46,0,0,0,175,110c-.16.51-.33,1-.5,1.52a22.21,22.21,0,0,0-1.23,5.07,6.92,6.92,0,0,1-.19,1.43,12.41,12.41,0,0,0-.38,3Z"/></g></svg>