<svg xmlns="http://www.w3.org/2000/svg" viewBox="0 0 1031 432"><defs><style>.cls-1{isolation:isolate;}.cls-2{fill:#21468f;}.cls-3{fill:#5135bd;}.cls-4{fill:#3a96ee;}.cls-5{fill:#3ac5ab;}.cls-6{fill:none;stroke:#fff;stroke-miterlimit:10;stroke-width:0.5px;}.cls-7{fill:#67bc45;}.cls-8{fill:#6ebd44;}.cls-9{fill:#5cb947;}.cls-10{fill:#e2dfeb;}.cls-10,.cls-16{mix-blend-mode:multiply;}.cls-11{fill:#a5d4f1;}.cls-12{fill:#cce2f5;}.cls-13{fill:#eba521;}.cls-14{fill:#eeb134;}.cls-15{fill:#ec9b21;}.cls-16{fill:#ebebdf;}.cls-17{fill:#f5e8cb;}.cls-18{fill:#f2d8a5;}</style></defs><g class="cls-1"><g id="Layer_3" data-name="Layer 3"><path class="cls-2" d="M36,53.42s0,12.65,3.23,15.88,8.08,6.2,9.42,8.08S53,82.5,54.31,84.65,60,88.69,61,90.3s1.35,5.93,3.23,5.93,6.46-.54,8.62,0,5.38,4.58,7,7.54.54,5.65,2.15,6.73,4,0,4.85,1.61.54,11.58,2.69,12.66,4.85,1.08,7.27,1.34,5.38,1.89,5.65,3-.53,7.27,1.08,8.07,5.39-2.42,6.73-1.88-.81,3.5,0,5.38,3.23,4.85,4.58,7.27,3.77,12.39,4,14-.27,6.47,1.88,6.2,5.39,0,8.08,0,5.39,2.14,4.85,4.56.54,6.47,2.69,7.27,8.35,5.93,9.42,7.81-1.61,5.39,0,7,3.5,6.19,5.66,8.35,5.38,4.85,4.84,7.81-1.76,7.54.06,8.88,5.6,3.5,6.94,5.39,1.89,8.88,4.58,10.23,6.73,5.65,9.69,7,6.47,2.42,7,4,3,8.61,4.58,9.42,6.19,4,9.69,6.19,4.58,6.2,7,7.27,6.47,3.77,10,5.39,4,5.38,5.38,6.73,7.27,6.73,10,9.15,3.77,4.85,5.12,4.31-1.88-5.38-1.88-7.27-.16-4.84,2.21-3.77,4.79,5.93,6.67,5.66,3.23-4.31,4.58-5.12,2.15-3.77,3.77-2.69,1.34,5.38,2.42,7,3.5,3.23,4.58,2.15,3.23-7.8,3-14.27-1.89-14.27-2.16-17.23-.22-6.46,2.18-8.08,1.37-3.77,0-5.38.21-4.31,1.44-6.46,3.62-7.54,0-9.16a14.42,14.42,0,0,1-6.85-7.54c-.8-2.15-1.61-2.42-3.77-3.5s-7.8,0-10.23-1.07-4,1.61-4.57,2.69-3-1.35-2.16-2.42,4.85-3.77,4-5.39-1.88-1.08-3.77-1.35-2.15-1.88-2.69-3.5-2.69-3-3-4.84-.54-5.39,0-7-.27-5.39-3-5.39-6.2.81-9.16,0-7-3.5-8.08-5.11.27-2.7,1.08-4.85-.54-1.35-2.15-2.15.54-1.62.27-2.43-3-4,3.23-5.11,5.38-5.39,4-6.73-8.62-5.93-9.7-5.93-8.61,4.58-10.5,4.85-4-.27-3-1.35,7-2.69,7-3.77a3.2,3.2,0,0,0-3.23-3.5,27.08,27.08,0,0,1-8.35-1.88c-2.42-1.08-7-3.77-7-5.92s.27-4.58-2.15-6.47-3.77-4.3-7-3.77-6.19.54-6.73-1.34,1.07-5.66-1.35-8.62-4-4.58-7-4.84-2.69,3.23-2.15,4.84,2.42,5.39,1.07,5.12-3.89-2.43-5.85-5.12-5.45-4.84-5.72-7.27-.81-6.19-1.89-6.73-.81,4-2.69,3.77-3.23-3.36-3.64-5.59-3.83-5.65-7.87-7.67-9.9-7.07-12.32-8.08a12.43,12.43,0,0,1-5.45-4.64c-1.21-1.82-2.22-2.22-5.25-3.64s-6.26-3.23-6.06-3.83,3-1.62,2.42-3-6.26-4-6.66-5,.2-2.42-.4-4.24S86.69,63,85.88,61.63s-.41-2.63-1.82-3-3.23,4.24-4.64,4.24-3.44-1.21-5.25-2-5-1.82-7.27-1.21S62.25,62,60.84,61.83s-8.48-2-9.29-4-4.24-5-6.87-5.65S36,52.28,36,53.42Z"/><path class="cls-2" d="M63.87,121.48c.66,1.41-4.24.12-6.46-1.09s-4.25-4.24-6.26-4-5.86-2-5.46-3,2.22-4.85,4.85-4,2.19,2.42,4.23,4S62.86,119.34,63.87,121.48Z"/><path class="cls-2" d="M77.4,140.79c-1.57.71.6,4,2.42,5.25s5.05,3.08,5.65,4.77,1.22,5.12,2.63,6.33,2.4,1.82,3.82.81,2.64-6.35,2.84-7.42-3.83-3.89-5.05-4.9-3.83-6.46-5.45-6.46A19.66,19.66,0,0,0,77.4,140.79Z"/><path class="cls-2" d="M108.49,189.86c-1.76.59.81,9.49,1.82,10.3s10.7,8.07,11.92,7.47-2.72-6.63-3.08-8.87-1.77-8.3-3-8.9S110.31,189.25,108.49,189.86Z"/><path class="cls-2" d="M128.69,212.68a3.21,3.21,0,0,0,0,4.24,6.94,6.94,0,0,0,4.64,1.28C134.14,217.93,130.3,211.47,128.69,212.68Z"/><path class="cls-2" d="M138.18,222.77c-.81,1.21-2,5.66-1.21,6.06s4.44-.4,5.25-1.21S139,221.58,138.18,222.77Z"/><path class="cls-2" d="M143.66,230c-1.54.42,1.79,7.07,3.2,6.47S145.91,229.44,143.66,230Z"/><path class="cls-2" d="M216.61,173.47c-2,.82-3.23,2.05-3.23,2.66S213.18,180,215,180a5.4,5.4,0,0,0,4-1.61C219.64,177.54,217.62,173,216.61,173.47Z"/><path class="cls-2" d="M230.35,167.24c-.32,1.5,1.33,3.43,1.73,4.65s-2.25,2.22-1.73,3.23,1.33,2.82,2.94,2.42,2-1.88,4.63-.84,5.06,1,5.67,0S242,173,240,172.42s-6.86-4.17-7.87-5.18S230.6,166,230.35,167.24Z"/><path class="cls-2" d="M184.22,278.91c-1.93-.58-1.82,2-1.82,2.83s3.44,4.24,4.65,3.63,2.82-2.35,1.81-3.19S186.24,279.52,184.22,278.91Z"/><path class="cls-2" d="M245.2,212.53c.39-1.93,5.46-4,5.86-4.87s0-2.86,0-3.87,2.42-2.42,3.43-2,3,5.84,4,5.34-.31-5.94,1.06-6.35,5,0,5.42,1.42.19,6,1.6,6.85,1.62,4.81,1.82,6.35,2.42,4.57,3.63,4.77,3.64.15,4.85.88,3.63,0,3.63,1.57-2.22,3-2.62,3.81.6,1.53,1.21,3.59.2,4.69-1.62,4.49-6.66-5.24-9.08-5.55-5.86-1.52-6.67-2.53,1-2.37,1.09-3.81-1.8-2.71-3.26-4.4,1.26-2.9,0-3.91-6.71-.2-8.93,0S245,213.43,245.2,212.53Z"/><path class="cls-2" d="M299.73,222.6c-2,.63,1,3,0,5s-2.63,2-3.64,3.43,1.24,5.13,1.93,5.49,2.52-2,3.12-2,.81-3,2.22-2.24,1.21,3.79,2.43,4.32,3.83-2.1,4.44-3.31,4-4.24,2.62-5.65-3.83-1.28-5.45-1.85-2.83-2.34-4-3.17S302.15,221.81,299.73,222.6Z"/><path class="cls-2" d="M170.49,127.19c-1.43.46-3.23,1.21-2.69,2.42s-1.55,4.31-.1,4.72a14.3,14.3,0,0,0,5.35,0c.94-.27,2.29-3.64,2.15-4.58S171.94,126.72,170.49,127.19Z"/><path class="cls-2" d="M180.18,135.54c-1.34.65-1.88,2,0,2.82s5.12,1.75,6.06,2.83,2.56,2.83,3.1,2.43,2.69-3.64,2.15-4.45a8.33,8.33,0,0,0-3.77-2.42,12.08,12.08,0,0,1-4-2.17C182.74,133.79,181.27,135,180.18,135.54Z"/><path class="cls-2" d="M186.64,144.42c-1.35-1.11-2.69-.54-3,.81s1.89,4,3,4.17a16.72,16.72,0,0,0,4.94-.58C192.57,148.46,188.12,145.63,186.64,144.42Z"/><path class="cls-2" d="M197.55,145.1c-1.16-.7-2.16,3.67-1.35,3.72s3.91,2.33,4.71,3,3,.67,3,0S199.57,146.31,197.55,145.1Z"/><path class="cls-2" d="M207,150.81c-1.2,0-.4,3,.68,3.71s3.36.13,4,.81.14-1.43,0-2.26S209.4,150.73,207,150.81Z"/><path class="cls-2" d="M262.87,295c-.81,1.63-2.36-.62-3.28,1s1.19,7.54,0,8.88-2.81,0-3.62,1.35-5.92,6.19-4.57,6.19,7,1.08,10,0a5.71,5.71,0,0,1,6.46,1.62c1.08,1.34,4,1.61,6.19,1.88s2.16,1.89,0,3-.53,5.39,1.62,5.12,7.54-1.05,10.23,0,10.5,3,12.12,4.3,8.34,5.11,10.23,5.11,5.92.81,7.54,0,4.57-4,6.73-4,12.65,0,16.15,1.61,7,4.31,8.89,4,5.11.81,8.08,2.42,7.8,4,12.38,3.5,8.62,1.62,12.12,1.89,7.27.54,9.69,0,7-.46,8.89.31,3.5,4,5.11,3.73,3.5-3.23,5.39-3.77,6.73-2.16,8.34-1.89,4.58,3.5,6.73,4.31,4.31.3,6.47,1.36,5.11,1.06,7,2.14,9.69,7.54,11.3,7.27-.26-2.42-1.61-3.5-7.27-5.92-7-7.81a17.75,17.75,0,0,1,1.61-6.19c1.08-1.89-.8-4.31-1.88-5.39s-1.08-4.57-2.15-5.65-6.74-2.07-8.35-2.11-2.15,3.46-4.31,4S421,331,419.54,331s-4.57-.94-5.52-1.08-1.75-4.22-2.69-4.26-5.38.85-5.79,0,2.42-5,2.56-6,4-1.34,5.92-.94,5.39,1.35,6.33.81.81-3.23,1.75-3.77,4.58,1.08,5.79.81,1.48-2,3.1-2.16,4.44-.81,4.17-1.75a4.09,4.09,0,0,0-3.91-2.29c-2.15,0-7.53,1.22-10.5.95s-10.09-.81-11.84-1.08-2.29,3.36-3.77,4.17-3.5,1.35-4.58.54-2.42-4.31-3.63-4.31-4.45,1.75-6.47,1.08-4.17-2.42-5.65-3.23-2.56-2.83-4.31-3.23-2,1.34-3.09,2-2.83,2.15-3.77,1.88-4.18-1.07-3.77-2.15,1.48-3.1,0-4.18-4.31-2.28-5-.94-3.91,4.18-5.26,5.52.54,4.85-1.34,5.66-4.71.27-7.14,0-6.19-2-7.4-2.16-3.23,2.16-4.17,2-5.12.27-6.06,0-3.37-1.21-4-2.15-7-.14-8.08-.41-3.63-1.61-3.63-2.82.67-2.83-.41-4.18-4.44-3.36-5.38-4.44-2.29-.13-3.1.94-1.34,2.83-2.42,2-1.75-4.31-3.1-4.71-2.69,1.75-4,1.89-2.42-1.35-3.77-2.43-2.28-3.77-4-4.31-3.1,1.08-4.58.95a17.72,17.72,0,0,0-4.58-.14c-.94.27.67,3.5-.27,3.77a8.8,8.8,0,0,1-3.77-.4c-.81-.27,1.48-1.89,0-2.83s-3.77.14-5.92-.13-3.64-2-5.39-2.43S263.84,293.06,262.87,295Z"/><path class="cls-2" d="M249.11,307.86c-1.21.27-3.5,2.28-3.23,3.09s2.69.81,3.23.41,1.3-3.23,2.06-3.5S249.11,307.86,249.11,307.86Z"/><path class="cls-2" d="M445.12,338c-1.21-.4-2.15,2.56-1.88,3.64s1.88,3.36,3.5,3.36,3.77-1.48,4.57,0,1.08,3.1,2.29,3.64,2.16,3.63,1.89,4.44,1.75,2.15,2,1.48.27-5,1.75-6.06a40.66,40.66,0,0,1,6.32-3.23c1.89-.81,2.56-3.73,1.35-4.29s-4.44-1.9-5.79-2.44-3.36-3.63-4.71-3.63-3.5,3.76-4.44,4.17S445.12,338,445.12,338Z"/><path class="cls-2" d="M457.1,310.47c-1.68.37-2.15,3-2.42,3.44s2.83,1.59,3.63,1.81,2.56-1,3-1.67a13,13,0,0,1,3-2.56C464.78,311.22,461.81,309.45,457.1,310.47Z"/><path class="cls-2" d="M403.12,287.8c-2-.13-2.69,2.6-2.56,3.32s2.42,1.12,3.5,1S405.27,287.93,403.12,287.8Z"/><path class="cls-2" d="M463.56,349.05c-1.34.4-1.61,2.15-1.48,3.1s2.29.54,2.83,0S463.56,349.05,463.56,349.05Z"/><path class="cls-2" d="M470.16,351.47c-.86.61.67,1.75,2,2.43s2,1.17,5.79.85,5.11-.26,5.92-2,.94-4.74,2.43-5.68,2.42-5.48,1.34-6-4.44-1.9-5.38-2.57-1.75-2.43-2.56-2.16S478.1,341,476.89,341s-2.69-1.17-3.23,0,.67,5.5,1.08,6.58.4,3.26-.27,3.31S471.51,350.53,470.16,351.47Z"/><path class="cls-2" d="M490.89,347.44c-1,.73-2.56,3.09-1.88,4.17s-1.77,4.85-.88,5.25a35.44,35.44,0,0,0,6.94,1.21c2,.14,5.25,1.21,6.73,1.21s3-2.14,4.31-2.95,3-2,4.57-1.48,3.77.15,5.52,0,3.91-1.76,4.31-3-.4-3.77-1.48-3.64-3.64,2.45-5.12,2.64-3.63.06-4.44-.62.4-3-1.21-3.77-3.13-2.56-4-3.09-2.61,1-3.42,1.43-3-1.84-3.9-2.24S492,346.58,490.89,347.44Z"/><path class="cls-2" d="M509.47,337.61c-1.81,0-2.56,3.63-.94,4.17s5.25,1.08,6.33,2,3.9,2.14,5.11,1.74,3.23.82,4,1.63-1.75,6.46,0,6.73,4.58.32,5.79-1.19,2.29-3.66,3.77-3.66,4.44,1.48,5.65,1.08,1.62-2.29,1.62-3.1-3.1-1-3.64-2.2-1.07-4.26-2.42-4.66-4,2.23-5.52,2.39-2.56-.78-4.31-1.59-3.36-.23-5,0-1.48-1.5-2.56-2.31-3.23-3.76-4.3-3.23S511.09,337.61,509.47,337.61Z"/><path class="cls-2" d="M544.88,344.72c-1.08-.65-2.83,6.11-1.89,6.16s5.25-3.18,5.25-4.12S544.88,344.72,544.88,344.72Z"/><path class="cls-2" d="M538,336.8c-1.28.69-1.21,3.37,0,3.37s4-1.49,3.77-1.69S539.77,335.86,538,336.8Z"/><path class="cls-2" d="M539.45,364c-1.1.7-3.86.27-4.27,1.35s1.25,3.5,1.91,3.9,1.64,2.29,2.36,3,4.75,1.48,6,.94,3.57-1.48,4.24-.81,2.43,5,4.31,5.79,4.58.27,5.79,1.61,2.69,3.24,4.85,3.1a53.15,53.15,0,0,0,6.19-.67c1.21-.27,1.21-2.16,2.42-2.83s2.43-2.15,1.21-3.1-4.57-3.23-5-4.17-1.48-4.58-2.69-4.44-4.44.67-5,.27-.94-3-2.42-3.91-3.6-2.82-4.36-2.82-2.11,2.55-3.18,2.69a43.13,43.13,0,0,1-6.4-.81A8.38,8.38,0,0,0,539.45,364Z"/><path class="cls-2" d="M557.6,352.71a4.14,4.14,0,0,1-4.85-1.79c-.4-.93-2.62-4.38-1-5.38s5.25-1.12,6.67-3,2-3.47,4.64-3.27,9.09-.67,10.5.88,5.66,4.84,7.07,4.5,4.44,3.92,6.87,3.11,3.23-2.25,5.25-2.24,6.86.2,7.87,0,2,2.65,3.84,2.24,3.23-3.24,5-4.25,3.23.29,4.64-1,4.44.16,4.44,1.17-1.81,3-4.24,4-4.24,4-7.07,4-5.85-.85-7.26-.93-4,3.38-6.26,3.17-10.1.41-12.12,0-2,.41-3.84.8-3.43-1.64-5.45-2.14S557.6,352.71,557.6,352.71Z"/><path class="cls-2" d="M617.17,336.58c-2.4.37-3.64,2-3.64,2.64s3.64,1.62,5.05.95S618.19,336.43,617.17,336.58Z"/><path class="cls-2" d="M624.24,339.22c-1.68,1.29-3,3.3-2.83,4.31s2.83-1.13,4.24-1,2.83.65,3.64,0a2.61,2.61,0,0,0-.81-4.19C626.26,337.27,625.2,338.48,624.24,339.22Z"/><path class="cls-2" d="M625.7,344.67c-1.34.11-.45,3.64,1.16,4.38s6.06-.66,6.67-1.27,5-6.35,4-6.91-4,.93-4.85,1.69S629,344.4,625.7,344.67Z"/><path class="cls-2" d="M644.7,345.24a8.54,8.54,0,0,0,2.85-4c.33-1-2.73-2.65-3.71-2.88s-5.64,7.13-4.88,7.39S643.59,346,644.7,345.24Z"/><path class="cls-2" d="M655,337.69c-1.27,1-5.66,6.26-3.84,6.74s5.25.74,6.46,0,3.23-2.07,4.24-2.11,3.44,1.05,4.24,0,.81-5.27,0-6S657.08,336.06,655,337.69Z"/><path class="cls-2" d="M660.18,354.9c-3,1.54-8.08,4-10.5,4.38s-6.26.54-7.67,1.89.4,3.56-1.82,4.17a41.17,41.17,0,0,0-7.27,3.23c-1.41.81-1.46,3.84-1.54,5.86a10.5,10.5,0,0,1-1.36,5.05c-.94,1.81-.38,5.85,1.36,5.65s4.36-1.74,7.49-2.28,2.61-.75,6-1a11.15,11.15,0,0,0,8-4.85c1.42-2.22,8.08-9.89,9.9-11.1s4.64-3,7.47-3.44,7.47-1.41,8.88-3.23,5.86-4.12,7.07-4.38,3,1.27,5.25,0,5.25-2.72,7.47-4,6.47-3.11,8.08-3.82,2.83-2.38,1.62-3.26-4.24-1-5-1.24-.81-2-2.43-1.82-7.06,3.91-9.08,4.26-4-.4-5.86-.33-5.05,1.23-7.67,1.25-7.1,1.44-9.21,1.14S663,350,661.6,350.88,661.12,354.42,660.18,354.9Z"/><path class="cls-2" d="M625.7,384.12c-1.18-.49-.86,4-1.87,5.05a13.13,13.13,0,0,1-5.25,2.83c-1.81.4-2.62,3.43-3.23,4.44s2.46.6,3.75,0,3.12-2.63,4.73-2.83,4-2.41,4.65-3S627.17,384.73,625.7,384.12Z"/><path class="cls-2" d="M690.67,333.43c-2.2.37-3.23,1-5.45,0s-5.45.61-6.86,0,.2-4,1.41-5.25,4.24,1,5.86,0,2.22-2.82,5-3.43,5.46,1.41,7.07,2,2.63,2.61,1,2.52S692.63,333.11,690.67,333.43Z"/><path class="cls-2" d="M721.17,336c-1.84-.2-3-.12-3.84.58s1.21,2.37,1.92,2.64,4.54.6,5.35,1.65,3.23.36,4,0-.2-1.88-1.82-2.94A15.07,15.07,0,0,0,721.17,336Z"/><path class="cls-2" d="M711.07,328.18c-1.62-.4.2-2.85,0-3.54s1.82-.11,2.42,0,1.21,2.94,0,3.54A2.9,2.9,0,0,1,711.07,328.18Z"/><path class="cls-2" d="M742,337.93c-1.82.35-1.62,2.8-1.62,3.5s3.43-.09,4.64,0S742,337.93,742,337.93Z"/><path class="cls-2" d="M757.51,329.31c-1.67.06-.6,4-1,4.67s1.62,2,2.83,2,4.24-2.11,4.24-3.35S759.74,329.22,757.51,329.31Z"/><path class="cls-2" d="M784.57,326.38c-1.14.9-2.82-.91-2.22-2.08s10.5-6.82,10.5-5.61S785.58,325.58,784.57,326.38Z"/><path class="cls-2" d="M798.37,314.72c-1-.08-1.61,3.23-2,4.58s-3,4.62-4,5-2.82,2.27-2.82,3.21-.27,3.23-.81,3.5a4,4,0,0,0-1.14,3c.2.8,4.37,3.09,5.31,2.55s2.29-5,2.7-6.06,2.28-3.52,3.77-3.85,1.07-5.3.67-6,1.34-3.77,2.56-3.64a14.38,14.38,0,0,0,4.57-.67C807.66,316.07,800,314.86,798.37,314.72Z"/><path class="cls-2" d="M786.66,336.61c-1.24.54-2.42,4.15-3.23,4.12s-2,3.34-1.21,3.61,5.25-1.92,6.06-2.91S787.32,336.33,786.66,336.61Z"/><path class="cls-2" d="M797.33,310.55c-1.4.15-1-4.31,0-4.71s3.33,1.34,3.06,2.35A4.12,4.12,0,0,1,797.33,310.55Z"/><path class="cls-3" d="M378.48,111.71c-2.22,1.4-1.82,3.23-1.21,5.05s.87,4.84.34,5.25-4-1.62-5.19-1.21-1.61,3.43-1.21,4.24,3.49,1.41,3.56,2.62-3.46,4-3.71,4.65-2.47,1.61-3.28,2.62.4,3.64,0,4.24,4.76,2.43,5.21,2.83-1.17,2.42-2.18,2.22-4-3.84-6.26-5.05-5.05-.81-6.67-1.61-1.81-3-3.63-2.83-4.85,1.21-6.66.81-2-.2-3.44-1.82-3-.61-4-1.82-.2-3.21-2.42-3.93-4.24,1.31-5.25,3.33-2.42,6.26-4.24,7.47a10.91,10.91,0,0,0-4,5.47c-.6,2-1.61,4.42,0,5.23s2,3.84,1.42,4-.81,3.23-.61,4.64.2,4.45.4,5.46,3,3,4,2.8,1.62,4.1,1.62,5.6a14,14,0,0,1-1.62,5.59c-.81,1.35.2,3.58.61,4.18s2.82-1.61,4,0,1.41,3.64,2.42,5.05,3.43,3,2.62,3.84-2.62,0-3,2a7.94,7.94,0,0,0,1.21,5c.4.61,4.64-1.21,5.85-2.22s2.63-3.23,3.44-2.42,3,5.36,2.62,7.52-2.42,4.39-3.43,5.81.2,2.62,2,3.63,3.37,3.84,3.1,5.66-.08,3.88-.48,6.28.81,2.6,2,4-.6,5.05.2,6.06,3,1,4.65,0,3.63-2.85,4.44-2.74-.4,4,1,4.36,3-.61,4.85,0,5.45-.41,5.85-1.21,2.43-3.26,3.44-3.15,2,3.15,2.82,2.94,3.23-5.45,4.24-5.65.41,4.44,1.42,5.45,2.62,3.93,2.22,4.59-2.22,5.71-1,5.91,5.05-3,6.66-3,5.35,1.62,7.32,1.62a11.38,11.38,0,0,0,6.21-2.42,17.15,17.15,0,0,1,4-2.08c.61-.35-2.22-2.77-1.21-3.58a5.14,5.14,0,0,1,4.85,0c1.21.81,1.81,4.65,3.23,4.65s4.84-1.33,5.65-1.07.41,5.73,1.42,5.92,3.23-1.82,4.44-2.63,4-2.74,4.84-3.29-1.41,3.89,0,4.1,3.84-.61,4.45.4,2,3.63,3.23,3.63,1.82,3,1.82,5.66-1.62,5.65,0,6.06,5-2.22,7.87-2.43,4.44-3.23,6.06-4a26.26,26.26,0,0,1,6.66-1.42c.61,0,5.45-4.44,7.27-6.46a62.6,62.6,0,0,0,4.85-5.51c1.21-1.76-1.21-4.79-1.21-5.8s1.81,0,3.23-.2,1.61-3,1.61-4.24a51,51,0,0,1,1-5.86c.21-1,1.82,1,2.83,0s2-3.83,1.62-5.25-1.42-1.21-3-1.61-3.23-1.82-3-2.43,2.62,0,2.62-1.41a18.66,18.66,0,0,0-1.41-5,3.38,3.38,0,0,1,2-4.19,15.25,15.25,0,0,0,4.64-3.28,6.27,6.27,0,0,0,1.82-4.44c0-1.42.2-3.64,1.41-1.42s1.62,5.05,2.83,4.85.61-3.43,1.82-5.45,2.42-2,4-3.43,2-2.43,3.43-2.23,4,.61,4-.2-1-3.43-1.41-5.25,1.21-4.24,0-5.25-1.22-2.22-1.62-3.23.2-6.46,1.21-8.68,3.64-6.06,4.44-7.88,1-4.44,2.23-4.64,3.83,1,6,1.41a11.25,11.25,0,0,0,6.06-.61c1.21-.6,1.82,1.42,3.23,1.22s4,.2,5.25,0,2.43-1.62,3.23-2.22.41-2-1.41-3.64-4.24-1.41-6-2.62-1.48-3.1-3-3.91a38.79,38.79,0,0,1-4.58-3c-1.21-.94,0-2.15-1.48-2.56s-5.25-2.69-6.46-3.36a15.9,15.9,0,0,1-3.37-3.23c-.54-.68,2-2.29,2.83-2.43a5.92,5.92,0,0,0,3.36-2c.68-1.07,1.35-2.56,1.08-3.5s-2.15-1.88-3.5-2.29-.4-3.77-1.48-4.71-2.83-.67-3.5-.94-2.83.4-3.23,0,2.56-1.35,2.83-1.89-.68-1.88-1.21-3.09-1.89-1.48-2.83-1.75a27.67,27.67,0,0,1-3.5-1.21c-.81-.41,1.34-.81,1.75-1.75s3.63-2.29,3-3-3.77-.67-4.85-1.88a12.65,12.65,0,0,1-2.42-3.5c-.4-1.08.94-.94,2.29-.67s2.56,2.82,3.36,2.15,2,0,3.37-.13,1.62-1.59,2.15-2.21,1.62,1.4,2.43.59a3,3,0,0,0,.27-3.63c-.81-1.08-3-3-2.7-3.37s2.7.81,3.23,0-.53-2.69-.94-3.23a41.41,41.41,0,0,0-3.36-2.69c-.81-.68-.54-2.7.54-2.43s3.9,3.64,5.11,4,3.77.94,4.71,0a6.38,6.38,0,0,1,3.23-1.75c1.48-.4,3.64.54,4.85-.27s3.9-2,4-3.09-2-1.48-2.56-1.75-2,1.34-2.42.94,2-2.29,1.21-2.69-3.9-1.89-5.39-1.35-1.61-1.08-2.55-1.48-1.75-2.42-1-3.37,3.1-3.36,4.85-2.69,2.42,3,4.17,2.83,5,.67,6.33-.27,2.83-3,3.77-3.37,2.83-.67,3.9-1.21-.13-3.09,0-4.44-1.48-1.62-3.09-1.89-4.31.68-5.25,0a6,6,0,0,1-2.42-2.69c-1.08-1.88-1.62-3.36-3.64-3.5s-6.06,0-6.73-.81-.81-3.09-1.62-4-2.42-2.56-3.36-2.56-3.23,3.77-4.44,3.9-3.37.27-4-.13,0-3.77,0-4.58,2-2.15,2.82-2.69-.27-2.83-1.48-3.91a10.23,10.23,0,0,1-2.82-5c-.27-1.61-1.08-1.48-1.75-1.34s-.41,3.09-1.75,3.36-1.22-1.88-2-2.15.53-5.12-.14-5.66-3.5,0-3.9.81-.81,5.52-1.62,5.79-2,1.08-3,1.08-.4-2.83-.4-3.5,2.69-2,1.88-3-2.29-2.19-3.77-1.43-2.56,4.12-2.83,5.46-.67,4.45-1.88,5-4,3.51-5.38,3.91-3,5.25-3.51,5.92-2.15-.27-3.23.54-.67,4.44-.27,5.79a4.75,4.75,0,0,1-1.21,4.31c-.94.67-1.75.27-3.09,0a9,9,0,0,0-4.72.54c-.94.53-.94,4.17-1.88,4.57s.4,2.16.94,2.29,3.23,2.43,2.56,3-2,3.1-3.37,3-1.75-1.08-3.5-1.62-3.36-2.83-5-2.56-5.65,4.58-7,5.52-3.9,2.69-5.11,2.56-1.35.94-3.23,1.61-5.52,1.08-6.2,1.89-.13,4.44-.13,6.06-2.29,3.77-3.5,4.31-5.12,3.09-6.06,4.44-4.44,3.5-5.38,4.31-.81,3.9-.95,5.11-1.21,3.5-2.29,3.64-3.36,1.34-4.71,1.48-1.34,1.48-3.36,2.29-9.29,2.69-10.64,2.28-.94-1.34-2.82-1.07S379.5,111.07,378.48,111.71Z"/><path class="cls-3" d="M479.65,237.72c-1,1.2-5.85,6.86-6.06,7.47s-1,7.87,0,8.68,3.44-.6,4.24-1.41,2.63-3.84,3.44-4.65,1-4.64,0-5.25S480.94,236.19,479.65,237.72Z"/><path class="cls-3" d="M304.78,88.06c-.21-1.19,4.64-4.42,5.85-4.62s3.23,3.58,3.64,4.62.2,6.89-1.21,6.69S304.78,88.06,304.78,88.06Z"/><path class="cls-3" d="M321.54,108.88c-.61.41,2.82,3.23,3.63,3s.61-5.45,0-5.65S321.54,108.88,321.54,108.88Z"/><path class="cls-3" d="M323.29,117.36c-.34.81-.69,4.45.29,4.85s6.24-1.62,6.44-2.42-1.21-4-2.22-4.11S323.29,117.36,323.29,117.36Z"/><path class="cls-4" d="M566.28,151.69c-1.82-.17-4.84-.4-6.06,0s-9.29,12.12-9.69,13.13,2.83,2.62,2.63,3.63-2.09,2.43-2.66,3.23,1.17,8.89,0,9.7-3.6,5.45-4.41,5.65-4.44,2.42-4.65,3.84,0,17.77,0,19-2.62,1.21-3.63,2-1.21,7.07-1.82,7.87-7.27,4.45-7.27,5.46-1.41,3.43,0,3.63,3.64-1.41,4,0-1.41,4.85-2,5.66-1.21,3.63,0,4.84,2,4.85,3,5,4.44-1.61,5.65-2a22.87,22.87,0,0,1,4.65-.81c.81,0-1.82,3.22-1.21,4.24a35.33,35.33,0,0,0,4.33,5.25c1.32,1.22-.72,8.69,0,10.1s-1.91,5.66-2.11,7.68-4.24,9.28-3.64,10.5,2.83,5,4.65,5.85,4,4.24,5.25,3.64,2.42-4,3.84-4.45a20.8,20.8,0,0,1,6.26-.6c1.81.2,4,3.23,4.84,2.62s-2.22-7.27-2.62-8.68-1-6.87,0-8.28,3.9-4.64,2.76-6.66-2.56-5.46-3.37-7.27,0-5.25,0-6.46,1.82-1.84,2-3.24a38.38,38.38,0,0,0,0-8.33c-.4-2.37-4.64-4.19-4.64-5.6s3.23-2,4.24-3,2-3.83,3.23-4.64,6.06.2,7.47.2-.81,3.84,0,4.44a21,21,0,0,1,3,2.83c.4.6.81,4.74,0,5.8s-4.65,1.94-4.65,3.22,5.86,6.53,7.88,7.74,3.23-1,4.44,0,4,6.06,4.44,7.27-3,5.65-2.62,6.87,2.83,5.65,4.44,6.46a15.31,15.31,0,0,0,7.27.6c1.21-.4-1.82-6.46,0-7.06s7.27-1.62,9.29-2.23,4.44,2.23,5.65,1.42,3.24-7.07,2.63-8.48-3.43-1-5.65-1.62-2.83-3.43-3.44-4.64-3.43-2.43-4.24-3,.41-4,1-5.66,1.62-5.85.61-7.47-.61-1.41-3-3.23-3-5.61-4.24-7.45-4-3.86-5.86-5.27-7.27-6.06-7.47-6.67,5.86,1.42,6.46.81,3.64-4.84,5-5.65,5.45,0,7.07-1,10.9-12.12,12.11-13.13.21-3.12-1-4.08-6.26.15-7.87,0a28,28,0,0,0-4.24,0c-.81,0-.81,4.08-3,4.49s-5.25.2-6.06-.61-3.84-2.62-5.25-2.22-7.07,8.14-7.67,8.11,1,3.2.2,3.6-6.78.81-7.93.61-2.57-2.43-3.38-2.63.81-4.84.4-5.45-5.25-2.42-7.26-3-3-3.63-3-5.86-2.23-6.66-1.62-8.27,3.84-8.28,5.65-10.3,4.65-4.85,6.67-4.24,4.44,3.83,7.07,3,6-1.62,7.87-2.23,3.23-2.42,4.65-1.61,3.63,3.43,5.45,3,4.44-2.22,5.85-2.43,14.75.41,17.57.81,5.25,3.64,8.28,3.84A92.81,92.81,0,0,0,638,163.2c2.22-.2,3.43-2,6.26-2.42s5.25-.61,9.09-5.45,7.67-8.28,8.68-9.9.2-4.65,1-5.15,2.62-.1,3.23-1.11,1-4.44,0-5.25-5.65-1.21-6.66-1.61-2.63,6.05-3.44,6.66-4,.8-5.25,1.31,2.43,3.13,2.22,3.94-3.63-.6-4.44-.2-5,5.65-6.46,6.46-4.85,2-5.65,1.62-4.25-1.62-5.86-2.22-8.08-.81-9.9-1-2.62,3.23-3.63,3-8.48-1.61-9.69-2-1.82-2.43-2.83-2.63-12.72-.4-14.74-.61a28,28,0,0,1-7.88-3c-1.21-.81-4.64-4.45-6.46-3.34a30.52,30.52,0,0,0-5.45,5.15c-.41.61.2,4.65.2,4.65S567.23,151.79,566.28,151.69Z"/><path class="cls-4" d="M616,180.77c-1.53.38.13,2.69,1.34,3.5a10,10,0,0,1,2.7,2c.4.67-.54,1.75,0,2.56s2.42.13,3.5.67,2.42,2,5,.94,1.75-8.21,1.07-9S618.11,180.23,616,180.77Z"/><path class="cls-4" d="M617.84,192.75c-1.37,1-5.11,7.14-4.57,7.81s4,1.89,4.57,1.62,2.43-4.41,3.23-4.7,3.91-3.52,3.23-3.92S618.69,192.13,617.84,192.75Z"/><path class="cls-4" d="M629.93,193.43c-1.25.64-4.52,3.2-3.94,4s3,3.17,3.94,3,3.63-2.29,3.23-3.5S631,192.87,629.93,193.43Z"/><path class="cls-4" d="M620.67,250.78c-1.21.4-1.75,4.79-.67,5.76s4.71-.65,5.25-1.19.54-4.31,0-4.57S620.67,250.78,620.67,250.78Z"/><path class="cls-4" d="M619.42,260.2c-.77.4-3.6,6.6-4.27,7.27s.81,4,1.08,5.38S616,277.16,615,278s-4.54,2.69-5.08,3.37.27,3.9.54,4.57,3,1.35,4.13,1.48,2.87-.54,3-1.48-.94-4,0-4.44,4.14.4,5-.4,1.1-3.91,1.24-4.58-4.53-.27-4.35-1.08-.45-4.17,0-5,5.15-4.17,5.42-5S619.42,260.2,619.42,260.2Z"/><path class="cls-4" d="M611.38,264c.9,0,1.75,7.4,1.21,8.08s-2,1-2.87,1.75-.63,5.65-2,6.19-2.7-1.75-3.24-1.75-2.42,1.08-3,.81,1.75-4.7,2-5.25-.81-5.12-.27-5.93S610.57,264,611.38,264Z"/><path class="cls-4" d="M630.23,276.08c-1.08.9-1.08,3.4-1.08,4s3.5-.05,4,0S630.86,275.56,630.23,276.08Z"/><path class="cls-4" d="M597.47,273.8c-1.12.16-2.38,2.07-3.19,2.24s-1.75,2.2-1.21,3,4,4.71,4.4,4.57a3.15,3.15,0,0,0,1.66-1.88C599.26,280.93,598.37,273.68,597.47,273.8Z"/><path class="cls-4" d="M564.94,291.16c.55-1,3.23-.54,4,0s.68,5.79,0,7.41a6.92,6.92,0,0,1-2.42,2.69c-.27.27-.4,3.77-1.08,3.9S563.45,293.86,564.94,291.16Z"/><path class="cls-4" d="M666.85,204.47c-.84-1.45-5.39,1.21-7,1.07a44.64,44.64,0,0,1-5.26-.57c-.8-.24-3.23-2.58-4.71-2.76s-3.77,1.58-4.44,2.26.14,8.07.94,8.07,4.58.41,6.06,0,3.64-2.29,4.85-2.56,7.4-1.34,8.48-1.88A3.17,3.17,0,0,0,666.85,204.47Z"/><path class="cls-4" d="M670.35,205.68c-.53.21-.68,4,0,4.3a12.85,12.85,0,0,0,5.11,0c1.21-.4,1.89.66,3,.6s3.23-1.27,4.31-1.81,5.39.07,6.06-.64,0-2.32-1.75-2.45-8.75.27-10,0S671.69,205.14,670.35,205.68Z"/><path class="cls-4" d="M679.47,212.72c-1.32.63-.91,4.67-.78,5.07s2.29,1.48,3.37,2.16,2.42-.41,2.69-1.08-1.21-6.19-1.75-6.73S679.47,212.72,679.47,212.72Z"/><path class="cls-4" d="M716.39,196.12a16.47,16.47,0,0,0-5.79,4.31c-.81,1.21.13,3.63,1.34,4.17s3.64,1.53,5.39.77,6.6-1.17,7.4-1.31,3.5-1.54,3.23-1.85S718.75,195.21,716.39,196.12Z"/><path class="cls-4" d="M712.08,191.81c-1.13.21-2.49,3.23-1.78,3.5s4.07-1.88,4.88-1.75,2.28-.94,1.88-1.75S713.56,191.54,712.08,191.81Z"/><path class="cls-4" d="M727,144.69c1.09-.75-2.29-2.15-1.34-3.36s3.09-1.48,4.71-2.7,3.36-3.36,4.84-3.77a3.43,3.43,0,0,1,3.5,1.75c.54.95,1.22,6.6,1.35,8.08s-2.29,2.29-3.63,2.29-4.18,2.42-5.66,3-3.9,1.62-4.44,2.29,1,2.56,1.63,2.83a7.76,7.76,0,0,0,3.08,0c1.35-.14,4.44-.27,5.39.81s.53,3.5,1.75,4.44,3.23,1.88,3.77,2.29a5.17,5.17,0,0,1,.94,3.23c-.14.81-2.83-.94-4.18-1.75s-6.05-2.16-7.8-2.69-4.3-1.22-5.45-1.75a7.78,7.78,0,0,0-4.78.4c-.41.4,1.07,3.63,1.07,4.58a29,29,0,0,1-1.14,4.57c-.34,1.22,1.28,4.31,2.08,4.58s2.29,3,3.24,4.58,3.09,4.44,3.9,5.65,3.9,3.64,2.83,3.91-4.45-.14-5.39,0-4.17-1.35-4.31-2.83-.27-5.52-1.07-6.46-2.56-3-3.91-3.5-1.61-3.64-1.61-5.12.54-7.52,0-8.61-4-2.29-3.77-3.37a39.42,39.42,0,0,1,3-6.87c.67-.8,2.27.81,3.56.14s.61-3.37,2-4.31S725.27,145.9,727,144.69Z"/><path class="cls-4" d="M716.08,146.58c-1.36.5-1.58,4.12-2.18,4.89s-3.84.33-3.7-1.82-.87-6.49-.64-7.55,1.79-1.94,2.91-3.16,1.21-4.32,1.77-6,.92-2.33,3.07-3.28,4.69-3.89,6.15-4.65,2,.93,1.83,1.58-3.69,4.56-4.2,5.44,1.61,1.16,1.9,2.14-.37,10.54-1.34,10.69A44.36,44.36,0,0,0,716.08,146.58Z"/><path class="cls-4" d="M728,121.13c-1,1.2-1.77,2.74-.82,3.66s2.42.79,3,1.86a2.19,2.19,0,0,0,3.23.81c1.35-.81,2.69-4.58,3.1-5.65s2-4.85,1.21-5.79-3.77-.68-4.71,0A51.71,51.71,0,0,0,728,121.13Z"/><path class="cls-4" d="M712.6,178.35c.74,0-1.36-2.16,0-2.56s2.31-1.08,3.79,0,1.48,3.64.74,4.17-1.89,4.45-2.26,4.85a3.45,3.45,0,0,1-2.75.67c-1-.27-1.79-4.81-2.6-5.1s-.32-2.84.58-2.84S711.78,178.35,712.6,178.35Z"/><path class="cls-4" d="M706.16,174c-.95.66-3,2.69-2.7,3.37s1.35,3,2.7,2.42S707.2,173.31,706.16,174Z"/><path class="cls-4" d="M719.14,183.33c-1.6-.52-2.89,3.36-2.62,4s1.47,2,2.62,1.34S721.62,184.14,719.14,183.33Z"/><path class="cls-5" d="M855.05,295.27c-.4-1.82-.2-5.45,1.41-7.47s1.62-8.08,2.83-8.28,2.83-.41,3.84,1.61.2,8.08,0,9.49,2,2.63,2.42,4.65-.61,4.84-2,5.25S855.05,295.27,855.05,295.27Z"/><path class="cls-5" d="M851,296.08c-.38,1-.61,15.34,0,15.55s2.87-.41,3.86,0,6.24-7,6.24-7.76S851.35,295.16,851,296.08Z"/><path class="cls-5" d="M826,291.63c-.81-.27,0-6.05,0-7.27s3.64-5.45,4.44-6.26,3.23.21,3.84,0-2.63,5.74-3.43,6.61S828.39,292.44,826,291.63Z"/><path class="cls-5" d="M819.91,291.7c-.2-1.28-.81-8.14,0-8.75s2.43,0,3,0,1.21,8,0,8.75A3.93,3.93,0,0,1,819.91,291.7Z"/><path class="cls-5" d="M996,220.16v80.38a3.65,3.65,0,0,0-2.15,2.87c-.27,2.16-2,3.91-1.89,4.72s4,4.57,4,4.57v45.51s-3-2.43-4-3.51-3.62-3.36-4.3-4.71-1.61-3.63-3.5-4.84-4.84-2.7-5.92-3.91-3.64-1.21-3.64-2.42,3-6.73,3.1-7.27-1.48-.94-2-.14-3.09,4.58-3.77,4.72a42.54,42.54,0,0,1-5.65-.14c-1.62-.13-2.29.94-3.23,1.21s-3-.27-3.5-.27-.68-1.61-1.75-1.48S954,338,953.32,338s-1.75-1.21-3.09-1.48-1.62-3.23-1.21-4.17,4.44-3.23,5.11-4.58.68-4.31-.13-5.12-4.79-2.55-5.16-3.5a9,9,0,0,1,0-3.77c.18-1.21,4.89-.26,6.37-.53s1.08-2,.94-2.43-8.21,1.35-9,.81-1.61-2.56-1.88-3.23,3.36-4.71,2.69-5.92-4.31-2.56-5.39-3.77-3.36-2.7-3.5-3.5.14-5.93,0-7-4.57-3-5.52-3.77.68-3.77,0-5.39a8.19,8.19,0,0,0-5.11-4.17c-2.42-.67-6.6-1.75-7.81-2.83s-4.58-4.58-5.92-4.71-5.93,1.08-8.48,0-12.66-4.85-14.41-6.06a45.73,45.73,0,0,0-8.61-4.17c-1.62-.41-5.39,1.75-7.27,1.75s-5.79-2.29-6.87-3.23-4.71-2.56-5.52-3.37,2-4.44,1.48-5.25-3.63-.54-3.9,0-1,2.69-2.43,1.89-4.57-1.22-5.92-1.48-1.42-2.56-2.12-2.83-2.73.94-3.53.81-.54-4-1.22-4.72-2.42-.13-3.36-1.21,0-4.71,0-5.79,2.83-3.09,3.63-3.77-.53-2.69-1.07-3.09-4.45,3.77-4.58,4.58.94,5.51,0,5.92-2.15.4-2.56.94,2.56,2.42,2.29,2.83-1.42,1.75-2.33,1.61-1.17.54-1.71,1.35,1.89,3.37,1.62,3.77-4.45,1.75-5.93,2.29-3.09,2.42-4.44,1.88-2-3-3.23-3.63-2.74-5.93-2.65-6.46,4.8-1.35,4.94-1.75a10.27,10.27,0,0,0-1.75-4,4.31,4.31,0,0,0-3.19-1.35c-1.52,0-1.26-2.83-2.07-3.5a11.15,11.15,0,0,0-4.16-1.61c-1.08-.14-6.74-.68-7.14-2.29s-.54-4.72,0-5.25,5.52-.54,7.54-.54,4.53,2.82,5.83,3.09,2.38-1.07,3.46-1.61,2-5.66,4-6.06,6.59-.81,7.27,0-1,5.12,0,5.25,2.42-3.9,3.23-3.9,3.23,1.75,4.17,1.61.94-2.82,1.62-3.43,3-.2,3.63-.88-2.15-3.5-2.42-4-3.1.94-4,1.21-6.46-.91-7.41-1.33-1.34-1.77-2.28-1.9-3,2.55-4.18,2.55-7.13,1.62-8.21.95-2.29-2.83-3-2.7-1.48,3-2.56,2.83a9.78,9.78,0,0,1-3.9-2.29c-1.08-.94-4-2.69-4.71-3.63s.26-3.37,0-4.58,1.75-3.77,1.34-4.17-2.69-2-3.09-.95-1.49,2.83-2.29,2.43-3.23-.25-4-.8-.41-2.43-1.62-2.57-3.63.81-5.25,1.21-3,.68-3.63-.27-2.29-3.39-2.69-3.18a28.56,28.56,0,0,1,4-3.68c1.48-1.08,3.1-4,2.56-4.35a2.52,2.52,0,0,1,.27-3.59c1.48-1.08,3.5-1.62,4.85-2.43s4,1.21,5.52,1.35,2-.11,3.36-1.54.41-3.71,2.16-4.38a71.16,71.16,0,0,1,8.07-3,11.34,11.34,0,0,1,5.7.81c.77.41.36,2.16,1.3,2.29s3.24-.4,4-.27,3.5,3,5.25,3.77,2,2.83,2.83,3a33.23,33.23,0,0,0,4.31.54c1.21,0,1.34-2.83,2.29-3.1s5.25.14,7.13.54,3.37,3.64,4,4.58-1.69,2.15-2.12,3,2.52,1.48,3.06,2,.68,1.72.68,4.49-.68,4.15-1.48,4.81-2.56,1.88-2.83,2.55,1.21,3.09,1.61,3.5,1.35-1,2.29-1.24.59,2.72.9,3.53-2.24,3.63-2.38,4.3,1.93,3.37,2.38,4.31,2.33,9,2.87,9.16.67-3.1,1.08-3.23-.81-4.85-.14-5.25,1.35-3,2.43-2.7,1.07,4.85,1.75,6.33,2,3.1,1.75,4.31-.81,5-.54,5.25,1.88-1.08,2.83-.94,1.48,1.75,2,2.15-.14,3.37.67,3.64,3.77,1.61,5.52,1.75A8.26,8.26,0,0,0,880,237c.81-.67.27-3,2.43-4.17a48.39,48.39,0,0,0,5.79-3.9c.94-.81,2.11-3.64,2.33-4.18s4.94-3.36,5.88-3.9,0-5,.94-5.52,3.37-2,3.91-2.29,3,1.35,4,1.08,4.18-3.37,5.12-3.5,4-.14,4.85-.54,0-4,.4-5.12,3.23-2,4.44-2.55,3.37-.14,4.71-.54,2.29-3.37,3.64-3.64a27.47,27.47,0,0,1,4.71-.13c1.35,0,2.69,3.5,3.77,4.31a10.86,10.86,0,0,0,5.52,1.34c1.48-.13,3-1.48,4.17-.81s4,1.89,5.93,3.1,2,4,3.5,4.71,6.05,2.43,7.67,2.43,4.58,2.55,5.52,3.09a7.31,7.31,0,0,0,4.58.41c1.48-.41,3.09-2.43,4.71-2.43S996,220.16,996,220.16Z"/><path class="cls-5" d="M908.23,203.52c.33-1.1-3.64-1.21-5.66-.67s-7,.33-7.67-.31-3.77-1.58-6.46-2a29,29,0,0,0-7.68,0c-1.34.27-1.61,2.29,2.56,3a40,40,0,0,1,8.75,2.43c.81.4,1.48,3.09,2.69,3.36s5.52.94,7.27,0S907.82,204.87,908.23,203.52Z"/><path class="cls-5" d="M897.32,191.27c.19-.64-3.63-3-4.71-4.44s-4-4.17-5.12-4.44-2.82,1.21-3.36,1.61.94,3.23,1.07,4.31,2.29,2.42,2.29,3-.67,3.77.41,3.77A72.85,72.85,0,0,0,896,194C896.78,193.7,896.92,192.62,897.32,191.27Z"/><path class="cls-5" d="M864.2,187.91c0-.73,4.45-.68,5.25,0s-2.15,5.38-2.62,5.25S864.2,189.52,864.2,187.91Z"/><path class="cls-5" d="M780.33,185.56c-1.56.33-2.55,3.69-3.36,4s1.61,3.5,1.68,3.84,3.16,3.4,3.7,2.67,3.91-4.74,4.31-5.76S782.49,185.09,780.33,185.56Z"/><path class="cls-5" d="M776.8,179.91c-.5.11-1.31-.48-1.58-1s2.23-2.78,1.58-3.68-6.16.09-6.43,0-.54-1.44,0-2.52,4.71-3.63,5.79-4,2.56,1.48,3.1,2.55,1.74,2.71,2.48,2.77,4.58,3.29,3.27,4S778.25,179.59,776.8,179.91Z"/><path class="cls-5" d="M781.74,168.12c-1.12.19-1.28,2.42,0,3.5s4.79,3.63,5.86,4.3,6.2-.62,5.79-1.59-3.5-5.25-4.31-5.73S783.29,167.85,781.74,168.12Z"/><path class="cls-5" d="M764.58,205.05c-1.84.41-5,2-4.57,2.65s7.67,3.63,8.88,4.17,3.64-2.51,4.31-3.41,2.83-3.09,3-3.41-3.1-3.55-4-3.14-3.4,3.46-4,3.14A6.07,6.07,0,0,0,764.58,205.05Z"/><path class="cls-5" d="M758.66,191.38c-.5,1.19-.41,3.39.54,3.66s4.44.94,4.84,0-.8-4.11-1.61-4.21S758.88,190.85,758.66,191.38Z"/><path class="cls-5" d="M944.3,319.7c1.76.24,5.79,4.31,6.33,5.25s-2.69,4.58-3.16,4.71.47,6.2-.74,7-5.93,6.19-7.27,6.05a54.69,54.69,0,0,1-5.52-1.21c-1.08-.27-4,.95-5.52,1.22s-4.17-.14-4.71-1,.27-3.9,1.48-5.38,2.69-2.16,3.63-3.23.27-6.06,2.16-7.41S941.34,319.3,944.3,319.7Z"/><path class="cls-5" d="M946.59,339.76c-1.46.33-1.34,3.23-.94,4s3.5.54,4.31,0,4-.43,3.5-1.76S950.74,338.82,946.59,339.76Z"/><path class="cls-4" d="M727.16,227.62c-1.35-.54-1.09,3.37-1.82,4s1.32,2,2.64,2.83,2.68,3.09,3.35,4.17,1.08,2.69,2.42,3,3-.81,3.91-.94.67-2.16,1.21-3,.27-2.84,1.21-3.1a6.19,6.19,0,0,1,3.64.54c.4.4-1.89,2.56-1.75,3.23s1.88,1.48,3,1.75,3.77-.94,5.38-.67,5.12,1.48,6.06,1.34-.13-3.36.67-3.5,2.75.54,4.2.68,1.86,1.88,4.28,2.82,5,1.21,6.74,2.16a45.75,45.75,0,0,0,4.54,1.88c1.24.54,2.46,4.44,3,4.58s2.56.67,3.24,0,1.61-10.49,1.07-10.76-4.84.67-5.38,0-.48-3.91-1.05-4.45-4.34-3.1-5.14-3.64-5.93,0-7.27-.13-1.49-3.1-2.43-2.83-6.53-2.56-8.11-2.69-4.27,3.36-5.22,3.77a14.93,14.93,0,0,1-3.77.54c-.4,0-.67-3.24-1.21-3.5s-2.42.4-3.23.26-.81,1.35-1.61,1.62S727.16,227.62,727.16,227.62Z"/><path class="cls-4" d="M720.55,234.49c1.1,1.31,2.84-1,3.78,0a2.82,2.82,0,0,1,0,3.5c-.67.53-.35,3-1.59,3.23a1.69,1.69,0,0,1-2.19-1.21,16.74,16.74,0,0,0-1.41-3.1c-.33-.27-4.23-2.48-3.7-3S719.19,232.87,720.55,234.49Z"/><path class="cls-4" d="M719.14,229.1c-.66.41,1.15,3.1,2.09,3.1s2.43-2.56,2.43-3.1S720,228.56,719.14,229.1Z"/><path class="cls-4" d="M723.66,243c-1.17.42-2.51,1.34-2.33,2.15s-.15,2.42,1.15,2.42,2.79-1.07,3.6-1.21a15.4,15.4,0,0,0,3.77-1.07c.54-.41-.27-2.43-1.08-3S724.4,242.7,723.66,243Z"/><path class="cls-4" d="M712.6,236.37c-.57.32.69,3.5,1.63,3.64s1-1.08,1.16-1.82S713.8,235.7,712.6,236.37Z"/><path class="cls-4" d="M707.06,241.29c1.25-1.15,1.3-3.65,0-3.95s-2.7-1.51-3.62-2.05-3.21-3-4.42-3.09-6.87.4-8.35,0-1.48,1.61-2.82,1.88-3.1-1-3.64-.67-1.61-1.48-2.55-.67-.54,7.67,0,7.94,3.49.08,4.84,1.45,5.12,5,6.06,5.41,3.5-.4,5.11,0,1.75-1.88,3.1-2a18,18,0,0,0,4.48-.69C706.56,244.31,707.06,241.29,707.06,241.29Z"/><path class="cls-4" d="M707.06,247.54c-1.49.55-1.37.94-1.81,2.22s1.66,1.69,2.77,1.69,2.39-2,2.08-2.56S708.2,247.12,707.06,247.54Z"/><path class="cls-6" d="M100.3,84.1s-3.32.35-3.72,1.36,2,3.63,0,4.44-4.44,2-4.64,3.64S94.16,101,94.16,101s2.82,4.44,3,5,.07,3.83-1.08,4.64S97,114.94,97,116s0,7.12.8,10.33"/><path class="cls-6" d="M119.15,165.59a41.56,41.56,0,0,0,3.48-3.8c1.21-1.62.81-3.43,1.82-4.44s3-.41,3.83,0,3.84,3.23,5.25,2.62,1.62-1.31,1.62-3.18-3.43-4.69-2-5.7,2.83-.41,4.44,0,4.45-.5,5.46-.56,1.21,3.18,1.41,4.39-1.82,6.67,0,6.67,4.05-.61,6.06-.2,4,3,5.45,4.2.4,4.28,0,5.49-.77,4.44.73,5.25,4.32,3.84,5.93,5.65,2.63,4.45,3.84,5.46,7.88,4,8.89,3.83,2.82-3.43,4-4.44,3.84-.61,5,.4,5.45,4.26,7.07,4.05,3-5.66,5-6.47,13,0,13,0"/><path class="cls-6" d="M145.54,121.48s-.9,5-1.1,6.38,2.62,2,3,3,.81,4.45,0,5.46-1.23.8-3,1.21-2.21,2.82-2.21,4-3-2-2.83,0,3.08,7.72,2.05,9.21"/><path class="cls-6" d="M175.34,191.27s2,2.83,0,4.44a23.65,23.65,0,0,1-5.46,3.24c-1.41.6-2,4.44-1.81,5.25s.32,4.84,0,5.65,0,3,0,4.24,2.46,2,2.46,3.64-.12,3.83,1.55,4.84,4.1,1.62,5.72,2.63,3,2.22,4.64,1.21,5-4.65,7.07-4.85,4.24,1,5.05.41-.2-3.64,1.41-4,2.63,0,3.84-.81,1.41-3.84,2.83-3.84,1.61,5.05,2.62,6.06,4.2-2.83,4.32-5.05,2.55-6.06,4.37-6.26a11.69,11.69,0,0,0,5.65-1.81c1.61-1.22,4.44.6,5.65,1.21s3.61.72,5.14-3.28"/><path class="cls-6" d="M158.19,221s1.26-.81,2.88-1.76,6.29-.79,7.79-3.89"/><path class="cls-6" d="M182.4,226.41s1.42,3.63,2,4.71,3.09,1.75,3.9,1.75,3.23.81,3.23,1.48-.54,3.91,0,4.31,3.23-1.48,4.58-1.08,2.3,3.77,3,3.91,3.56.53,2.76,1.48a14.35,14.35,0,0,1-6.06,3c-1.62.13-1.89,2-1.35,3.23s5,3.9,6.33,6.06,2.15,2.83,4.31,3,5.38.54,7.27,2,1.75,2.69,2.15,4.31a13.35,13.35,0,0,0,1.75,4.31c.54.53-2.87,4.67-2.87,4.67"/><path class="cls-6" d="M259.59,254.74s-3.21,1.26-3.48,0S255,250.06,254,250s-3.5-2.27-4.45-2.54-5.25,4.17-5.38,4.85-.27,3.36-1.08,3.9a16.43,16.43,0,0,1-6.33,1.35,24.29,24.29,0,0,0-6.37.54c-1.57.4-4,3-3.32,4.3s2,4.45,1.48,5.52-2.15,1.48-2.83,1.89-1.75,2.56-2.69,2.82-6.73-3.76-6.73-3.76"/><path class="cls-6" d="M272.31,315.72a14.7,14.7,0,0,1,1.17-3.69c.67-1.08.67-5,0-5.92s-.26-3.37-.33-4.18,3-1.88,3.83-2,3.77,2.16,4.44,2.16,2.42.13,3.36-.68,1.38-8.15,1.38-8.15"/><line class="cls-6" x1="279.24" y1="296.79" x2="278.24" y2="300.36"/><path class="cls-6" d="M322.34,310.47s.54,4.9,0,5.25-3-.76-3.9,0-1.62,3.17-2.15,4.12.4,2.56,1.07,2.42,4.39-.52,5.22,0-.1,7.13-.1,7.13"/><path class="cls-6" d="M345.78,334.74a16.49,16.49,0,0,1,3.22-2.52c1.21-.54-.81-2.82,0-3.77s1.88-3,3.1-2.55,2.82,2,4.44,3,1.88,2.69,3.09,2.82,3.64,0,4.72.27-1.08,3.1,0,3.5,2.13,2.46,1.06,5.54"/><path class="cls-6" d="M368,341s-.13-3.23,1.08-3.9,4.71-2.29,5.65-3,1.08-2.7.68-3.64.27-3-1.08-3.09a3.32,3.32,0,0,1-2.52-2.56c-.17-.94-.77-5.12,0-5.93a2.08,2.08,0,0,1,2.92,0c.81.81,1.08,2.56,2.7,2.29a4.6,4.6,0,0,0,3-2.89c0-.47-.54-6.82,0-7.82s3.38-2.73,3.38-2.73"/><path class="cls-6" d="M641.2,364.64l2,1.71c1.21,1,1.61,3.43,2.83,2.83s2.22-3.42,3-4.54a6,6,0,0,0,.6-5.36"/><path class="cls-6" d="M660.18,354.9s-1.41,2.56,0,3,3-2.57,3.64-1.49,2,3.84,0,4.79-1.82,3.36-1,4.78"/><path class="cls-6" d="M340.11,131.9s.27,6.46.81,7.54,3.64,2.69,5.12,3.64,4.84,3,5.38,3.9,3,2.83,3.77,2.83,1.21,3.36,2.83,3.36a51.87,51.87,0,0,0,7-.8c1.08-.27,2.15-3.1,3-3.5s5.79.53,8.35.26,5.92,2.43,7.27,1.75,4.58-3.36,5.79-3.9,3.23-.81,4-1.48,1.34-5.39,2.82-6.19,5.66-1.89,7.54-2.43,6.46-.67,7.27-.13,3.5,4.31,4.58,5,3.9,2.15,5.92,2,4.17.13,5.25-.13,4-4.45,4.58-4.58,6.06-.54,7.54-.68,4.44,1.35,5.25.95,1.34-5,1.75-5.93,3.77-3.23,4.17-4.17-2.29-4-2.15-4.44a14,14,0,0,1,3.9-2.69c.68-.14,4.31-1.22,4.85-2.29s-.81-2.7-1.21-3.5-2-2.56-1.48-3.64,2.94-4.17,2.81-5,2.84.4,3.78,0,2.43-4,3-5.25,2.43-3.37,2.83-4.17-2.15-3.5-2.29-4.71a12.32,12.32,0,0,1,1.35-5.93c.94-1.34,1.48-5.52,1.75-6.33s2.56-1.75,3.9-2.28,1.89,2.69,3.1,2.42,2-2.28,3-2.48,2,.74,3.91,0,3.09,1.67,4,1.67,3-2.29,4.45-2.42,9.82,1.21,10.63,1.48,1.35,2.69,2.16,3.23,3.36,2.69,3.63,3.5,2.42,6.41,2.42,6.41"/><path class="cls-6" d="M458.2,67.84s-1.64,3.89-1.37,4.83a12.47,12.47,0,0,0,1.37,3.63c.65.81.43,4.72,0,5s-3.12,1.62-3.79,1.49-.81-2.56-1.35-3.1.14-4.17,0-5-2.55-3.23-3.09-3.5-1.62,3-1.35,4.12,1,8.94,0,10a15.55,15.55,0,0,1-4.94,2.7c-1.48.53-5.12-4.58-6.33-5.79S436,74,436,74"/><path class="cls-6" d="M434.85,138.7s.37,5.45,0,6.13-3.06.8-3.73,1.21a24.62,24.62,0,0,0-3.63,3c-.54.67.8,2.69,1.48,3.1s0,3.5-.41,4.57-3.36,1.89-4.31,2.29-3.77,4.85-4.17,5.79.27,4.31,0,5.12,0,3.09-.67,3.63-4,.94-5,1.21,1.34,5.12.94,5.39-4.31-.54-5.39,0-4.57,3.23-6.19,3.63-5,1.75-5.92,1.48-6.19-.67-6.87-.8-3.23,3.09-4.44,3.5-5.12,2-5.52,2.55.67,3.77,0,3.91a35.38,35.38,0,0,0-4.58,1.08c-.94.4-2.42,4.44-3.63,4.71s-4.18-.81-5,0,.54,3.09.67,4.31-1.48,2.82-1.62,3.76-.53,4.45,0,5.66,2.43,2,3.37,2.56-.27,3.09-.13,4.57,2.15,3.5,2.15,3.5-.4,2.16-1.08,2.16-2.69-1.08-3,0-5.95,6.67-5.95,6.67"/><path class="cls-6" d="M485.39,216.05s-2.57,1.88-4.06.93-2.28-1.88-3.36-2.15-4.44-.67-5.39-1.48-.53-4.31,0-5.92,2.16-4.45,1.89-5.66-1.67-2.56-2.45-3.63-1.46-4.85-2.8-6.06-5.12-2.29-6.46-3.37-2.83-2-2.83-3.5.81-4.3,0-5.25-2.83-2.15-3.23-3.5,2.83-5.92,2.69-6.86-2.36-2.43-2.73-2.83-2.52,4.17-3.6,4.31,0-2.34,0-4.33,1.62-6.17,1.35-7.79-.4-5.25-2.56-5.79-4,1.48-5.25,2-3.9,2.56-5,1.89a39.8,39.8,0,0,0-6.06-2.56c-1.34-.4-7,2.15-7,2.15"/><path class="cls-6" d="M437.62,240.68s-1.12-3.77-.58-4.71,2.56-.81,3.23-1.75-1.48-4.31,0-5.39,3.77-4,4.85-4.71,2.15.4,3-.67,2.29-3.37,3-4.31-.94-3.64,0-4.44,5.66,0,6.74-.95,2.15-4.57,3-6.19.67-5.11,1.48-6.46,2.29-1.08,3.63-1.75,4.9-4.41,4.9-4.41"/><path class="cls-6" d="M578.4,231.66a15.52,15.52,0,0,0,.94-3,1.86,1.86,0,0,1,1.75-1.75c1.08,0,3.77.67,4.58.67s.4,3.23,1.34,3.23,4-1.48,5.9-1.55,2.77,1,4.56,1.55,1,2.56,1.67,2.56,6.69.53,6.69.53"/><path class="cls-6" d="M547.61,185.24s1,6.56,1.17,8.12-1.88,2.56-2,3.53,1.89,2.06,2.69,2.73a11.69,11.69,0,0,1,2.83,3.36c.54,1.22-.13,5.25,0,5.93s1.75-.27,2.56,0,1.21-2,2.15-2.29,2.7,1.35,4.18,1.48,2-3.1,3.23-2.83,2.42,1.44,3.9,3.89,2.16,5.27,3.77,6.07,5.92,3.37,7.14,3.37,2.28-2,3.63-1.88,4.85.53,5.52.67.27,2.56,1.48,3.23,4,2.15,4.44,2.42.14,3.77-.67,3.91-3.29,2.92-3.29,2.92"/><path class="cls-6" d="M581.82,161.1s-1.4-1.73-1.13-2.54,2.15-1.35,2.15-2.29-4-3.37-3.5-4.58a7.25,7.25,0,0,1,3.5-3.09c1.48-.68,4.71,2,6.73,1.48s8.35,0,9.43-.41,5.65-2.42,5.65-2.42"/><path class="cls-6" d="M621.62,148.94a42,42,0,0,1,0,4.23c-.14.68,1.66.66,2.78,1s2.6-.35,3,0-.54,3.71,0,4.24,2.16,5.41,2.16,5.41"/><path class="cls-7" d="M283.08,281.5c-2.53-1.18-5.13-2.21-7.78-3.19a6.93,6.93,0,0,0,3.66,9.35l.79,4.88c.44-1.71.86-3.43,1.4-5.15C281.83,285.43,282.46,283.47,283.08,281.5Z"/><path class="cls-8" d="M283.08,281.5c-.62,2-1.25,3.93-1.93,5.89-.54,1.72-1,3.44-1.4,5.15l.88,5.51a1,1,0,0,0,1,.82,1,1,0,0,0,1-.82l1.68-10.39a7,7,0,0,0,3.71-3.61C286.36,283.12,284.74,282.28,283.08,281.5Z"/><path class="cls-8" d="M281.59,274.3a7,7,0,0,0-6.29,4c2.65,1,5.25,2,7.78,3.19q1-3.15,1.92-6.3A6.88,6.88,0,0,0,281.59,274.3Z"/><path class="cls-9" d="M288.53,281.24a6.93,6.93,0,0,0-3.53-6q-.94,3.15-1.92,6.3c1.66.78,3.28,1.62,4.86,2.55A6.93,6.93,0,0,0,288.53,281.24Z"/><path class="cls-10" d="M285.54,279.91a3.76,3.76,0,0,0-6.73,2.3,3.61,3.61,0,0,0,.33,1.54,3.75,3.75,0,0,0,3.43,2.22h0a3.76,3.76,0,0,0,3-6.06Z"/><path class="cls-11" d="M279.89,277.89a3.76,3.76,0,0,0-1.73,4.89c.8-.44,1.59-.9,2.37-1.36C280.27,280.25,280.06,279.06,279.89,277.89Z"/><path class="cls-12" d="M278.16,282.78a3.77,3.77,0,0,0,3.43,2.22h0a22.74,22.74,0,0,1-1.07-3.58C279.75,281.88,279,282.34,278.16,282.78Z"/><path class="cls-11" d="M280.53,281.42A22.74,22.74,0,0,0,281.6,285a3.76,3.76,0,0,0,3-6.07C283.23,279.79,281.89,280.62,280.53,281.42Z"/><path class="cls-12" d="M281.59,277.48a3.74,3.74,0,0,0-1.7.41c.17,1.17.38,2.36.64,3.53,1.36-.8,2.7-1.63,4-2.49A3.78,3.78,0,0,0,281.59,277.48Z"/><path class="cls-13" d="M407,314.42c-1.45-.89-2.84-1.77-4.25-2.63q-.19,3.51-.22,7a32.4,32.4,0,0,0,3.25-1.22Z"/><path class="cls-14" d="M402.54,318.79c0,1.36,0,2.72,0,4.08a.66.66,0,0,0,.59.36.65.65,0,0,0,.62-.43l2-5.23A32.4,32.4,0,0,1,402.54,318.79Z"/><path class="cls-14" d="M402.76,311.79c-1.39-.84-2.8-1.66-4.29-2.42v2.85a.64.64,0,0,0,0,.24l2.61,6.75q.72-.19,1.41-.42Q402.57,315.29,402.76,311.79Z"/><path class="cls-15" d="M402.54,318.79q-.69.22-1.41.42l1.39,3.59,0,.07C402.54,321.51,402.53,320.15,402.54,318.79Z"/><path class="cls-15" d="M403,306.37h-3.21a1.34,1.34,0,0,0-1.34,1.33v1.67c1.49.76,2.9,1.58,4.29,2.42q.09-1.49.21-3A14.39,14.39,0,0,0,403,306.37Z"/><path class="cls-14" d="M406.48,306.37H403a14.39,14.39,0,0,1,0,2.45q-.12,1.49-.21,3c1.41.86,2.8,1.74,4.25,2.63l.76-2a.64.64,0,0,0,0-.24V307.7A1.34,1.34,0,0,0,406.48,306.37Z"/><path class="cls-16" d="M405.92,309.41a.3.3,0,0,0-.26-.15H402a.29.29,0,0,0-.3.3v3.7a.29.29,0,0,0,.3.3h3.7a.29.29,0,0,0,.3-.3v-3.7A.28.28,0,0,0,405.92,309.41Z"/><path class="cls-17" d="M404.11,309.82c-1.08.81-2.12,1.6-3.12,2.41v.36a.31.31,0,0,0,.31.31H405a.31.31,0,0,0,.31-.31V308.9a.3.3,0,0,0-.05-.16C404.9,309.11,404.52,309.45,404.11,309.82Z"/><path class="cls-18" d="M405.25,308.74a.3.3,0,0,0-.26-.15H401.3a.31.31,0,0,0-.31.31v3.33c1-.81,2-1.6,3.12-2.41C404.52,309.45,404.9,309.11,405.25,308.74Z"/><path class="cls-13" d="M357.91,326.86c-1.45-.88-2.84-1.77-4.25-2.62q-.2,3.51-.22,7c1.11-.36,2.19-.77,3.25-1.22Z"/><path class="cls-14" d="M353.44,331.24c0,1.36,0,2.72,0,4.08a.66.66,0,0,0,1.21-.07l2-5.23C355.63,330.47,354.55,330.88,353.44,331.24Z"/><path class="cls-14" d="M353.66,324.24c-1.39-.85-2.8-1.66-4.29-2.42v2.85a.69.69,0,0,0,.05.24l2.61,6.75q.72-.2,1.41-.42Q353.47,327.75,353.66,324.24Z"/><path class="cls-15" d="M353.44,331.24q-.69.22-1.41.42l1.39,3.59,0,.07C353.44,334,353.43,332.6,353.44,331.24Z"/><path class="cls-15" d="M353.92,318.81h-3.21a1.34,1.34,0,0,0-1.34,1.34v1.67c1.49.76,2.9,1.57,4.29,2.42.06-1,.13-2,.21-3A14.35,14.35,0,0,0,353.92,318.81Z"/><path class="cls-14" d="M357.38,318.81h-3.46a14.35,14.35,0,0,1-.05,2.45c-.08,1-.15,2-.21,3,1.41.85,2.8,1.74,4.25,2.62l.76-1.95a.67.67,0,0,0,0-.24v-4.52A1.34,1.34,0,0,0,357.38,318.81Z"/><path class="cls-16" d="M356.82,321.86a.29.29,0,0,0-.26-.16h-3.7a.3.3,0,0,0-.3.31v3.69a.3.3,0,0,0,.3.31h3.7a.3.3,0,0,0,.3-.31V322A.24.24,0,0,0,356.82,321.86Z"/><path class="cls-17" d="M355,322.27c-1.08.81-2.12,1.59-3.12,2.41V325a.31.31,0,0,0,.31.31h3.69a.31.31,0,0,0,.31-.31v-3.69a.27.27,0,0,0-.05-.15C355.8,321.56,355.42,321.9,355,322.27Z"/><path class="cls-18" d="M356.15,321.19a.31.31,0,0,0-.26-.16H352.2a.31.31,0,0,0-.31.31v3.34c1-.82,2-1.6,3.12-2.41C355.42,321.9,355.8,321.56,356.15,321.19Z"/><path class="cls-13" d="M349.75,307.18c-1.44-.89-2.84-1.77-4.24-2.62-.14,2.34-.2,4.67-.22,7,1.11-.36,2.18-.77,3.24-1.23Z"/><path class="cls-14" d="M345.29,311.56c0,1.36,0,2.72,0,4.07a.67.67,0,0,0,.6.36.66.66,0,0,0,.62-.42l2-5.24C347.47,310.79,346.4,311.2,345.29,311.56Z"/><path class="cls-14" d="M345.51,304.56c-1.4-.85-2.81-1.66-4.29-2.42V305a.67.67,0,0,0,0,.24l2.61,6.75c.48-.13.95-.27,1.42-.42C345.31,309.23,345.37,306.9,345.51,304.56Z"/><path class="cls-15" d="M345.29,311.56c-.47.15-.94.29-1.42.42l1.39,3.59,0,.06C345.28,314.28,345.28,312.92,345.29,311.56Z"/><path class="cls-15" d="M345.76,299.13h-3.21a1.33,1.33,0,0,0-1.33,1.34v1.67c1.48.76,2.89,1.57,4.29,2.42.05-1,.12-2,.21-3A15.44,15.44,0,0,0,345.76,299.13Z"/><path class="cls-14" d="M349.22,299.13h-3.46a15.44,15.44,0,0,1,0,2.45c-.09,1-.16,2-.21,3,1.4.85,2.8,1.73,4.24,2.62l.76-1.95a.67.67,0,0,0,0-.24v-4.52A1.33,1.33,0,0,0,349.22,299.13Z"/><path class="cls-16" d="M348.66,302.18a.29.29,0,0,0-.26-.16h-3.69a.31.31,0,0,0-.31.31V306a.31.31,0,0,0,.31.31h3.69a.31.31,0,0,0,.31-.31v-3.69A.25.25,0,0,0,348.66,302.18Z"/><path class="cls-17" d="M346.85,302.58c-1.08.81-2.12,1.6-3.12,2.42v.35a.31.31,0,0,0,.31.31h3.69a.31.31,0,0,0,.31-.31v-3.69a.33.33,0,0,0,0-.15C347.65,301.88,347.26,302.22,346.85,302.58Z"/><path class="cls-18" d="M348,301.51a.32.32,0,0,0-.27-.16H344a.31.31,0,0,0-.31.31V305c1-.82,2-1.61,3.12-2.42C347.26,302.22,347.65,301.88,348,301.51Z"/><path class="cls-13" d="M294.75,305.85c-1.44-.89-2.84-1.77-4.24-2.62-.14,2.34-.2,4.67-.22,7,1.11-.36,2.18-.77,3.24-1.23Z"/><path class="cls-14" d="M290.29,310.23c0,1.36,0,2.72,0,4.08a.69.69,0,0,0,.59.36.67.67,0,0,0,.63-.43l2-5.24C292.47,309.46,291.4,309.87,290.29,310.23Z"/><path class="cls-14" d="M290.51,303.23c-1.4-.85-2.81-1.66-4.3-2.42v2.85a.69.69,0,0,0,.05.24l2.61,6.75c.48-.13.95-.27,1.42-.42C290.31,307.9,290.37,305.57,290.51,303.23Z"/><path class="cls-15" d="M290.29,310.23c-.47.15-.94.29-1.42.42l1.39,3.59,0,.07C290.28,313,290.27,311.59,290.29,310.23Z"/><path class="cls-15" d="M290.76,297.8h-3.21a1.34,1.34,0,0,0-1.34,1.34v1.67c1.49.76,2.9,1.57,4.3,2.42.05-1,.12-2,.2-3A14.35,14.35,0,0,0,290.76,297.8Z"/><path class="cls-14" d="M294.22,297.8h-3.46a14.35,14.35,0,0,1-.05,2.45c-.08,1-.15,2-.2,3,1.4.85,2.8,1.73,4.24,2.62l.76-2a.67.67,0,0,0,0-.24v-4.52A1.33,1.33,0,0,0,294.22,297.8Z"/><path class="cls-16" d="M293.66,300.85a.29.29,0,0,0-.26-.16h-3.69a.31.31,0,0,0-.31.31v3.69a.31.31,0,0,0,.31.31h3.69a.31.31,0,0,0,.31-.31V301A.25.25,0,0,0,293.66,300.85Z"/><path class="cls-17" d="M291.85,301.26c-1.08.8-2.12,1.59-3.12,2.41V304a.31.31,0,0,0,.31.31h3.69A.31.31,0,0,0,293,304v-3.69a.37.37,0,0,0,0-.15C292.64,300.55,292.26,300.89,291.85,301.26Z"/><path class="cls-18" d="M293,300.18a.34.34,0,0,0-.27-.16H289a.31.31,0,0,0-.31.31v3.34c1-.82,2-1.61,3.12-2.41C292.26,300.89,292.64,300.55,293,300.18Z"/><path class="cls-13" d="M130,111.05c-1.45-.89-2.84-1.78-4.25-2.63q-.19,3.51-.22,7c1.11-.35,2.19-.77,3.25-1.22Z"/><path class="cls-14" d="M125.52,115.42c0,1.36,0,2.72,0,4.08a.66.66,0,0,0,1.21-.07l2-5.23C127.71,114.65,126.63,115.07,125.52,115.42Z"/><path class="cls-14" d="M125.74,108.42c-1.39-.84-2.8-1.66-4.29-2.42v2.85a.69.69,0,0,0,0,.24l2.61,6.75q.72-.2,1.41-.42Q125.55,111.93,125.74,108.42Z"/><path class="cls-15" d="M125.52,115.42q-.69.22-1.41.42l1.39,3.59,0,.07C125.51,118.14,125.51,116.78,125.52,115.42Z"/><path class="cls-15" d="M126,103h-3.21a1.33,1.33,0,0,0-1.34,1.33V106c1.49.76,2.9,1.58,4.29,2.42q.09-1.48.21-3A14.39,14.39,0,0,0,126,103Z"/><path class="cls-14" d="M129.46,103H126a14.39,14.39,0,0,1,0,2.45q-.12,1.48-.21,3c1.41.85,2.8,1.74,4.25,2.63l.76-2a.67.67,0,0,0,0-.24v-4.52A1.33,1.33,0,0,0,129.46,103Z"/><path class="cls-16" d="M128.9,106a.31.31,0,0,0-.27-.16h-3.69a.31.31,0,0,0-.31.31v3.69a.31.31,0,0,0,.31.31h3.69a.31.31,0,0,0,.31-.31v-3.69A.26.26,0,0,0,128.9,106Z"/><path class="cls-17" d="M127.09,106.45c-1.08.81-2.12,1.6-3.12,2.41v.36a.29.29,0,0,0,.3.3H128a.29.29,0,0,0,.3-.3v-3.7a.28.28,0,0,0,0-.15C127.88,105.74,127.5,106.08,127.09,106.45Z"/><path class="cls-18" d="M128.23,105.37a.3.3,0,0,0-.26-.15h-3.7a.29.29,0,0,0-.3.3v3.34c1-.81,2-1.6,3.12-2.41C127.5,106.08,127.88,105.74,128.23,105.37Z"/><path class="cls-13" d="M152.17,182.94c-1.44-.89-2.84-1.77-4.25-2.63q-.19,3.51-.22,7c1.12-.36,2.19-.77,3.25-1.23Z"/><path class="cls-14" d="M147.7,187.32c0,1.36,0,2.71,0,4.07a.67.67,0,0,0,1.22-.07l2-5.23C149.89,186.55,148.82,187,147.7,187.32Z"/><path class="cls-14" d="M147.92,180.31c-1.39-.84-2.8-1.66-4.29-2.42v2.85a.6.6,0,0,0,.05.24l2.61,6.75,1.41-.41Q147.73,183.83,147.92,180.31Z"/><path class="cls-15" d="M147.7,187.32l-1.41.41,1.39,3.59,0,.07C147.7,190,147.69,188.68,147.7,187.32Z"/><path class="cls-15" d="M148.18,174.89H145a1.34,1.34,0,0,0-1.34,1.33v1.67c1.49.76,2.9,1.58,4.29,2.42q.09-1.49.21-3A14.37,14.37,0,0,0,148.18,174.89Z"/><path class="cls-14" d="M151.64,174.89h-3.46a14.37,14.37,0,0,1-.05,2.45q-.12,1.49-.21,3c1.41.86,2.81,1.74,4.25,2.63l.76-2a.61.61,0,0,0,0-.24v-4.52A1.34,1.34,0,0,0,151.64,174.89Z"/><path class="cls-16" d="M151.08,177.93a.3.3,0,0,0-.26-.15h-3.7a.29.29,0,0,0-.3.3v3.7a.29.29,0,0,0,.3.3h3.7a.29.29,0,0,0,.3-.3v-3.7A.28.28,0,0,0,151.08,177.93Z"/><path class="cls-17" d="M149.27,178.34c-1.08.81-2.12,1.6-3.12,2.42v.35a.31.31,0,0,0,.31.31h3.69a.31.31,0,0,0,.31-.31v-3.69a.42.42,0,0,0,0-.16C150.06,177.64,149.68,178,149.27,178.34Z"/><path class="cls-18" d="M150.42,177.26a.33.33,0,0,0-.27-.15h-3.69a.31.31,0,0,0-.31.31v3.34c1-.82,2-1.61,3.12-2.42C149.68,178,150.06,177.64,150.42,177.26Z"/><path class="cls-13" d="M245.85,270.2c-1.45-.89-2.84-1.77-4.25-2.62q-.19,3.51-.22,7c1.11-.36,2.19-.77,3.25-1.23Z"/><path class="cls-14" d="M241.38,274.58c0,1.36,0,2.72,0,4.08a.67.67,0,0,0,.59.35.65.65,0,0,0,.62-.42l2-5.24C243.57,273.81,242.49,274.22,241.38,274.58Z"/><path class="cls-14" d="M241.6,267.58c-1.39-.85-2.8-1.66-4.29-2.42V268a.69.69,0,0,0,.05.24L240,275q.72-.19,1.41-.42Q241.41,271.09,241.6,267.58Z"/><path class="cls-15" d="M241.38,274.58q-.69.23-1.41.42l1.39,3.59,0,.07C241.37,277.3,241.37,275.94,241.38,274.58Z"/><path class="cls-15" d="M241.86,262.15h-3.21a1.34,1.34,0,0,0-1.34,1.34v1.67c1.49.76,2.9,1.57,4.29,2.42.06-1,.13-2,.21-3A14.35,14.35,0,0,0,241.86,262.15Z"/><path class="cls-14" d="M245.32,262.15h-3.46a14.35,14.35,0,0,1-.05,2.45c-.08,1-.15,2-.21,3,1.41.85,2.8,1.73,4.25,2.62l.76-1.95a.67.67,0,0,0,0-.24v-4.52A1.34,1.34,0,0,0,245.32,262.15Z"/><path class="cls-16" d="M244.76,265.2a.29.29,0,0,0-.27-.16H240.8a.31.31,0,0,0-.31.31V269a.31.31,0,0,0,.31.31h3.69a.31.31,0,0,0,.31-.31v-3.69A.24.24,0,0,0,244.76,265.2Z"/><path class="cls-17" d="M243,265.6c-1.08.81-2.12,1.6-3.12,2.42v.35a.3.3,0,0,0,.3.31h3.7a.3.3,0,0,0,.3-.31v-3.69a.24.24,0,0,0,0-.15C243.74,264.9,243.36,265.24,243,265.6Z"/><path class="cls-18" d="M244.09,264.53a.31.31,0,0,0-.26-.16h-3.7a.3.3,0,0,0-.3.31V268c1-.82,2-1.61,3.12-2.42C243.36,265.24,243.74,264.9,244.09,264.53Z"/><path class="cls-13" d="M233.81,221.94c-1.45-.89-2.84-1.78-4.25-2.63q-.19,3.51-.22,7c1.11-.36,2.19-.77,3.25-1.22Z"/><path class="cls-14" d="M229.34,226.31c0,1.36,0,2.72,0,4.08a.66.66,0,0,0,1.21-.07l2-5.23C231.53,225.54,230.45,226,229.34,226.31Z"/><path class="cls-14" d="M229.56,219.31c-1.39-.84-2.8-1.66-4.29-2.42v2.85a.69.69,0,0,0,0,.24l2.61,6.75q.72-.19,1.41-.42Q229.37,222.82,229.56,219.31Z"/><path class="cls-15" d="M229.34,226.31q-.69.23-1.41.42l1.39,3.59,0,.07C229.34,229,229.33,227.67,229.34,226.31Z"/><path class="cls-15" d="M229.82,213.88h-3.21a1.34,1.34,0,0,0-1.34,1.34v1.67c1.49.76,2.9,1.58,4.29,2.42q.09-1.49.21-3A14.48,14.48,0,0,0,229.82,213.88Z"/><path class="cls-14" d="M233.28,213.88h-3.46a14.48,14.48,0,0,1,0,2.46q-.12,1.49-.21,3c1.41.85,2.8,1.74,4.25,2.63l.76-2a.67.67,0,0,0,0-.24v-4.52A1.34,1.34,0,0,0,233.28,213.88Z"/><path class="cls-16" d="M232.72,216.93a.31.31,0,0,0-.26-.16h-3.7a.3.3,0,0,0-.3.31v3.69a.3.3,0,0,0,.3.31h3.7a.3.3,0,0,0,.3-.31v-3.69A.24.24,0,0,0,232.72,216.93Z"/><path class="cls-17" d="M230.91,217.34c-1.08.81-2.12,1.59-3.12,2.41v.36a.3.3,0,0,0,.31.3h3.69a.3.3,0,0,0,.31-.3v-3.7a.3.3,0,0,0,0-.15C231.7,216.63,231.32,217,230.91,217.34Z"/><path class="cls-18" d="M232.05,216.26a.3.3,0,0,0-.26-.15H228.1a.3.3,0,0,0-.31.3v3.34c1-.82,2-1.6,3.12-2.41C231.32,217,231.7,216.63,232.05,216.26Z"/><path class="cls-13" d="M184.59,154.13c-1.45-.89-2.84-1.78-4.25-2.63-.14,2.34-.2,4.67-.22,7,1.11-.36,2.18-.77,3.25-1.22Z"/><path class="cls-14" d="M180.12,158.5c0,1.36,0,2.72,0,4.08a.66.66,0,0,0,.59.36.67.67,0,0,0,.62-.43l2-5.23C182.3,157.73,181.23,158.14,180.12,158.5Z"/><path class="cls-14" d="M180.34,151.5c-1.39-.85-2.8-1.66-4.29-2.42v2.85a.67.67,0,0,0,0,.24l2.62,6.75c.47-.13.95-.27,1.41-.42C180.14,156.17,180.2,153.84,180.34,151.5Z"/><path class="cls-15" d="M180.12,158.5c-.46.15-.94.29-1.41.42l1.39,3.59a.13.13,0,0,0,0,.07C180.11,161.22,180.11,159.86,180.12,158.5Z"/><path class="cls-15" d="M180.6,146.07h-3.22a1.34,1.34,0,0,0-1.33,1.34v1.67c1.49.76,2.9,1.57,4.29,2.42.06-1,.12-2,.21-3A14.48,14.48,0,0,0,180.6,146.07Z"/><path class="cls-14" d="M184.05,146.07H180.6a14.48,14.48,0,0,1,0,2.46c-.09,1-.15,2-.21,3,1.41.85,2.8,1.74,4.25,2.63l.75-2a.69.69,0,0,0,0-.24v-4.52A1.34,1.34,0,0,0,184.05,146.07Z"/><path class="cls-16" d="M183.5,149.12a.3.3,0,0,0-.27-.16h-3.69a.31.31,0,0,0-.31.31V153a.31.31,0,0,0,.31.31h3.69a.31.31,0,0,0,.31-.31v-3.69A.33.33,0,0,0,183.5,149.12Z"/><path class="cls-17" d="M181.68,149.53c-1.08.81-2.11,1.59-3.12,2.41v.35a.31.31,0,0,0,.31.31h3.69a.31.31,0,0,0,.31-.31V148.6a.26.26,0,0,0,0-.15C182.48,148.82,182.1,149.16,181.68,149.53Z"/><path class="cls-18" d="M182.83,148.45a.31.31,0,0,0-.27-.16h-3.69a.31.31,0,0,0-.31.31v3.34c1-.82,2-1.6,3.12-2.41C182.1,149.16,182.48,148.82,182.83,148.45Z"/><path class="cls-13" d="M239,163.66c-1.45-.89-2.84-1.78-4.25-2.63q-.19,3.51-.22,7c1.11-.36,2.19-.77,3.25-1.22Z"/><path class="cls-14" d="M234.53,168c0,1.36,0,2.72,0,4.08a.66.66,0,0,0,.59.36.67.67,0,0,0,.62-.43l2-5.23C236.72,167.26,235.64,167.67,234.53,168Z"/><path class="cls-14" d="M234.75,161c-1.39-.84-2.8-1.66-4.29-2.42v2.85a.67.67,0,0,0,0,.24l2.62,6.75q.72-.19,1.41-.42Q234.56,164.53,234.75,161Z"/><path class="cls-15" d="M234.53,168q-.69.22-1.41.42l1.39,3.59,0,.07C234.52,170.75,234.52,169.39,234.53,168Z"/><path class="cls-15" d="M235,155.61h-3.22a1.33,1.33,0,0,0-1.33,1.33v1.67c1.49.76,2.9,1.58,4.29,2.42q.09-1.49.21-3A14.39,14.39,0,0,0,235,155.61Z"/><path class="cls-14" d="M238.46,155.61H235a14.39,14.39,0,0,1,0,2.45q-.12,1.49-.21,3c1.41.85,2.8,1.74,4.25,2.63l.75-2a.69.69,0,0,0,.05-.24v-4.52A1.33,1.33,0,0,0,238.46,155.61Z"/><path class="cls-16" d="M237.91,158.65a.31.31,0,0,0-.27-.16H234a.31.31,0,0,0-.31.31v3.69a.31.31,0,0,0,.31.31h3.69a.31.31,0,0,0,.31-.31V158.8A.37.37,0,0,0,237.91,158.65Z"/><path class="cls-17" d="M236.09,159.06c-1.08.81-2.11,1.6-3.11,2.41v.36a.29.29,0,0,0,.3.3H237a.29.29,0,0,0,.3-.3v-3.7a.28.28,0,0,0,0-.15C236.89,158.35,236.51,158.69,236.09,159.06Z"/><path class="cls-18" d="M237.24,158a.3.3,0,0,0-.26-.15h-3.7a.29.29,0,0,0-.3.3v3.34c1-.81,2-1.6,3.11-2.41C236.51,158.69,236.89,158.35,237.24,158Z"/><path class="cls-13" d="M306.62,220.42c-1.45-.89-2.84-1.78-4.25-2.63q-.19,3.51-.22,7c1.11-.35,2.19-.77,3.25-1.22Z"/><path class="cls-14" d="M302.15,224.79c0,1.36,0,2.72,0,4.08a.66.66,0,0,0,1.21-.07l2-5.23C304.34,224,303.26,224.44,302.15,224.79Z"/><path class="cls-14" d="M302.37,217.79c-1.39-.84-2.8-1.66-4.29-2.42v2.85a.69.69,0,0,0,.05.24l2.61,6.75q.72-.19,1.41-.42Q302.18,221.3,302.37,217.79Z"/><path class="cls-15" d="M302.15,224.79q-.69.22-1.41.42l1.39,3.59,0,.07C302.15,227.51,302.14,226.15,302.15,224.79Z"/><path class="cls-15" d="M302.63,212.37h-3.21a1.33,1.33,0,0,0-1.34,1.33v1.67c1.49.76,2.9,1.58,4.29,2.42q.09-1.48.21-3A14.39,14.39,0,0,0,302.63,212.37Z"/><path class="cls-14" d="M306.09,212.37h-3.46a14.39,14.39,0,0,1-.05,2.45q-.12,1.49-.21,3c1.41.85,2.8,1.74,4.25,2.63l.76-2a.67.67,0,0,0,0-.24V213.7A1.33,1.33,0,0,0,306.09,212.37Z"/><path class="cls-16" d="M305.53,215.41a.31.31,0,0,0-.26-.16h-3.7a.3.3,0,0,0-.3.31v3.69a.3.3,0,0,0,.3.31h3.7a.3.3,0,0,0,.3-.31v-3.69A.26.26,0,0,0,305.53,215.41Z"/><path class="cls-17" d="M303.72,215.82c-1.08.81-2.12,1.6-3.12,2.41v.36a.3.3,0,0,0,.31.3h3.69a.3.3,0,0,0,.31-.3v-3.7a.3.3,0,0,0-.05-.15C304.51,215.11,304.13,215.45,303.72,215.82Z"/><path class="cls-18" d="M304.86,214.74a.3.3,0,0,0-.26-.15h-3.69a.3.3,0,0,0-.31.3v3.34c1-.81,2-1.6,3.12-2.41C304.13,215.45,304.51,215.11,304.86,214.74Z"/><path class="cls-13" d="M272.54,209.86c-1.44-.89-2.83-1.77-4.24-2.62-.14,2.34-.2,4.67-.22,7,1.11-.36,2.18-.77,3.24-1.22Z"/><path class="cls-14" d="M268.08,214.24c0,1.36,0,2.72,0,4.08a.68.68,0,0,0,.59.36.67.67,0,0,0,.62-.43l2-5.23C270.26,213.47,269.19,213.88,268.08,214.24Z"/><path class="cls-14" d="M268.3,207.24c-1.4-.85-2.8-1.66-4.29-2.42v2.85a.67.67,0,0,0,0,.24l2.61,6.75c.48-.13.95-.27,1.42-.42C268.1,211.91,268.16,209.58,268.3,207.24Z"/><path class="cls-15" d="M268.08,214.24c-.47.15-.94.29-1.42.42l1.39,3.59,0,.07C268.07,217,268.07,215.6,268.08,214.24Z"/><path class="cls-15" d="M268.56,201.81h-3.22a1.34,1.34,0,0,0-1.33,1.34v1.67c1.49.76,2.89,1.57,4.29,2.42.05-1,.12-2,.21-3A15.45,15.45,0,0,0,268.56,201.81Z"/><path class="cls-14" d="M272,201.81h-3.45a15.45,15.45,0,0,1-.05,2.45c-.09,1-.16,2-.21,3,1.41.85,2.8,1.73,4.24,2.62l.76-2a.69.69,0,0,0,.05-.24v-4.52A1.34,1.34,0,0,0,272,201.81Z"/><path class="cls-16" d="M271.46,204.86a.32.32,0,0,0-.27-.16H267.5a.31.31,0,0,0-.31.31v3.69a.31.31,0,0,0,.31.31h3.69a.31.31,0,0,0,.31-.31V205A.33.33,0,0,0,271.46,204.86Z"/><path class="cls-17" d="M269.64,205.27c-1.08.81-2.11,1.59-3.12,2.41V208a.31.31,0,0,0,.31.31h3.69a.31.31,0,0,0,.31-.31v-3.69a.37.37,0,0,0,0-.15C270.44,204.56,270.06,204.9,269.64,205.27Z"/><path class="cls-18" d="M270.79,204.19a.31.31,0,0,0-.27-.16h-3.69a.31.31,0,0,0-.31.31v3.34c1-.82,2-1.6,3.12-2.41C270.06,204.9,270.44,204.56,270.79,204.19Z"/><path class="cls-13" d="M414.14,198.17c-1.44-.89-2.83-1.78-4.24-2.63-.14,2.34-.2,4.67-.22,7,1.11-.35,2.18-.77,3.24-1.22Z"/><path class="cls-14" d="M409.68,202.54q0,2,0,4.08a.69.69,0,0,0,.6.36.67.67,0,0,0,.62-.43l2-5.23C411.86,201.77,410.79,202.19,409.68,202.54Z"/><path class="cls-14" d="M409.9,195.54c-1.4-.84-2.8-1.66-4.29-2.42V196a.67.67,0,0,0,0,.24l2.61,6.75c.48-.13.95-.27,1.42-.42C409.7,200.21,409.76,197.88,409.9,195.54Z"/><path class="cls-15" d="M409.68,202.54c-.47.15-.94.29-1.42.42l1.39,3.59,0,.07Q409.67,204.58,409.68,202.54Z"/><path class="cls-15" d="M410.16,190.12h-3.22a1.33,1.33,0,0,0-1.33,1.33v1.67c1.49.76,2.89,1.58,4.29,2.42q.08-1.48.21-3A16.79,16.79,0,0,0,410.16,190.12Z"/><path class="cls-14" d="M413.61,190.12h-3.45a16.79,16.79,0,0,1-.05,2.45q-.14,1.49-.21,3c1.41.85,2.8,1.74,4.24,2.63l.76-2A.69.69,0,0,0,415,196v-4.52A1.33,1.33,0,0,0,413.61,190.12Z"/><path class="cls-16" d="M413.06,193.16a.34.34,0,0,0-.27-.16H409.1a.31.31,0,0,0-.31.31V197a.31.31,0,0,0,.31.31h3.69a.31.31,0,0,0,.31-.31v-3.69A.37.37,0,0,0,413.06,193.16Z"/><path class="cls-17" d="M411.24,193.57c-1.08.81-2.11,1.6-3.12,2.41v.36a.3.3,0,0,0,.31.3h3.69a.3.3,0,0,0,.31-.3v-3.7a.42.42,0,0,0,0-.15C412,192.86,411.66,193.2,411.24,193.57Z"/><path class="cls-18" d="M412.39,192.49a.3.3,0,0,0-.27-.15h-3.69a.3.3,0,0,0-.31.3V196c1-.81,2-1.6,3.12-2.41C411.66,193.2,412,192.86,412.39,192.49Z"/><path class="cls-13" d="M458.56,231.45c-1.45-.89-2.84-1.77-4.25-2.63q-.19,3.51-.22,7c1.11-.36,2.19-.77,3.25-1.23Z"/><path class="cls-14" d="M454.09,235.83c0,1.36,0,2.71,0,4.07a.66.66,0,0,0,.59.36.68.68,0,0,0,.62-.42l2-5.24C456.28,235.06,455.2,235.47,454.09,235.83Z"/><path class="cls-14" d="M454.31,228.82c-1.39-.84-2.8-1.65-4.29-2.42v2.85a.61.61,0,0,0,0,.24l2.62,6.75,1.41-.41Q454.12,232.33,454.31,228.82Z"/><path class="cls-15" d="M454.09,235.83l-1.41.41,1.39,3.6,0,.06C454.08,238.54,454.08,237.19,454.09,235.83Z"/><path class="cls-15" d="M454.57,223.4h-3.22a1.34,1.34,0,0,0-1.33,1.33v1.67c1.49.77,2.9,1.58,4.29,2.42q.09-1.48.21-3A14.35,14.35,0,0,0,454.57,223.4Z"/><path class="cls-14" d="M458,223.4h-3.45a14.35,14.35,0,0,1-.05,2.45q-.12,1.49-.21,3c1.41.86,2.8,1.74,4.25,2.63l.75-2a.6.6,0,0,0,.05-.24v-4.52A1.34,1.34,0,0,0,458,223.4Z"/><path class="cls-16" d="M457.47,226.44a.3.3,0,0,0-.27-.15h-3.69a.31.31,0,0,0-.31.31v3.69a.31.31,0,0,0,.31.31h3.69a.31.31,0,0,0,.31-.31V226.6A.42.42,0,0,0,457.47,226.44Z"/><path class="cls-17" d="M455.65,226.85c-1.08.81-2.11,1.6-3.11,2.42v.35a.3.3,0,0,0,.3.31h3.7a.3.3,0,0,0,.3-.31v-3.69a.24.24,0,0,0,0-.15C456.45,226.15,456.07,226.48,455.65,226.85Z"/><path class="cls-18" d="M456.8,225.78a.29.29,0,0,0-.26-.16h-3.7a.3.3,0,0,0-.3.31v3.34c1-.82,2-1.61,3.11-2.42C456.07,226.48,456.45,226.15,456.8,225.78Z"/><path class="cls-13" d="M343.73,161.85c-1.44-.89-2.84-1.77-4.25-2.62-.13,2.33-.19,4.67-.21,7,1.11-.36,2.18-.77,3.24-1.23Z"/><path class="cls-14" d="M339.27,166.23c0,1.36,0,2.71,0,4.07a.67.67,0,0,0,.59.36.68.68,0,0,0,.63-.42l2-5.24C341.45,165.46,340.38,165.87,339.27,166.23Z"/><path class="cls-14" d="M339.48,159.23c-1.39-.85-2.8-1.66-4.29-2.43v2.85a.6.6,0,0,0,.05.24l2.61,6.76c.48-.14.95-.27,1.42-.42C339.29,163.9,339.35,161.56,339.48,159.23Z"/><path class="cls-15" d="M339.27,166.23c-.47.15-.94.28-1.42.42l1.39,3.59,0,.06C339.26,168.94,339.25,167.59,339.27,166.23Z"/><path class="cls-15" d="M339.74,153.8h-3.21a1.34,1.34,0,0,0-1.34,1.33v1.67c1.49.77,2.9,1.58,4.29,2.43.06-1,.13-2,.21-3A14.35,14.35,0,0,0,339.74,153.8Z"/><path class="cls-14" d="M343.2,153.8h-3.46a14.35,14.35,0,0,1-.05,2.45c-.08,1-.15,2-.21,3,1.41.85,2.81,1.73,4.25,2.62l.76-2a.61.61,0,0,0,0-.24v-4.52A1.34,1.34,0,0,0,343.2,153.8Z"/><path class="cls-16" d="M342.64,156.84a.3.3,0,0,0-.26-.15h-3.69a.31.31,0,0,0-.31.31v3.69a.31.31,0,0,0,.31.31h3.69a.31.31,0,0,0,.31-.31V157A.3.3,0,0,0,342.64,156.84Z"/><path class="cls-17" d="M340.83,157.25c-1.08.81-2.12,1.6-3.12,2.42V160a.31.31,0,0,0,.31.31h3.69A.31.31,0,0,0,342,160v-3.69a.33.33,0,0,0,0-.15C341.62,156.55,341.24,156.88,340.83,157.25Z"/><path class="cls-18" d="M342,156.18a.32.32,0,0,0-.27-.16H338a.31.31,0,0,0-.31.31v3.34c1-.82,2-1.61,3.12-2.42C341.24,156.88,341.62,156.55,342,156.18Z"/><path class="cls-13" d="M504.26,145.77,500,143.14c-.14,2.34-.2,4.68-.22,7a33.16,33.16,0,0,0,3.24-1.22Z"/><path class="cls-14" d="M499.8,150.14q0,2,0,4.08a.67.67,0,0,0,1.22-.07l2-5.23A33.16,33.16,0,0,1,499.8,150.14Z"/><path class="cls-14" d="M500,143.14c-1.4-.84-2.81-1.66-4.29-2.42v2.85a.64.64,0,0,0,0,.24l2.61,6.75c.48-.13.95-.27,1.42-.42C499.82,147.82,499.88,145.48,500,143.14Z"/><path class="cls-15" d="M499.8,150.14c-.47.15-.94.29-1.42.42l1.39,3.59,0,.07Q499.79,152.18,499.8,150.14Z"/><path class="cls-15" d="M500.27,137.72h-3.21a1.33,1.33,0,0,0-1.33,1.33v1.67c1.48.76,2.89,1.58,4.29,2.42q.08-1.48.21-3A15.48,15.48,0,0,0,500.27,137.72Z"/><path class="cls-14" d="M503.73,137.72h-3.46a15.48,15.48,0,0,1,0,2.45q-.14,1.49-.21,3l4.24,2.63.76-2a.64.64,0,0,0,.05-.24v-4.52A1.34,1.34,0,0,0,503.73,137.72Z"/><path class="cls-16" d="M503.18,140.76a.33.33,0,0,0-.27-.15h-3.69a.3.3,0,0,0-.31.3v3.7a.3.3,0,0,0,.31.3h3.69a.3.3,0,0,0,.31-.3v-3.7A.42.42,0,0,0,503.18,140.76Z"/><path class="cls-17" d="M501.36,141.17c-1.08.81-2.11,1.6-3.12,2.41v.36a.31.31,0,0,0,.31.31h3.69a.31.31,0,0,0,.31-.31v-3.69a.42.42,0,0,0,0-.16C502.16,140.46,501.77,140.8,501.36,141.17Z"/><path class="cls-18" d="M502.51,140.09a.32.32,0,0,0-.27-.15h-3.69a.31.31,0,0,0-.31.31v3.33c1-.81,2-1.6,3.12-2.41C501.77,140.8,502.16,140.46,502.51,140.09Z"/><path class="cls-13" d="M662.94,132.08c-1.45-.89-2.84-1.77-4.25-2.62-.14,2.34-.2,4.67-.22,7,1.11-.36,2.18-.77,3.25-1.23Z"/><path class="cls-14" d="M658.47,136.46c0,1.36,0,2.72,0,4.08a.68.68,0,0,0,.59.36.67.67,0,0,0,.62-.43l2-5.24C660.65,135.69,659.58,136.1,658.47,136.46Z"/><path class="cls-14" d="M658.69,129.46c-1.39-.85-2.8-1.66-4.29-2.42v2.85a.67.67,0,0,0,0,.24l2.62,6.75c.47-.13,1-.27,1.41-.42C658.49,134.13,658.55,131.8,658.69,129.46Z"/><path class="cls-15" d="M658.47,136.46c-.46.15-.94.29-1.41.42l1.39,3.59a.13.13,0,0,0,0,.07C658.46,139.18,658.46,137.82,658.47,136.46Z"/><path class="cls-15" d="M659,124h-3.22a1.34,1.34,0,0,0-1.33,1.34V127c1.49.76,2.9,1.57,4.29,2.42.06-1,.12-2,.21-3A14.35,14.35,0,0,0,659,124Z"/><path class="cls-14" d="M662.4,124H659a14.35,14.35,0,0,1-.05,2.45c-.09,1-.15,2-.21,3,1.41.85,2.8,1.73,4.25,2.62l.75-2a.69.69,0,0,0,0-.24v-4.52A1.34,1.34,0,0,0,662.4,124Z"/><path class="cls-16" d="M661.85,127.08a.3.3,0,0,0-.27-.16h-3.69a.31.31,0,0,0-.31.31v3.69a.31.31,0,0,0,.31.31h3.69a.31.31,0,0,0,.31-.31v-3.69A.33.33,0,0,0,661.85,127.08Z"/><path class="cls-17" d="M660,127.49c-1.08.81-2.11,1.59-3.12,2.41v.35a.31.31,0,0,0,.31.31h3.69a.31.31,0,0,0,.31-.31v-3.69a.26.26,0,0,0,0-.15C660.83,126.78,660.45,127.12,660,127.49Z"/><path class="cls-18" d="M661.18,126.41a.31.31,0,0,0-.27-.16h-3.69a.31.31,0,0,0-.31.31v3.34c1-.82,2-1.6,3.12-2.41C660.45,127.12,660.83,126.78,661.18,126.41Z"/><path class="cls-13" d="M549.43,271.7c-1.44-.89-2.84-1.77-4.25-2.62-.13,2.33-.2,4.67-.21,7,1.11-.36,2.18-.77,3.24-1.23Z"/><path class="cls-14" d="M545,276.08c0,1.36,0,2.72,0,4.07a.67.67,0,0,0,.59.36.68.68,0,0,0,.63-.42l2-5.24C547.15,275.31,546.08,275.72,545,276.08Z"/><path class="cls-14" d="M545.18,269.08c-1.39-.85-2.8-1.66-4.29-2.42v2.84a.7.7,0,0,0,.05.25l2.61,6.75c.48-.13,1-.27,1.42-.42C545,273.75,545.05,271.41,545.18,269.08Z"/><path class="cls-15" d="M545,276.08c-.47.15-.94.29-1.42.42l1.39,3.59,0,.06C545,278.8,545,277.44,545,276.08Z"/><path class="cls-15" d="M545.44,263.65h-3.21a1.34,1.34,0,0,0-1.34,1.33v1.68c1.49.76,2.9,1.57,4.29,2.42.06-1,.13-2,.21-3A14.35,14.35,0,0,0,545.44,263.65Z"/><path class="cls-14" d="M548.9,263.65h-3.46a14.35,14.35,0,0,1-.05,2.45c-.08,1-.15,2-.21,3,1.41.85,2.81,1.73,4.25,2.62l.76-1.95a.69.69,0,0,0,0-.25V265A1.34,1.34,0,0,0,548.9,263.65Z"/><path class="cls-16" d="M548.34,266.69a.3.3,0,0,0-.26-.15h-3.69a.31.31,0,0,0-.31.31v3.69a.31.31,0,0,0,.31.31h3.69a.31.31,0,0,0,.31-.31v-3.69A.3.3,0,0,0,548.34,266.69Z"/><path class="cls-17" d="M546.53,267.1c-1.08.81-2.12,1.6-3.12,2.42v.35a.31.31,0,0,0,.31.31h3.69a.31.31,0,0,0,.31-.31v-3.69a.33.33,0,0,0,0-.15C547.32,266.4,546.94,266.73,546.53,267.1Z"/><path class="cls-18" d="M547.68,266a.32.32,0,0,0-.27-.16h-3.69a.31.31,0,0,0-.31.31v3.34c1-.82,2-1.61,3.12-2.42C546.94,266.73,547.32,266.4,547.68,266Z"/><path class="cls-13" d="M496.87,344.79c-1.45-.88-2.84-1.77-4.25-2.62-.14,2.34-.2,4.67-.22,7,1.11-.36,2.18-.77,3.25-1.22Z"/><path class="cls-14" d="M492.4,349.17c0,1.36,0,2.72,0,4.08a.68.68,0,0,0,.59.36.67.67,0,0,0,.62-.43l2-5.23C494.58,348.4,493.51,348.81,492.4,349.17Z"/><path class="cls-14" d="M492.62,342.17c-1.39-.85-2.8-1.66-4.29-2.42v2.85a.67.67,0,0,0,0,.24l2.62,6.75c.47-.13.95-.27,1.41-.42C492.42,346.84,492.48,344.51,492.62,342.17Z"/><path class="cls-15" d="M492.4,349.17c-.46.15-.94.29-1.41.42l1.39,3.59a.13.13,0,0,0,0,.07C492.39,351.89,492.39,350.53,492.4,349.17Z"/><path class="cls-15" d="M492.88,336.74h-3.22a1.34,1.34,0,0,0-1.33,1.34v1.67c1.49.76,2.9,1.57,4.29,2.42.06-1,.12-2,.21-3A14.35,14.35,0,0,0,492.88,336.74Z"/><path class="cls-14" d="M496.33,336.74h-3.45a14.35,14.35,0,0,1-.05,2.45c-.09,1-.15,2-.21,3,1.41.85,2.8,1.74,4.25,2.62l.75-2a.69.69,0,0,0,.05-.24v-4.52A1.34,1.34,0,0,0,496.33,336.74Z"/><path class="cls-16" d="M495.78,339.79a.3.3,0,0,0-.27-.16h-3.69a.31.31,0,0,0-.31.31v3.69a.31.31,0,0,0,.31.31h3.69a.31.31,0,0,0,.31-.31v-3.69A.33.33,0,0,0,495.78,339.79Z"/><path class="cls-17" d="M494,340.2c-1.08.81-2.11,1.59-3.12,2.41V343a.31.31,0,0,0,.31.31h3.69a.31.31,0,0,0,.31-.31v-3.69a.26.26,0,0,0,0-.15C494.76,339.49,494.38,339.83,494,340.2Z"/><path class="cls-18" d="M495.11,339.12a.31.31,0,0,0-.27-.16h-3.69a.31.31,0,0,0-.31.31v3.34c1-.82,2-1.6,3.12-2.41C494.38,339.83,494.76,339.49,495.11,339.12Z"/><path class="cls-13" d="M644.34,371c-1.44-.88-2.83-1.77-4.24-2.62-.14,2.34-.2,4.67-.22,7,1.11-.36,2.18-.77,3.24-1.22Z"/><path class="cls-14" d="M639.88,375.35q0,2,0,4.08a.69.69,0,0,0,.6.36.67.67,0,0,0,.62-.43l2-5.23C642.06,374.58,641,375,639.88,375.35Z"/><path class="cls-14" d="M640.1,368.35c-1.4-.85-2.8-1.66-4.29-2.42v2.85a.67.67,0,0,0,0,.24l2.61,6.75c.48-.13.95-.27,1.42-.42C639.9,373,640,370.69,640.1,368.35Z"/><path class="cls-15" d="M639.88,375.35c-.47.15-.94.29-1.42.42l1.39,3.59,0,.07Q639.87,377.39,639.88,375.35Z"/><path class="cls-15" d="M640.36,362.92h-3.22a1.34,1.34,0,0,0-1.33,1.34v1.67c1.49.76,2.89,1.57,4.29,2.42q.07-1.49.21-3A16.9,16.9,0,0,0,640.36,362.92Z"/><path class="cls-14" d="M643.81,362.92h-3.45a16.9,16.9,0,0,1-.05,2.46q-.13,1.49-.21,3c1.41.85,2.8,1.74,4.24,2.62l.76-2a.69.69,0,0,0,0-.24v-4.52A1.34,1.34,0,0,0,643.81,362.92Z"/><path class="cls-16" d="M643.26,366a.32.32,0,0,0-.27-.16H639.3a.31.31,0,0,0-.31.31v3.69a.31.31,0,0,0,.31.31H643a.31.31,0,0,0,.31-.31v-3.69A.33.33,0,0,0,643.26,366Z"/><path class="cls-17" d="M641.44,366.38c-1.08.81-2.11,1.59-3.12,2.41v.35a.31.31,0,0,0,.31.31h3.69a.31.31,0,0,0,.31-.31v-3.69a.37.37,0,0,0,0-.15C642.24,365.67,641.86,366,641.44,366.38Z"/><path class="cls-18" d="M642.59,365.3a.31.31,0,0,0-.27-.16h-3.69a.31.31,0,0,0-.31.31v3.34c1-.82,2-1.6,3.12-2.41C641.86,366,642.24,365.67,642.59,365.3Z"/><path class="cls-13" d="M567,341.43c-1.45-.89-2.84-1.77-4.25-2.63-.13,2.34-.2,4.68-.22,7a32.4,32.4,0,0,0,3.25-1.22Z"/><path class="cls-14" d="M562.57,345.8c0,1.36,0,2.72,0,4.08a.66.66,0,0,0,.59.36.65.65,0,0,0,.62-.43l2-5.23A32.4,32.4,0,0,1,562.57,345.8Z"/><path class="cls-14" d="M562.79,338.8c-1.39-.84-2.8-1.66-4.29-2.42v2.85a.64.64,0,0,0,0,.24l2.61,6.75q.72-.2,1.41-.42C562.59,343.48,562.66,341.14,562.79,338.8Z"/><path class="cls-15" d="M562.57,345.8q-.69.22-1.41.42l1.39,3.59,0,.07C562.57,348.52,562.56,347.16,562.57,345.8Z"/><path class="cls-15" d="M563.05,333.38h-3.21a1.34,1.34,0,0,0-1.34,1.33v1.67c1.49.76,2.9,1.58,4.29,2.42q.09-1.49.21-3A14.39,14.39,0,0,0,563.05,333.38Z"/><path class="cls-14" d="M566.51,333.38h-3.46a14.39,14.39,0,0,1,0,2.45q-.12,1.49-.21,3c1.41.86,2.8,1.74,4.25,2.63l.76-2a.64.64,0,0,0,0-.24v-4.52A1.34,1.34,0,0,0,566.51,333.38Z"/><path class="cls-16" d="M566,336.42a.3.3,0,0,0-.26-.15H562a.29.29,0,0,0-.3.3v3.7a.29.29,0,0,0,.3.3h3.7a.29.29,0,0,0,.3-.3v-3.7A.28.28,0,0,0,566,336.42Z"/><path class="cls-17" d="M564.14,336.83c-1.08.81-2.12,1.6-3.12,2.41v.36a.31.31,0,0,0,.31.31H565a.31.31,0,0,0,.31-.31v-3.69a.3.3,0,0,0-.05-.16C564.93,336.12,564.55,336.46,564.14,336.83Z"/><path class="cls-18" d="M565.28,335.75a.3.3,0,0,0-.26-.15h-3.69a.31.31,0,0,0-.31.31v3.33c1-.81,2-1.6,3.12-2.41C564.55,336.46,564.93,336.12,565.28,335.75Z"/><path class="cls-13" d="M459.94,339c-1.45-.89-2.84-1.77-4.25-2.63-.14,2.34-.2,4.68-.22,7,1.11-.36,2.19-.77,3.25-1.23Z"/><path class="cls-14" d="M455.47,343.41c0,1.36,0,2.71,0,4.07a.66.66,0,0,0,.59.36.67.67,0,0,0,.62-.43l2-5.23C457.66,342.64,456.58,343.05,455.47,343.41Z"/><path class="cls-14" d="M455.69,336.4c-1.39-.84-2.8-1.65-4.29-2.42v2.85a.61.61,0,0,0,0,.24l2.62,6.75,1.41-.41C455.49,341.08,455.55,338.74,455.69,336.4Z"/><path class="cls-15" d="M455.47,343.41l-1.41.41,1.39,3.59a.15.15,0,0,0,0,.07C455.46,346.12,455.46,344.77,455.47,343.41Z"/><path class="cls-15" d="M456,331h-3.22a1.34,1.34,0,0,0-1.33,1.33V334c1.49.77,2.9,1.58,4.29,2.42.06-1,.12-2,.21-3A14.37,14.37,0,0,0,456,331Z"/><path class="cls-14" d="M459.4,331H456a14.37,14.37,0,0,1-.05,2.45c-.09,1-.15,2-.21,3,1.41.86,2.8,1.74,4.25,2.63l.75-2a.6.6,0,0,0,.05-.24v-4.52A1.34,1.34,0,0,0,459.4,331Z"/><path class="cls-16" d="M458.85,334a.32.32,0,0,0-.27-.15h-3.69a.31.31,0,0,0-.31.3v3.7a.3.3,0,0,0,.31.3h3.69a.3.3,0,0,0,.31-.3v-3.7A.42.42,0,0,0,458.85,334Z"/><path class="cls-17" d="M457,334.43c-1.08.81-2.11,1.6-3.12,2.42v.35a.31.31,0,0,0,.31.31h3.69a.31.31,0,0,0,.31-.31v-3.69a.29.29,0,0,0,0-.16A15,15,0,0,1,457,334.43Z"/><path class="cls-18" d="M458.18,333.35a.3.3,0,0,0-.27-.15h-3.69a.31.31,0,0,0-.31.31v3.34c1-.82,2-1.61,3.12-2.42A15,15,0,0,0,458.18,333.35Z"/><path class="cls-13" d="M548.3,188.27c-1.45-.89-2.84-1.77-4.25-2.62q-.19,3.51-.22,7c1.11-.36,2.19-.77,3.25-1.23Z"/><path class="cls-14" d="M543.83,192.65c0,1.36,0,2.72,0,4.08a.68.68,0,0,0,.59.36.66.66,0,0,0,.62-.43l2-5.24C546,191.88,544.94,192.29,543.83,192.65Z"/><path class="cls-14" d="M544.05,185.65c-1.39-.85-2.8-1.66-4.29-2.42v2.85a.69.69,0,0,0,0,.24l2.61,6.75q.72-.19,1.41-.42Q543.86,189.15,544.05,185.65Z"/><path class="cls-15" d="M543.83,192.65q-.69.22-1.41.42l1.39,3.59,0,.07C543.82,195.37,543.82,194,543.83,192.65Z"/><path class="cls-15" d="M544.31,180.22H541.1a1.34,1.34,0,0,0-1.34,1.34v1.67c1.49.76,2.9,1.57,4.29,2.42.06-1,.13-2,.21-3A14.35,14.35,0,0,0,544.31,180.22Z"/><path class="cls-14" d="M547.77,180.22h-3.46a14.35,14.35,0,0,1,0,2.45c-.08,1-.15,2-.21,3,1.41.85,2.8,1.73,4.25,2.62l.76-2a.67.67,0,0,0,0-.24v-4.52A1.34,1.34,0,0,0,547.77,180.22Z"/><path class="cls-16" d="M547.21,183.27a.29.29,0,0,0-.27-.16h-3.69a.31.31,0,0,0-.31.31v3.69a.31.31,0,0,0,.31.31h3.69a.31.31,0,0,0,.31-.31v-3.69A.24.24,0,0,0,547.21,183.27Z"/><path class="cls-17" d="M545.4,183.68c-1.08.8-2.12,1.59-3.12,2.41v.35a.3.3,0,0,0,.3.31h3.7a.31.31,0,0,0,.31-.31v-3.69a.27.27,0,0,0-.05-.15C546.19,183,545.81,183.31,545.4,183.68Z"/><path class="cls-18" d="M546.54,182.6a.31.31,0,0,0-.26-.16h-3.7a.3.3,0,0,0-.3.31v3.34c1-.82,2-1.61,3.12-2.41C545.81,183.31,546.19,183,546.54,182.6Z"/><path class="cls-13" d="M806.05,190.6c-1.44-.89-2.83-1.78-4.24-2.63-.14,2.34-.2,4.67-.22,7,1.11-.35,2.18-.77,3.24-1.22Z"/><path class="cls-14" d="M801.59,195q0,2,0,4.08a.69.69,0,0,0,.6.36.67.67,0,0,0,.62-.43l2-5.23C803.77,194.2,802.7,194.62,801.59,195Z"/><path class="cls-14" d="M801.81,188c-1.4-.84-2.8-1.66-4.29-2.42v2.85a.67.67,0,0,0,0,.24l2.61,6.75c.48-.13,1-.27,1.42-.42C801.61,192.64,801.67,190.31,801.81,188Z"/><path class="cls-15" d="M801.59,195c-.47.15-.94.29-1.42.42l1.39,3.59,0,.07Q801.58,197,801.59,195Z"/><path class="cls-15" d="M802.07,182.55h-3.22a1.32,1.32,0,0,0-1.33,1.33v1.67c1.49.76,2.89,1.58,4.29,2.42q.08-1.49.21-3A16.79,16.79,0,0,0,802.07,182.55Z"/><path class="cls-14" d="M805.52,182.55h-3.45A16.79,16.79,0,0,1,802,185q-.13,1.49-.21,3c1.41.85,2.8,1.74,4.24,2.63l.76-2a.69.69,0,0,0,.05-.24v-4.52A1.33,1.33,0,0,0,805.52,182.55Z"/><path class="cls-16" d="M805,185.59a.34.34,0,0,0-.27-.16H801a.31.31,0,0,0-.31.31v3.69a.31.31,0,0,0,.31.31h3.69a.31.31,0,0,0,.31-.31v-3.69A.37.37,0,0,0,805,185.59Z"/><path class="cls-17" d="M803.15,186c-1.08.81-2.11,1.6-3.12,2.41v.36a.3.3,0,0,0,.31.3H804a.3.3,0,0,0,.31-.3v-3.7a.42.42,0,0,0,0-.15C804,185.29,803.56,185.63,803.15,186Z"/><path class="cls-18" d="M804.3,184.92a.32.32,0,0,0-.27-.15h-3.69a.3.3,0,0,0-.31.3v3.34c1-.81,2-1.6,3.12-2.41C803.56,185.63,804,185.29,804.3,184.92Z"/><path class="cls-13" d="M724.17,164.85c-1.45-.89-2.84-1.78-4.25-2.63q-.2,3.51-.22,7c1.11-.36,2.19-.77,3.25-1.22Z"/><path class="cls-14" d="M719.7,169.22c0,1.36,0,2.72,0,4.08a.66.66,0,0,0,1.21-.07l2-5.23C721.89,168.45,720.81,168.86,719.7,169.22Z"/><path class="cls-14" d="M719.92,162.22c-1.39-.84-2.8-1.66-4.29-2.42v2.85a.69.69,0,0,0,0,.24l2.61,6.75q.72-.19,1.41-.42Q719.73,165.72,719.92,162.22Z"/><path class="cls-15" d="M719.7,169.22q-.69.22-1.41.42l1.39,3.59,0,.07C719.69,171.94,719.69,170.58,719.7,169.22Z"/><path class="cls-15" d="M720.18,156.8H717a1.33,1.33,0,0,0-1.34,1.33v1.67c1.49.76,2.9,1.58,4.29,2.42q.09-1.49.21-3A14.39,14.39,0,0,0,720.18,156.8Z"/><path class="cls-14" d="M723.64,156.8h-3.46a14.39,14.39,0,0,1,0,2.45q-.12,1.49-.21,3c1.41.85,2.8,1.74,4.25,2.63l.76-2a.67.67,0,0,0,0-.24v-4.52A1.33,1.33,0,0,0,723.64,156.8Z"/><path class="cls-16" d="M723.08,159.84a.31.31,0,0,0-.27-.16h-3.69a.31.31,0,0,0-.31.31v3.69a.31.31,0,0,0,.31.31h3.69a.31.31,0,0,0,.31-.31V160A.26.26,0,0,0,723.08,159.84Z"/><path class="cls-17" d="M721.27,160.25c-1.08.81-2.12,1.6-3.12,2.41V163a.29.29,0,0,0,.3.3h3.7a.3.3,0,0,0,.31-.3v-3.7a.3.3,0,0,0-.05-.15C722.06,159.54,721.68,159.88,721.27,160.25Z"/><path class="cls-18" d="M722.41,159.17a.3.3,0,0,0-.26-.15h-3.7a.29.29,0,0,0-.3.3v3.34c1-.81,2-1.6,3.12-2.41C721.68,159.88,722.06,159.54,722.41,159.17Z"/><path class="cls-13" d="M737.52,226.91c-1.45-.89-2.84-1.77-4.25-2.63q-.19,3.51-.22,7c1.11-.36,2.19-.77,3.25-1.23Z"/><path class="cls-14" d="M733.05,231.29c0,1.36,0,2.71,0,4.07a.67.67,0,0,0,1.21-.06l2-5.24C735.24,230.52,734.16,230.93,733.05,231.29Z"/><path class="cls-14" d="M733.27,224.28c-1.39-.84-2.8-1.65-4.29-2.42v2.85a.6.6,0,0,0,0,.24l2.61,6.75,1.41-.41Q733.08,227.8,733.27,224.28Z"/><path class="cls-15" d="M733.05,231.29l-1.41.41,1.39,3.6,0,.06C733.05,234,733,232.65,733.05,231.29Z"/><path class="cls-15" d="M733.53,218.86h-3.21a1.34,1.34,0,0,0-1.34,1.33v1.67c1.49.77,2.9,1.58,4.29,2.42q.09-1.49.21-3A14.35,14.35,0,0,0,733.53,218.86Z"/><path class="cls-14" d="M737,218.86h-3.46a14.35,14.35,0,0,1,0,2.45q-.12,1.49-.21,3c1.41.86,2.8,1.74,4.25,2.63l.76-2a.61.61,0,0,0,0-.24v-4.52A1.34,1.34,0,0,0,737,218.86Z"/><path class="cls-16" d="M736.43,221.9a.3.3,0,0,0-.26-.15h-3.7a.3.3,0,0,0-.3.31v3.69a.3.3,0,0,0,.3.31h3.7a.3.3,0,0,0,.3-.31v-3.69A.29.29,0,0,0,736.43,221.9Z"/><path class="cls-17" d="M734.62,222.31c-1.08.81-2.12,1.6-3.12,2.42v.35a.31.31,0,0,0,.31.31h3.69a.31.31,0,0,0,.31-.31v-3.69a.3.3,0,0,0,0-.16C735.41,221.61,735,221.94,734.62,222.31Z"/><path class="cls-18" d="M735.76,221.23a.3.3,0,0,0-.26-.15h-3.69a.31.31,0,0,0-.31.31v3.34c1-.82,2-1.61,3.12-2.42C735,221.94,735.41,221.61,735.76,221.23Z"/></g></g></svg>