<svg xmlns="http://www.w3.org/2000/svg" viewBox="0 0 1031 355"><defs><style>.cls-1{fill:#21468f;}.cls-2{fill:#3a96ee;}.cls-3{fill:#3ac5ab;}.cls-4{fill:#5135bd;}.cls-5{fill:#f7d943;}.cls-6{fill:none;stroke:#070707;stroke-linecap:round;stroke-linejoin:round;}.cls-7{font-size:20px;font-family:Poppins-Regular, Poppins;}.cls-8{font-size:50px;font-family:Poppins-Bold, Poppins;font-weight:700;}</style></defs><g id="Layer_2" data-name="Layer 2"><rect class="cls-1" x="43" y="164" width="189" height="15"/><rect class="cls-2" x="232" y="164" width="189" height="15"/><rect class="cls-3" x="421" y="164" width="189" height="15"/><rect class="cls-4" x="610" y="164" width="189" height="15"/><rect class="cls-5" x="799" y="164" width="189" height="15"/><line class="cls-6" x1="43.25" y1="99.5" x2="43.25" y2="306.5"/><line class="cls-6" x1="232.25" y1="41.5" x2="232.25" y2="248.5"/><line class="cls-6" x1="420.75" y1="99.5" x2="420.75" y2="306.5"/><line class="cls-6" x1="609.25" y1="41.5" x2="609.25" y2="248.5"/><line class="cls-6" x1="798.75" y1="97.5" x2="798.75" y2="304.5"/><line class="cls-6" x1="987.25" y1="41.5" x2="987.25" y2="248.5"/><circle cx="232.25" cy="249" r="2"/><circle cx="420.75" cy="100" r="2"/><circle cx="609.25" cy="249" r="2"/><circle cx="798.75" cy="98" r="2"/><circle cx="987.25" cy="249" r="2"/></g><g id="Layer_3" data-name="Layer 3"><text class="cls-7" transform="translate(60.12 218.24)">Laboratory<tspan x="0" y="24">Product Launch</tspan></text><text class="cls-7" transform="translate(251.12 120.24)">Nationwide<tspan x="0" y="24">Expansion</tspan></text><text class="cls-7" transform="translate(439.12 218.24)">Endoscopy<tspan x="0" y="24">Service Launch</tspan></text><text class="cls-7" transform="translate(628.12 120.24)">E-Catalogue<tspan x="0" y="24">Listing</tspan></text><text class="cls-7" transform="translate(819.12 218.24)">Obgyn<tspan x="0" y="24">Expansion</tspan></text><text class="cls-8" transform="translate(59.12 144.57)">2001</text><text class="cls-8" transform="translate(250.12 235.74)">2005</text><text class="cls-8" transform="translate(438.12 144.57)">2018</text><text class="cls-8" transform="translate(627.12 235.74)">2019</text><text class="cls-8" transform="translate(819.12 144.57)">2023</text><circle cx="43.25" cy="99" r="2"/></g></svg>