<svg xmlns="http://www.w3.org/2000/svg" xmlns:xlink="http://www.w3.org/1999/xlink" viewBox="0 0 1366 863"><defs><style>.cls-1{fill:none;}.cls-2{clip-path:url(#clip-path);}.cls-3{fill:#21468f;}.cls-4{fill:#39c4fb;}</style><clipPath id="clip-path"><rect class="cls-1" width="1366" height="863"/></clipPath></defs><g id="Layer_2" data-name="Layer 2"><g class="cls-2"><path class="cls-3" d="M506,96c96.06,52.62,152.16,121.17,164,136,110.26,138.2,53.6,221.75,135,360,105,178.3,350.22,295.85,521,236a270.44,270.44,0,0,0,77.67-43q3.67-396.71,7.33-793.4L155.9,3.08C155.53,3.08,350.37,10.74,506,96Z"/><path class="cls-4" d="M484,67c71.53,36.71,142.58,73.17,199,148,105.06,139.34,25,233.42,108,377,98,169.51,342.92,269,513,207a290.4,290.4,0,0,0,77.67-43q3.67-396.71,7.33-793.4L134-25.92C213.16-21.94,343.64-5,484,67Z"/></g></g></svg>