<svg xmlns="http://www.w3.org/2000/svg" xmlns:xlink="http://www.w3.org/1999/xlink" viewBox="0 0 512 487"><defs><style>.cls-1,.cls-5{opacity:0.69;}.cls-2,.cls-4,.cls-5{fill:#fff;}.cls-3{opacity:0.59;}.cls-4{opacity:0.72;}.cls-6{opacity:0.55;}.cls-7{opacity:0.75;}.cls-8{opacity:0.85;}</style></defs><g id="Layer_2" data-name="Layer 2"><image width="1024" height="1024" transform="translate(37.91 25.12) scale(0.41)" xlink:href="../../../../Downloads/nah.png"/><g class="cls-1"><path class="cls-2" d="M403,86.18h-1.62v-.91a3.82,3.82,0,0,0-1-2.56,2.39,2.39,0,0,0,.23-.22A6.3,6.3,0,0,0,402,75.54a2.33,2.33,0,0,0,.06-.53,2.48,2.48,0,0,0-.82-1.84l.14-.25a1.49,1.49,0,0,0-.15-1.7l.6-1a.73.73,0,0,0,.25,0,1,1,0,0,0,.6-.45l.73-1.28a.48.48,0,0,0-.18-.67l-4.67-2.69a.44.44,0,0,0-.37,0,.46.46,0,0,0-.3.22l-.74,1.28a1,1,0,0,0,0,1l-.59,1a1.58,1.58,0,0,0-.65,0,1.49,1.49,0,0,0-.9.69l-2.7,4.67a1.51,1.51,0,0,0-.14,1.12,1.49,1.49,0,0,0,.3.57l-.53.92a1,1,0,0,0-.1.75,1,1,0,0,0,.46.59l3,1.72a1,1,0,0,0,.49.13,1,1,0,0,0,.85-.49l.53-.92a1.23,1.23,0,0,0,.27,0,1.2,1.2,0,0,0,.38,0,1.47,1.47,0,0,0,.9-.68l.14-.26a2.64,2.64,0,0,0,.68.13,3.08,3.08,0,0,1,0,.53,3.36,3.36,0,0,1-1,2.42,3.41,3.41,0,0,1-2.42,1h-1.72a.49.49,0,1,0,0,1h1.72a.49.49,0,0,1,0,1h-7.85a.49.49,0,1,1,0-1H390a.49.49,0,0,0,0-1h-1.72a1.47,1.47,0,1,0,0,2.94h1.24v1.82h-2.22a1.47,1.47,0,0,0-1.47,1.47v2a.49.49,0,0,0,.49.49H404a.49.49,0,0,0,.49-.49v-2A1.47,1.47,0,0,0,403,86.18Zm-2.6-.91v.91h-1v-.91a1.89,1.89,0,0,0-.69-1.46,6.56,6.56,0,0,0,.9-.49,2.87,2.87,0,0,1,.77,2Zm-4.27-.91h1.4a.91.91,0,0,1,.91.91v.91H394.9V84.36Zm3.49-7.88A1.47,1.47,0,1,1,401.07,75,1.47,1.47,0,0,1,399.6,76.48Zm-2.16-7.54.49-.85,3,1.72-.49.85Zm1-2.79,3.83,2.21-.49.85L398,67ZM392.78,77l.49-.85,3,1.71-.49.85Zm5.05.08a.53.53,0,0,1-.3.23.52.52,0,0,1-.37,0l-3.83-2.21h0a.46.46,0,0,1-.22-.3.48.48,0,0,1,0-.37l2.7-4.67a.5.5,0,0,1,.3-.23.48.48,0,0,1,.37,0l3.83,2.21a.49.49,0,0,1,.17.67l-.14.25a2.55,2.55,0,0,0-.78-.13A2.46,2.46,0,0,0,397.15,75a2.43,2.43,0,0,0,.83,1.83Zm-.42,5.11a4.5,4.5,0,0,0,1.82-1.1A4.42,4.42,0,0,0,400.52,78a4,4,0,0,0,0-.69,2.41,2.41,0,0,0,.88-.58,5.41,5.41,0,0,1-3.8,6.47,1.53,1.53,0,0,0,0-.3,1.43,1.43,0,0,0-.17-.68Zm-6.93,2.15h3.44v1.82h-3.44Zm13,4.76H386.79V87.65a.49.49,0,0,1,.49-.49H403a.49.49,0,0,1,.49.49Z"/><path class="cls-2" d="M392.68,81.91a.49.49,0,0,0-.49-.49h0a.49.49,0,1,0,.49.49Z"/></g><g class="cls-3"><path class="cls-2" d="M90.58,154.67l2.75-4.32a2.55,2.55,0,0,0,.74.12,2.39,2.39,0,1,0-1.76-.76l-2.77,4.36H81.79l-5-7.79,3.2-4.39a2.34,2.34,0,0,0,.88.17,2.39,2.39,0,1,0-1.86-.88l-3.25,4.48H70a2.4,2.4,0,1,0-4.08,2.23l-2.56,4a2.81,2.81,0,0,0-1.08-.21,3,3,0,0,0,0,6,2.81,2.81,0,0,0,1.08-.21l3.6,5.6-3.2,4.39a2.34,2.34,0,0,0-.88-.17,2.39,2.39,0,1,0,1.86.88L68,163.68h7.78L80,170.39a1.78,1.78,0,0,0-.38,1.09,1.79,1.79,0,0,0,3.49.6h3.77a3,3,0,1,0,5-2.74l4-6.26Zm3.49-7.81a1.21,1.21,0,0,1,0,2.41,1.23,1.23,0,0,1-.65-.19,1.21,1.21,0,0,1,.65-2.22Zm-13.21-8.4a1.2,1.2,0,1,1,0,2.4,1.15,1.15,0,0,1-.71-.24,1.18,1.18,0,0,1-.49-1A1.2,1.2,0,0,1,80.86,138.46ZM70,146.86h5.77l5,7.81-5,7.81H68l-3.64-5.67a3,3,0,0,0,0-4.28l2.57-4a2.36,2.36,0,0,0,.75.13A2.4,2.4,0,0,0,70,146.86Zm-2.31-1.8a1.2,1.2,0,1,1,0,2.4,1.2,1.2,0,0,1-1.2-1.2A1.2,1.2,0,0,1,67.65,145.06Zm-7.21,9.61a1.8,1.8,0,1,1,3.6,0,1.79,1.79,0,0,1-.83,1.51,1.75,1.75,0,0,1-1,.29A1.81,1.81,0,0,1,60.44,154.67Zm2.4,16.21a1.2,1.2,0,0,1,0-2.4,1.15,1.15,0,0,1,.71.24,1.18,1.18,0,0,1,.49,1A1.2,1.2,0,0,1,62.84,170.88Zm18.62,1.2a.6.6,0,0,1-.31-1.11.52.52,0,0,1,.31-.09.6.6,0,0,1,.6.6A.6.6,0,0,1,81.46,172.08Zm5.46-1.2H83.15a1.81,1.81,0,0,0-1.69-1.2,1.84,1.84,0,0,0-.41,0l-4.28-6.65,5-7.81h7.75l5,7.81L91,168.69a3.11,3.11,0,0,0-1.09-.21,3,3,0,0,0-2.94,2.4Zm2.94,2.41a1.81,1.81,0,0,1,0-3.61,1.81,1.81,0,0,1,1.81,1.8A1.81,1.81,0,0,1,89.86,173.29Z"/><path class="cls-2" d="M67.65,151.67h4.8v1.2h-4.8Z"/><path class="cls-2" d="M73.65,151.67h2.4v1.2h-2.4Z"/><path class="cls-2" d="M67.65,154.07h8.4v1.2h-8.4Z"/><path class="cls-2" d="M74.85,156.47h1.2v1.2h-1.2Z"/><path class="cls-2" d="M72.45,156.47h1.2v1.2h-1.2Z"/><path class="cls-2" d="M67.65,156.47h3.6v1.2h-3.6Z"/><path class="cls-2" d="M81.46,160.07h4.8v1.21h-4.8Z"/><path class="cls-2" d="M87.46,160.07h2.4v1.21h-2.4Z"/><path class="cls-2" d="M81.46,162.48h8.4v1.2h-8.4Z"/><path class="cls-2" d="M88.66,164.88h1.2v1.2h-1.2Z"/><path class="cls-2" d="M86.26,164.88h1.2v1.2h-1.2Z"/><path class="cls-2" d="M81.46,164.88h3.6v1.2h-3.6Z"/></g><path class="cls-2" d="M418.66,126.18h10.09v10.1a1,1,0,0,0,1,1h8.09a1,1,0,0,0,1-1v-10h10a1,1,0,0,0,1-1v-8.09a1,1,0,0,0-1-1h-10.1V106.16a1,1,0,0,0-1-1h-8.09a1,1,0,0,0-1,1v10h-10a1,1,0,0,0-1,1v8.09A1,1,0,0,0,418.66,126.18Z"/><path class="cls-4" d="M419.42,186h4.76v4.75a.46.46,0,0,0,.45.46h3.81a.47.47,0,0,0,.46-.46V186h4.7a.46.46,0,0,0,.46-.45v-3.81a.47.47,0,0,0-.46-.46h-4.75v-4.75a.47.47,0,0,0-.46-.46h-3.8a.47.47,0,0,0-.46.46v4.71h-4.71a.45.45,0,0,0-.45.45v3.81A.46.46,0,0,0,419.42,186Z"/><path class="cls-4" d="M43.47,94.13h6.77v6.77a.66.66,0,0,0,.65.65h5.42a.65.65,0,0,0,.65-.65V94.2h6.71a.66.66,0,0,0,.65-.65V88.13a.66.66,0,0,0-.65-.65H56.9V80.71a.66.66,0,0,0-.65-.65H50.83a.66.66,0,0,0-.66.65v6.7h-6.7a.66.66,0,0,0-.65.65v5.42A.66.66,0,0,0,43.47,94.13Z"/><path class="cls-4" d="M39.52,328.07h7.27v7.27a.7.7,0,0,0,.7.7h5.83a.7.7,0,0,0,.7-.7v-7.2h7.2a.7.7,0,0,0,.7-.7v-5.82a.7.7,0,0,0-.7-.7H53.94v-7.27a.7.7,0,0,0-.7-.7H47.42a.7.7,0,0,0-.7.7v7.2h-7.2a.7.7,0,0,0-.7.7v5.82A.7.7,0,0,0,39.52,328.07Z"/><path class="cls-5" d="M70.24,226.92a1,1,0,0,0-1.33.12,8.39,8.39,0,0,1-1.12,1.11l-7.88-3.9a7.67,7.67,0,0,1,.2-1.57.94.94,0,0,0-1.84-.41,10.59,10.59,0,0,0-.25,2.56v.07a10.41,10.41,0,0,0,1.67,5.28,10.34,10.34,0,0,0-7.89,16A10.38,10.38,0,0,0,46.58,248l0,0a10.48,10.48,0,0,0-1.89,1.76A.94.94,0,0,0,46.09,251a8.39,8.39,0,0,1,1.12-1.11l7.88,3.89a8.23,8.23,0,0,1-.2,1.57,1,1,0,0,0,.71,1.13.88.88,0,0,0,.51,0,.93.93,0,0,0,.62-.68,10.62,10.62,0,0,0,.25-2.57.13.13,0,0,0,0-.06,10.26,10.26,0,0,0-1.67-5.29,10.33,10.33,0,0,0,7.9-16,10.43,10.43,0,0,0,2.54-.52,10.26,10.26,0,0,0,2.66-1.35l.07-.05a10.42,10.42,0,0,0,1.89-1.75A1,1,0,0,0,70.24,226.92Zm-10.12,5.13.85,0,.49.7a8.47,8.47,0,0,1,1.31,2.93L57,232.78A8.49,8.49,0,0,1,60.12,232.05Zm2.37,8.39-9.14-4.52a8.49,8.49,0,0,1,1.76-2l7.88,3.9A8.56,8.56,0,0,1,62.49,240.44Zm-2.6,3.67L52,240.21a8.62,8.62,0,0,1,.5-2.6l9.14,4.52A8.34,8.34,0,0,1,59.89,244.11ZM49.1,248.74a8.39,8.39,0,0,1,3.13-.74l.85,0,.48.69a8.39,8.39,0,0,1,1.31,2.93ZM54.88,246,54,246l-.49-.69a8.47,8.47,0,0,1-1.31-2.93L58,245.27A8.25,8.25,0,0,1,54.88,246Zm7.89-15.95-.85,0-.49-.7a8.68,8.68,0,0,1-1.31-2.93l5.78,2.86A8.59,8.59,0,0,1,62.77,230.06Z"/><g class="cls-6"><path class="cls-2" d="M470,251.33a4.49,4.49,0,1,0-5.24,4.41v4.71a6.64,6.64,0,0,1-13.28,0l0-5.39a8.17,8.17,0,0,0,5-3,1.13,1.13,0,0,0,.25-.9,16,16,0,0,0,3.2-8.9c0-4.22-1.89-4.66-5-5.37h0a1.18,1.18,0,0,0-1-.67,1.19,1.19,0,1,0,0,2.38,1.12,1.12,0,0,0,.7-.26h0c3,.7,3.85.89,3.85,3.92a14.58,14.58,0,0,1-2.88,7.95,1.14,1.14,0,0,0-.78.38,4.65,4.65,0,0,1-8,0,1.12,1.12,0,0,0-.79-.38,14.7,14.7,0,0,1-2.88-8c0-3,.81-3.22,3.86-3.92h0a1.22,1.22,0,0,0,.72.26,1.19,1.19,0,0,0,0-2.38,1.21,1.21,0,0,0-1.07.67h0c-3.13.72-5,1.15-5,5.38a15.92,15.92,0,0,0,3.23,8.92,1.15,1.15,0,0,0,.25.9,8.18,8.18,0,0,0,4.93,3v5.38a8.14,8.14,0,1,0,16.28,0v-4.7A4.48,4.48,0,0,0,470,251.33Zm-4.49,3a3,3,0,1,1,3-3A3,3,0,0,1,465.51,254.33Z"/><path class="cls-2" d="M465.51,249.1a2.24,2.24,0,1,0,2.25,2.23A2.24,2.24,0,0,0,465.51,249.1Z"/></g><g class="cls-7"><path class="cls-2" d="M179.31,87.55a.63.63,0,0,0-.63.63.63.63,0,0,0,1.26,0A.63.63,0,0,0,179.31,87.55Z"/><path class="cls-2" d="M176.79,83.76a.63.63,0,1,0,.63.63A.63.63,0,0,0,176.79,83.76Z"/><path class="cls-2" d="M169.22,100.16a.63.63,0,1,0,.63.63A.63.63,0,0,0,169.22,100.16Z"/><path class="cls-2" d="M189.3,98.63l-8.1-14.4V76.59a1.89,1.89,0,0,0-.63-3.68H173a1.89,1.89,0,0,0-.64,3.68v7.64l-8.09,14.4a4.41,4.41,0,0,0,3.84,6.58h17.34a4.41,4.41,0,0,0,3.84-6.58ZM173.56,84.7a.65.65,0,0,0,.08-.31V76.7h.63a.63.63,0,1,0,0-1.26H173a.64.64,0,0,1-.64-.63.64.64,0,0,1,.64-.63h7.56a.63.63,0,0,1,.63.63.63.63,0,0,1-.63.63h-1.26a.63.63,0,0,0,0,1.26h.63v7.69a.65.65,0,0,0,.08.31l3.72,6.61a12.25,12.25,0,0,0-6.61,1.35,10.84,10.84,0,0,1-8.45.71Zm14.62,17.68a3.12,3.12,0,0,1-2.72,1.56H168.12a3.16,3.16,0,0,1-2.75-4.7l2.68-4.75a12.18,12.18,0,0,0,4,.68h.61a12.18,12.18,0,0,0,5.05-1.38,11,11,0,0,1,6.8-1.11l3.69,6.57A3.12,3.12,0,0,1,188.18,102.38Z"/><path class="cls-2" d="M174.27,87.55a1.89,1.89,0,1,0,1.89,1.89A1.89,1.89,0,0,0,174.27,87.55Zm0,2.52a.63.63,0,1,1,0-1.26.63.63,0,1,1,0,1.26Z"/><path class="cls-2" d="M184.36,100.16H171.74a.63.63,0,0,0,0,1.26h12.62a.63.63,0,0,0,0-1.26Z"/></g><g class="cls-8"><path class="cls-2" d="M127,92.11c-.92-1.23-3-1.58-5.62-1l-.13-.3a1.48,1.48,0,0,0-.12-2,1.46,1.46,0,0,0-1.51-.29,2.87,2.87,0,0,0-1.92-.79,3.06,3.06,0,0,0-2.22,1.07,7.56,7.56,0,0,0-1.46,2.35c-2.66-.6-4.7-.25-5.62,1-1.05,1.39-.47,3.67,1.54,6.11l-.25.31a1.47,1.47,0,0,0-1.44,2.41,3.41,3.41,0,0,0,.15,3.4,3.89,3.89,0,0,0,3.27,1.26,10.71,10.71,0,0,0,2.35-.28,7.63,7.63,0,0,0,1.46,2.34,2.82,2.82,0,0,0,4.44,0,7.63,7.63,0,0,0,1.46-2.34l.43.09a1.49,1.49,0,0,0,.54.92,1.43,1.43,0,0,0,1.09.31,1.47,1.47,0,0,0,1.25-1.1,3.43,3.43,0,0,0,2.31-1.2c1.05-1.4.47-3.68-1.54-6.12C127.5,95.78,128.08,93.5,127,92.11Zm-4.41,4.44a19.49,19.49,0,0,1,1.73,1.67,19.49,19.49,0,0,1-1.73,1.67c0-.55.06-1.11.06-1.67S122.66,97.11,122.62,96.55Zm-.12-1.2a17.6,17.6,0,0,0-.78-3.41c2.22-.48,3.94-.23,4.62.68s.22,2.91-1.42,4.95A20.28,20.28,0,0,0,122.5,95.35Zm0,5.75a21.16,21.16,0,0,0,2.42-2.22c1.64,2,2.19,3.92,1.42,4.94a2.51,2.51,0,0,1-1.66.86,1.47,1.47,0,0,0-1.39-1,1.68,1.68,0,0,0-.43.07,1.47,1.47,0,0,0-.9.79l-.24,0A18,18,0,0,0,122.5,101.1ZM117.73,104a19,19,0,0,0,2.84,1.07c-.77,1.77-1.81,2.78-2.84,2.78s-2.07-1-2.84-2.78A19.46,19.46,0,0,0,117.73,104Zm1-14a1.48,1.48,0,0,0,1.85,1.24l0,0a19.46,19.46,0,0,0-2.84,1.07,20.21,20.21,0,0,0-2.84-1.07c.77-1.76,1.8-2.78,2.84-2.78A2,2,0,0,1,119,89,1.46,1.46,0,0,0,118.7,90.06Zm.85-.18a.62.62,0,1,1,.61.61A.62.62,0,0,1,119.55,89.88Zm-5.78,10.76a21.67,21.67,0,0,1,0-4.83c.45-.34.91-.67,1.38-1a26.35,26.35,0,0,1,2.58-1.47,26.35,26.35,0,0,1,2.58,1.47c.47.31.93.64,1.38,1a22.5,22.5,0,0,1,0,4.83c-.45.34-.91.66-1.38,1a25.23,25.23,0,0,1-2.58,1.47,25.23,25.23,0,0,1-2.58-1.47C114.68,101.3,114.21,101,113.77,100.64Zm7-6.53c-.66-.43-1.35-.83-2-1.2a18.35,18.35,0,0,1,2.15-.77,16.42,16.42,0,0,1,.64,2.48Zm-5.67,7.57Zm-1.17-7.06a16.42,16.42,0,0,1,.64-2.48,18.35,18.35,0,0,1,2.15.77c-.7.37-1.39.77-2,1.2Zm-4.82,9.2a2.59,2.59,0,0,1-.09-2.43,1.47,1.47,0,0,0,1-.13,1.49,1.49,0,0,0,.71-.87,1.47,1.47,0,0,0-.32-1.42l.07-.09A21.23,21.23,0,0,0,113,101.1a18,18,0,0,0,.78,3.41C111.52,105,109.8,104.73,109.12,103.82Zm.26-4.47a.61.61,0,1,1,0,1.22.61.61,0,1,1,0-1.22Zm3.46.54a19.49,19.49,0,0,1-1.73-1.67,19.49,19.49,0,0,1,1.73-1.67c0,.55-.06,1.12-.06,1.67S112.8,99.34,112.84,99.89Zm.12-4.54a20.28,20.28,0,0,0-2.42,2.22c-1.64-2-2.19-3.93-1.42-4.95s2.4-1.16,4.62-.68A17.6,17.6,0,0,0,113,95.35Zm1.72,7a23.35,23.35,0,0,0,2,1.2,18.35,18.35,0,0,1-2.15.77,16.42,16.42,0,0,1-.64-2.48C114.19,102,114.43,102.17,114.68,102.33Zm6.84-.5a16.61,16.61,0,0,1-.64,2.47,18.35,18.35,0,0,1-2.15-.77c.7-.36,1.38-.77,2-1.2Zm2.39,3.35a.61.61,0,0,1-.62.61.61.61,0,0,1-.61-.61.61.61,0,0,1,.61-.62A.62.62,0,0,1,123.91,105.18Z"/><path class="cls-2" d="M117.73,101.08a2.86,2.86,0,1,0-2.86-2.86A2.86,2.86,0,0,0,117.73,101.08Zm-2-2.86a2,2,0,1,1,2,2A2,2,0,0,1,115.72,98.22Z"/></g><path class="cls-2" d="M112.41,414.51h-1v-1a1,1,0,1,0-1.93,0v1h-1a1,1,0,0,0,0,1.94h1v1a1,1,0,1,0,1.93,0v-1h1a1,1,0,0,0,0-1.94Zm2.87-3.82a8.7,8.7,0,0,0,0-.89c0-4.86-3.5-8.86-8.3-8.86a7.84,7.84,0,0,0-6.5,3.55,11.79,11.79,0,0,0-.77,1.25,13.91,13.91,0,0,0-.78-1.25,7.82,7.82,0,0,0-6.49-3.55c-4.81,0-8.31,4-8.31,8.86a10.7,10.7,0,0,0,2.51,6.65H85.14a1,1,0,1,0,0,1.94h3.22c1.83,1.9,4.19,3.9,6.86,6.15,1.24,1,2.53,2.12,3.89,3.31a1,1,0,0,0,1.27,0c1.38-1.2,2.69-2.29,4-3.35s2.33-1.93,3.36-2.83a6.79,6.79,0,0,0,7.59-11Zm-29.17-.89c0-3.95,2.74-6.92,6.37-6.92a5.85,5.85,0,0,1,4.88,2.7,10.1,10.1,0,0,1,1.45,2.89,1,1,0,0,0,.93.71h0a1,1,0,0,0,.93-.71,10.1,10.1,0,0,1,1.45-2.89,5.85,5.85,0,0,1,4.89-2.7c3.49,0,6.15,2.74,6.35,6.46a6.78,6.78,0,0,0-9.61,5.17h-3.53a1,1,0,0,0-.94.73l-.65,2.59-2.82-8.47a1,1,0,0,0-1-.67,1,1,0,0,0-.9.74l-1.76,7h-3c-2-2.2-3.1-4.28-3.1-6.65Zm17,13.22c-1.08.89-2.18,1.82-3.34,2.81-1.14-1-2.23-1.89-3.28-2.78-2-1.71-3.84-3.23-5.35-4.66H93a1,1,0,0,0,.94-.74L95,413.13l2.83,8.47a1,1,0,0,0,.92.67h0a1,1,0,0,0,.91-.73l1.27-5.08h2.77a6.76,6.76,0,0,0,2.23,4.12C105.09,421.35,104.11,422.16,103.09,423Zm7.39-2.69a4.85,4.85,0,1,1,4.84-4.85A4.85,4.85,0,0,1,110.48,420.33Z"/></g></svg>